<svg id="Central_Comms_C" data-name="Central Comms C" xmlns="http://www.w3.org/2000/svg" viewBox="0 0 1001.04 1024.34">
  <path id="Blue_C" data-name="Blue C" fill="#27448f" d="M525.3,843.23c-179.71,0-325.38-145.67-325.38-325.38S345.59,192.48,525.3,192.48H919.54C825.69,75,681.32-.34,519.27-.34,236.41-.34,7.1,229,7.1,511.83S236.41,1024,519.27,1024c156.44,0,296.4-70.22,390.35-180.77Z" transform="translate(-7.1 0.34)"/>
  <path id="Grey_C" data-name="Grey C" fill="#b7b7b7" d="M813.89,554H501.19v-.61a53.92,53.92,0,0,1,0-107.24v-.61h503.32a509.23,509.23,0,0,0-54.69-168.72H513.24v.26c-2,0-4-.26-6-.26-123.13,0-223,99.82-223,223s99.82,222.94,223,222.94c2,0,4-.2,6-.26v.26H966.5A509.74,509.74,0,0,0,1008.14,554Z" transform="translate(-7.1 0.34)"/>
</svg>