<?xml version="1.0" encoding="utf-8"?>
<!-- Generator: Adobe Illustrator 24.1.0, SVG Export Plug-In . SVG Version: 6.00 Build 0)  -->
<svg version="1.1" xmlns="http://www.w3.org/2000/svg" xmlns:xlink="http://www.w3.org/1999/xlink" x="0px" y="0px"
	 viewBox="0 0 455 132" style="enable-background:new 0 0 455 132;" xml:space="preserve">
<style type="text/css">
	.st0{display:none;}
	.st1{fill:#27448F;}
	.st2{fill:#B7B7B7;}
	.st3{fill:#FFFFFF;}
	.st4{fill-rule:evenodd;clip-rule:evenodd;fill:#FF0000;stroke:#000000;}
</style>
<g id="Original_Central_Comms_Logo" class="st0">
	
		<image style="display:inline;overflow:visible;" width="394" height="87" xlink:href="42ABB626.jpg"  transform="matrix(1 0 0 1 61 148)">
	</image>
</g>
<g id="Central_Comms_text_PATHS">
	<g>
		<path class="st1" d="M154.3,60.8c0-0.7,0.2-1.3,0.5-1.9s0.8-1.1,1.3-1.5c0.6-0.4,1.2-0.8,2-1s1.6-0.4,2.4-0.4h23.7
			c0.9,0,1.7,0.1,2.4,0.4s1.4,0.6,2,1c0.6,0.4,1,0.9,1.3,1.5s0.5,1.2,0.5,1.9v4.3h-6.2v-4.3h-23.7v24h23.7v-4.3h6.2v4.3
			c0,0.7-0.2,1.3-0.5,1.9s-0.8,1.1-1.3,1.5c-0.6,0.4-1.2,0.8-2,1s-1.6,0.4-2.4,0.4h-23.7c-0.9,0-1.7-0.1-2.4-0.4s-1.4-0.6-2-1
			c-0.6-0.4-1-0.9-1.3-1.5s-0.5-1.2-0.5-1.9V60.8z"/>
		<path class="st1" d="M200.5,56h31.8v4.8h-25.6v9.6h21.8v4.8h-21.8v9.6h25.6v4.8h-31.8V56z"/>
		<path class="st1" d="M247.9,89.6h-6.2V56h6.2L274.1,82V56h6.2v33.6h-6.2l-26.2-26.1V89.6z"/>
		<path class="st1" d="M287.8,56h34.9v4.8h-14.3v28.8h-6.2V60.8h-14.3V56z"/>
		<path class="st1" d="M364.8,68c0,4.7-2.6,7.4-7.8,8l8.2,13.6h-6.9l-8.1-13.4h-13.7v13.4h-6.2V56h23.9c7.1,0,10.6,2.7,10.6,8.2V68z
			 M336.5,71.3h17.3c1.7,0,2.9-0.3,3.6-0.8c0.7-0.6,1.1-1.5,1.1-2.8v-3.4c0-1.3-0.4-2.2-1.1-2.8c-0.7-0.6-1.9-0.8-3.6-0.8h-17.3
			V71.3z"/>
		<path class="st1" d="M394.5,56l16.8,33.6h-6.2l-3.9-7.7h-19.7l-3.9,7.7h-6.2L388.3,56H394.5z M383.9,77h14.9l-7.4-14.8L383.9,77z"
			/>
		<path class="st1" d="M425.1,56v28.8h22.4v4.8h-28.7V56H425.1z"/>
	</g>
	<g>
		<path class="st1" d="M154.7,102c0-0.3,0.1-0.6,0.2-0.9c0.2-0.3,0.4-0.5,0.6-0.8c0.3-0.2,0.6-0.4,0.9-0.5s0.7-0.2,1.1-0.2h11.2
			c0.4,0,0.8,0.1,1.1,0.2c0.4,0.1,0.7,0.3,0.9,0.5c0.3,0.2,0.5,0.5,0.6,0.8c0.2,0.3,0.2,0.6,0.2,0.9v2.2h-3V102h-11.2v12h11.2v-2.2
			h3v2.2c0,0.3-0.1,0.6-0.2,0.9c-0.2,0.3-0.4,0.5-0.6,0.8c-0.3,0.2-0.6,0.4-0.9,0.5c-0.4,0.1-0.7,0.2-1.1,0.2h-11.2
			c-0.4,0-0.8-0.1-1.1-0.2s-0.7-0.3-0.9-0.5c-0.3-0.2-0.5-0.5-0.6-0.8c-0.2-0.3-0.2-0.6-0.2-0.9V102z"/>
		<path class="st1" d="M194.4,114c0,0.3-0.1,0.6-0.2,0.9c-0.2,0.3-0.4,0.5-0.6,0.8c-0.3,0.2-0.6,0.4-0.9,0.5
			c-0.4,0.1-0.7,0.2-1.1,0.2h-11.8c-0.4,0-0.8-0.1-1.1-0.2s-0.7-0.3-0.9-0.5c-0.3-0.2-0.5-0.5-0.6-0.8c-0.2-0.3-0.2-0.6-0.2-0.9v-12
			c0-0.3,0.1-0.6,0.2-0.9c0.2-0.3,0.4-0.5,0.6-0.8c0.3-0.2,0.6-0.4,0.9-0.5s0.7-0.2,1.1-0.2h11.8c0.4,0,0.8,0.1,1.1,0.2
			c0.4,0.1,0.7,0.3,0.9,0.5c0.3,0.2,0.5,0.5,0.6,0.8c0.2,0.3,0.2,0.6,0.2,0.9V114z M179.6,102v12h11.8v-12H179.6z"/>
		<path class="st1" d="M210.4,116.4l-7.7-12.3v12.3h-3V99.6h3.2l7.9,12.7l7.9-12.7h3.2v16.8H219v-12.3l-7.7,12.3H210.4z"/>
		<path class="st1" d="M238,116.4l-7.7-12.3v12.3h-3V99.6h3.2l7.9,12.7l7.9-12.7h3.2v16.8h-2.9v-12.3l-7.7,12.3H238z"/>
		<path class="st1" d="M254.9,99.6h3V114h11.8V99.6h3V114c0,0.3-0.1,0.6-0.2,0.9s-0.4,0.5-0.6,0.8c-0.3,0.2-0.6,0.4-0.9,0.5
			s-0.7,0.2-1.1,0.2h-11.8c-0.4,0-0.8-0.1-1.1-0.2s-0.7-0.3-0.9-0.5c-0.3-0.2-0.5-0.5-0.6-0.8c-0.2-0.3-0.2-0.6-0.2-0.9V99.6z"/>
		<path class="st1" d="M281,116.4h-3V99.6h3l12.5,13v-13h3v16.8h-3l-12.5-13V116.4z"/>
		<path class="st1" d="M304.7,99.6v16.8h-3V99.6H304.7z"/>
		<path class="st1" d="M310,102c0-0.3,0.1-0.6,0.2-0.9s0.4-0.5,0.6-0.8s0.6-0.4,0.9-0.5s0.7-0.2,1.1-0.2h11.2c0.4,0,0.8,0.1,1.1,0.2
			s0.7,0.3,0.9,0.5c0.3,0.2,0.5,0.5,0.6,0.8s0.2,0.6,0.2,0.9v2.2h-3V102H313v12h11.2v-2.2h3v2.2c0,0.3-0.1,0.6-0.2,0.9
			s-0.4,0.5-0.6,0.8c-0.3,0.2-0.6,0.4-0.9,0.5s-0.7,0.2-1.1,0.2H313c-0.4,0-0.8-0.1-1.1-0.2s-0.7-0.3-0.9-0.5s-0.5-0.5-0.6-0.8
			s-0.2-0.6-0.2-0.9V102z"/>
		<path class="st1" d="M341.1,99.6l8,16.8h-3l-1.8-3.9h-9.4l-1.8,3.9h-3l8-16.8H341.1z M336.1,110.1h7.1l-3.5-7.4L336.1,110.1z"/>
		<path class="st1" d="M348.5,99.6h16.6v2.4h-6.8v14.4h-3V102h-6.8V99.6z"/>
		<path class="st1" d="M371.6,99.6v16.8h-3V99.6H371.6z"/>
		<path class="st1" d="M394.7,114c0,0.3-0.1,0.6-0.2,0.9s-0.4,0.5-0.6,0.8c-0.3,0.2-0.6,0.4-0.9,0.5s-0.7,0.2-1.1,0.2h-11.8
			c-0.4,0-0.8-0.1-1.1-0.2s-0.7-0.3-0.9-0.5s-0.5-0.5-0.6-0.8s-0.2-0.6-0.2-0.9v-12c0-0.3,0.1-0.6,0.2-0.9s0.4-0.5,0.6-0.8
			s0.6-0.4,0.9-0.5s0.7-0.2,1.1-0.2h11.8c0.4,0,0.8,0.1,1.1,0.2s0.7,0.3,0.9,0.5c0.3,0.2,0.5,0.5,0.6,0.8s0.2,0.6,0.2,0.9V114z
			 M379.9,102v12h11.8v-12H379.9z"/>
		<path class="st1" d="M403,116.4h-3V99.6h3l12.5,13v-13h3v16.8h-3l-12.5-13V116.4z"/>
		<path class="st1" d="M426.7,109.2c-0.4,0-0.8-0.1-1.1-0.2s-0.7-0.3-0.9-0.5s-0.5-0.5-0.6-0.8s-0.2-0.6-0.2-0.9V102
			c0-0.3,0.1-0.6,0.2-0.9s0.4-0.5,0.6-0.8s0.6-0.4,0.9-0.5s0.7-0.2,1.1-0.2h10.1c0.4,0,0.8,0.1,1.1,0.2s0.7,0.3,0.9,0.5
			c0.3,0.2,0.5,0.5,0.6,0.8s0.2,0.6,0.2,0.9v2.2h-3V102h-10.1v4.8h10.1c0.4,0,0.8,0.1,1.1,0.2s0.7,0.3,0.9,0.5
			c0.3,0.2,0.5,0.5,0.6,0.8s0.2,0.6,0.2,0.9v4.8c0,0.3-0.1,0.6-0.2,0.9s-0.4,0.5-0.6,0.8c-0.3,0.2-0.6,0.4-0.9,0.5s-0.7,0.2-1.1,0.2
			h-10.4c-0.4,0-0.8-0.1-1.1-0.2s-0.7-0.3-0.9-0.5s-0.5-0.5-0.6-0.8s-0.2-0.6-0.2-0.9v-2.2h3v2.2h10.4v-4.8H426.7z"/>
	</g>
	<g>
		<path class="st1" d="M443.1,115.2h4.8v-3.7h0.8v4.8h-5.6V115.2z"/>
		<path class="st1" d="M443.1,112.1v-5.8h0.8v2.4h4.8v1h-4.8v2.4H443.1z"/>
		<path class="st1" d="M448.7,105h-5.6v-3.7c0-0.4,0-0.7,0.1-1.1c0.1-0.3,0.2-0.6,0.4-0.8s0.4-0.4,0.6-0.5c0.2-0.1,0.5-0.2,0.8-0.2
			h1.7c0.3,0,0.6,0.1,0.8,0.2c0.2,0.1,0.4,0.3,0.6,0.5s0.3,0.5,0.4,0.8c0.1,0.3,0.1,0.7,0.1,1.1V105z M447.9,101.3
			c0-0.5-0.1-0.9-0.3-1.1s-0.5-0.4-0.9-0.4h-1.7c-0.2,0-0.3,0-0.5,0.1s-0.3,0.2-0.4,0.3s-0.2,0.3-0.2,0.5s-0.1,0.4-0.1,0.6v2.7h4
			V101.3z"/>
	</g>
</g>
<g id="Central_Comms_Logo">
	<g>
		<path id="Blue_C" class="st1" d="M105,112c-14.9,0-27-12.1-27-27s12.1-27,27-27h32.7c-7.8-9.7-19.8-16-33.2-16
			C81,42,62,61,62,84.5S81,127,104.5,127c13,0,24.6-5.8,32.4-15H105z"/>
		<path id="Grey_C" class="st2" d="M128.9,88h-7.5H118h-14h-1v-0.1c-2.2-0.3-4-2.1-4-4.4s1.8-4.2,4-4.4V79h1h14h3.4h7.2h16.1
			c-0.7-5-2.3-9.7-4.5-14h-19.3H104v0c-0.2,0-0.3,0-0.5,0C93.3,65,85,73.3,85,83.5c0,10.2,8.3,18.5,18.5,18.5c0.2,0,0.3,0,0.5,0v0
			h18.7h18.9c1.9-4.3,3.1-9.1,3.5-14H128.9z"/>
	</g>
</g>
<g id="Central_Comms_Text">
	<g id="layer1" transform="translate(-123.16 -269.73)">
		<g id="g4585" transform="matrix(-1 0 0 1 665.4 -160.86)">
			<path class="st3" d="M473.2,478.6c0.5,0.6,3.6-2,5-1c0.4,0.3,0.6,0.8,0,6c-0.4,3.2-0.6,4.7-1,6c-0.6,1.8-1,2-2,5
				c-0.6,1.7-0.9,2.6-1,3c-0.5,1.9-0.4,2.7-1,3c-0.5,0.3-1-0.2-3-1c-1.6-0.7-2.5-1-3-1c-2,0.1-2.7,2.3-4,2c-1.1-0.2-1.7-2.1-2-3
				c-0.6-2-0.1-3-1-4c-0.6-0.7-1.1-0.3-2-1c-2.1-1.5-1.3-4.3-3-5c-1.1-0.5-1.8,0.6-3,0c-1.1-0.5-0.9-1.5-2-2c-1.3-0.5-2.2,0.6-3,0
				c-0.7-0.5-0.2-1.5-1-3c-0.4-0.7-0.9-1.1-2-2c-1.4-1.1-2-1.7-3-2c-0.3-0.1-2.1-0.7-4,0c-1.2,0.5-1.3,1-2,1c-1.5-0.1-1.9-3-3-3
				c-1,0-0.9,2.7-3,4c-1,0.6-1.3,0.2-3,1c-1.3,0.6-1.3,1-3,2c-1.9,1.2-2.1,0.8-4,2c-1.8,1.1-1.7,1.5-3,2c-1.5,0.6-1.9,0.3-3,1
				c-1.1,0.7-0.9,1.2-2,2c-0.5,0.4-1.7,1.2-3,1c-1.1-0.2-1.1-1-3-2c-1.3-0.7-1.6-0.5-2-1c-0.9-1.3,0.7-3.3,0-4c-0.7-0.6-2.2,0.7-3,0
				c-0.6-0.6-0.3-2,0-3c0.5-1.8,1.3-2.7,1-3c-0.4-0.4-2.4,1.6-4,1c-0.1,0-0.8-0.3-1-1c-0.3-1.1,1.2-2.3,2-3c1.5-1.3,1.9-0.9,3-2
				c1.1-1.1,0.7-1.5,2-3c1.1-1.2,1.4-1.1,2-2c0.8-1.4,0.2-2.1,1-3c0.4-0.5,0.9-0.5,3-1c0.3-0.1,1.6-0.4,4-1c3.5-0.9,3.2-1,4-1
				c2.2-0.1,3.2,0.7,4,0c0.7-0.6,0.3-1.6,1-2c0.7-0.4,1.4,0.5,3,1c1.9,0.5,3.5,0.1,4,0c2.1-0.5,1.8-1.5,4-2c1.1-0.3,2-0.2,3-1
				c0.3-0.2,0.7-0.5,1-1c0.9-1.3,0.3-2.4,1-3c0.5-0.4,1.5-0.4,2,0c1.2,1.1-0.8,4.4,0,5c0.9,0.6,3.7-2.7,5-2c0.9,0.5,0,2.3,1,3
				c0.8,0.6,1.9-0.4,5-1c1.6-0.3,2.5-0.4,3,0c1.1,1,0,3.4,1,4c0.6,0.3,1.3-0.4,2,0c0.7,0.4,0.3,1.4,1,2c0.9,0.8,2.4-0.7,4,0
				c0.8,0.3,0.5,0.7,2,2c1.2,1.1,1.9,1.8,3,2c1.5,0.3,2-0.5,3,0c1.1,0.5,0.9,1.6,2,2c0.7,0.2,1-0.2,2,0c0.2,0,1.6,0.3,2,1
				C477.1,474.2,472.7,477.9,473.2,478.6z"/>
			<path id="path3698" class="st4" d="M412.9,461.2c1.3-3,20.3-24.9,35.2-26.9c14.9-2.1,25.4,9.6,27.5,11.4s10.1,22.8,10.1,22.8
				l7,23.6l4.7,10.6l4.4,7l3.6,4.1l6,2.6c0,0-0.7-1.3-1.6,0.3c-0.9,1.6,4.3,4.9-3.9,6.3c-8.2,1.4-15.7-1.6-25.4-7.1
				c-9.7-5.4-10-11.2-11.7-15c-1.7-3.8,4.9-0.3,4.9-0.3l0.5-3.9l2.3-5.2l2.6-11.1l-2.6-2.8l-1.6-1.3l1.3-3.9l-18.4-7.8l-4.1-5.7
				l-6,2.3l-2.1-4.1l-4.4,1.8l-1.8-4.1l-1.8-0.3l-1.6,4.7l-11.1,2.8l-2.1-2.6l-2.3,3.1C422.3,460.6,411.6,464.2,412.9,461.2
				L412.9,461.2z"/>
			<path id="path2801" d="M516.7,540c-0.4-0.3-0.8-0.9-0.8-1.2c0-1.2-0.8-1.4-3-0.9c-2.5,0.6-3,0.4-3.4-1.8
				c-0.3-1.5-0.3-1.5-1.8-1.6c-1.3-0.1-1.6-0.3-1.9-1c-0.5-1.2-0.4-2.9,0-3.2c0.2-0.1,0.4-0.6,0.4-1.1c0-0.6,0.4-1.1,1.5-1.8
				c1.7-1,1.8-1.6,0.6-2.6c-0.6-0.6-1.5-0.8-3.5-1c-5.1-0.4-7.8-0.8-8.8-1.2c-0.6-0.2-1.8-0.4-2.7-0.4c-1.5,0-4-0.6-6.8-1.5
				c-0.6-0.2-1.7-0.5-2.6-0.6c-1.5-0.3-3.6-1.6-3.9-2.4c-0.1-0.3-0.4-0.5-0.7-0.5c-0.3,0-1.1-0.7-1.8-1.5c-0.7-0.8-1.6-1.5-1.9-1.5
				c-0.7,0-3.4-2.7-3.4-3.4c0-0.3-0.3-0.8-0.7-1.1c-0.4-0.4-0.7-0.8-0.7-1c0-0.2-0.3-0.5-0.6-0.8c-0.3-0.2-0.7-1.3-0.9-2.4
				c-0.2-1.1-0.6-2.5-0.9-3.1c-0.3-0.6-0.6-1.3-0.6-1.5c0-0.8-0.7-0.9-1.7-0.2c-1.3,0.9-3.6,1.6-4.3,1.4c-0.3-0.1-0.5-0.7-0.5-1.2
				c0-0.6-0.3-1.3-0.7-1.7c-0.5-0.4-0.7-1.2-0.8-2.5c-0.1-1.7-0.2-1.9-1-2c-1.2-0.2-2.2-1.1-2.2-1.9c0-0.4-0.3-1-0.8-1.3
				c-0.4-0.3-0.9-1-1.1-1.5c-0.3-0.7-0.5-0.8-1.2-0.6c-1.6,0.4-3.2-0.2-3.7-1.4c-0.4-1-0.6-1.1-1.8-1c-1.5,0.1-2.4-0.4-2.4-1.4
				c0-0.3-0.3-1-0.7-1.5c-0.4-0.5-0.7-1.3-0.8-1.8c-0.1-1-1.6-1.5-4.2-1.5c-0.9,0-1.7-0.2-1.9-0.5c-0.6-0.7-1.3-0.7-2.3,0
				c-1.2,0.8-3.2,0.6-3.6-0.5c-0.4-0.9-0.9-1.1-0.9-0.3c0,0.6-2.7,3.1-3.4,3.1c-0.3,0-1.1,0.5-1.9,1.1c-1,0.8-1.8,1.1-2.7,1.1
				c-1,0-1.4,0.2-1.6,0.7c-0.1,0.4-1.2,1.2-2.5,1.8c-1.2,0.6-2.6,1.5-3.1,2c-0.7,0.8-1,0.9-2.1,0.8c-1-0.2-1.3-0.1-1.6,0.5
				c-1,1.9-4.5,2.8-5.8,1.6c-0.4-0.3-1.2-0.7-1.8-0.8c-1.8-0.4-2.6-1.9-2-3.9c0.5-1.9,0.1-2.5-1.4-1.9c-2.2,0.8-3.3-0.8-2.2-3.1
				c1-2.1,0.8-2.4-1-2.2c-1.4,0.2-1.7,0.1-2.4-0.6c-0.9-1-0.9-1.1,0.2-2.8c0.9-1.5,2.4-2.8,3.5-3.1c1.1-0.3,0.7-1.4-0.6-1.6
				c-0.6-0.1-1.3-0.3-1.5-0.5c-0.6-0.4-0.5-1.5,0.1-2c0.8-0.6,3.2-0.9,4.5-0.4c1,0.4,1.2,0.3,1.9-0.8c0.4-0.6,1-1.3,1.3-1.5
				c0.3-0.2,0.8-0.9,1.1-1.6c0.5-1,0.9-1.3,2-1.5c0.9-0.1,1.6-0.5,2-1.1c0.3-0.5,1-1.4,1.4-2c0.4-0.6,1.9-2.1,3.3-3.4
				c1.4-1.3,2.7-2.7,2.8-3.1c0.2-0.7,3.5-3.9,8.9-8.8c1.1-1,2.3-1.8,2.6-1.8s0.8-0.3,1-0.7c0.2-0.4,1-1.1,1.7-1.5
				c0.8-0.5,2-1.3,2.7-1.9c0.7-0.6,1.9-1.2,2.5-1.4c0.7-0.2,1.6-0.8,2.1-1.2c0.5-0.4,2.1-1.3,3.6-2c1.5-0.7,3.3-1.5,3.9-1.8
				c1-0.5,1.5-0.5,3.5-0.1c1.3,0.2,2.8,0.4,3.5,0.4c1.1,0,5,1.3,7,2.4c0.5,0.3,1.2,0.5,1.5,0.5c0.3,0,2.5,1.1,5,2.3
				c4.1,2.1,4.8,2.6,7.1,5.2c3,3.3,5.7,7.2,6.7,9.5c0.2,0.5,0.6,1.4,1,1.9c0.3,0.6,0.8,1.9,1.1,2.9c0.5,2,1.2,4,1.7,5
				c0.2,0.3,0.3,0.9,0.3,1.3c0,0.4,0.1,0.8,0.3,0.9c0.2,0.1,0.4,0.9,0.6,1.7c0.1,0.8,0.5,2,0.8,2.5c0.7,1.4,2.3,6.4,2.6,8.1
				c0.2,1.5,1.9,6,2.8,7.8c0.3,0.5,0.7,2.1,0.9,3.4c0.3,1.5,1.1,3.9,2,5.8c0.9,1.8,1.6,3.5,1.6,3.8c0,0.3,0.2,0.7,0.5,1
				c0.3,0.3,0.7,1.1,1,1.8c0.3,0.7,0.9,1.7,1.3,2.3c0.5,0.6,0.8,1.2,0.8,1.4c0,0.2,0.4,0.9,0.9,1.5c0.5,0.6,0.9,1.3,0.9,1.5
				c0,0.2,0.8,1.2,1.8,2.2c1,1,2.1,2.2,2.3,2.7c0.3,0.6,1,1.1,2.1,1.4c1.5,0.4,1.7,0.4,2.6-0.3c0.5-0.4,1.2-0.8,1.5-0.8
				s0.6-0.4,0.7-1c0.6-2.8,1-3.8,2.5-5.3c1.6-1.7,1.6-1.7,2.8-1.2c1,0.4,1.4,0.9,1.9,2.3c0.4,1,0.8,1.9,0.8,1.9
				c0.1,0.1,0.7-0.1,1.4-0.5c0.7-0.3,1.6-0.6,2-0.6c1.1,0,2.8,1.7,3.2,3.2c0.3,1.1,0.6,1.5,2,2.2c1,0.5,1.9,1.2,2.2,1.9
				c0.3,0.6,1,1.2,1.6,1.5c1.8,0.7,2.7,2,2.9,4c0.1,1.4,0,2-0.5,2.6c-0.6,0.7-0.6,0.8,0,1.8c0.7,1.2,0.8,2.6,0.3,3.6
				c-0.2,0.4-1.3,1-2.4,1.5c-2.9,1.1-3,1.3-3,3.3c0,2.3-1.1,4.6-2.4,4.9c-0.5,0.1-2,0.1-3.3,0c-1.8-0.1-2.6,0-3.7,0.5
				C519.5,540.7,517.8,540.8,516.7,540L516.7,540z M521.2,537.8c0.9-1.2,0.9-1.4,0.6-2.3c-0.5-1.2-0.3-1.8,0.7-1.8
				c0.8,0,1.4,1,1.4,2.5c0,1.7,2.2,2.5,3.8,1.3c0.6-0.4,0.7-1,0.7-3.6c0-3.5,0.2-3.8,2.4-3.8c3.5,0.1,5-3,1.8-3.7
				c-1.3-0.3-2-1.5-0.9-1.5c0.3,0,1.1-0.2,1.7-0.6c0.9-0.5,1.1-0.8,1.1-1.8c0-1.5-0.9-3.1-1.8-3.1c-0.3,0-1.1,0.3-1.7,0.7
				c-2.3,1.5-3.6,0.4-1.7-1.6c1-1,1.1-1.3,0.6-1.8c-0.4-0.6-0.8-0.6-3.4-0.4c-3.6,0.3-4-0.2-2.1-2.2c1-1.1,1.2-1.5,0.9-2.2
				c-0.7-1.9-2.9-1.2-4,1.4c-1.3,3.1-2.5,2.6-2.5-0.9c0-4.5-1.3-5.4-3.3-2.5c-1.2,1.8-1.3,2.5-0.5,7.3c0.4,2.7-0.7,2.9-2.5,0.4
				c-0.5-0.8-1.2-1.4-1.4-1.4c-0.7,0-0.4,1,0.6,2.1c1.1,1.3,1,2.3-0.1,2.5c-0.9,0.1-2.2,1.8-1.7,2.2c0.2,0.2,0.9,0.4,1.6,0.4
				c2,0.2,1.8,1.1-0.4,2.6c-3.1,2-5,5.7-3,6c0.5,0.1,1.3-0.4,2.2-1.4c2.1-2.1,3.7-1.8,2.2,0.5c-0.8,1.3-1.1,4.3-0.4,4.9
				c0.9,0.7,1.7,0.1,2.4-2c1-2.7,1.2-3.1,2.1-3.2c0.7-0.1,0.7,0,0.6,3.3c-0.2,3.4-0.2,3.4,0.8,4.2
				C519.3,539.4,520,539.3,521.2,537.8L521.2,537.8z M508.9,521.3c1.1-1,1.3-1.3,1.1-2.2c-0.3-1.4-1.6-3.2-2.3-3.2
				c-0.7,0-6.3-5.3-7.7-7.3c-0.5-0.7-1.1-1.6-1.5-1.9c-0.3-0.4-0.9-1.3-1.2-2.2c-0.3-0.8-1.6-3.6-2.8-6.2c-2.6-5.7-2.8-6-4.4-10.3
				c-0.7-1.9-1.6-4-1.8-4.6s-0.5-1.5-0.5-2c0-0.8-0.4-2.3-1.3-4.6c-0.3-0.7-0.6-2.1-0.8-3.1c-1-5-2.1-9.3-3-11.6
				c-0.4-1-0.7-2.1-0.7-2.5c0-0.4-0.6-1.8-1.3-3.2c-0.7-1.4-1.3-2.7-1.3-3c0-0.3-0.2-0.7-0.5-0.9c-0.3-0.2-1-1.4-1.6-2.7
				c-0.8-1.7-2-3.2-4.7-5.8c-2-1.9-3.8-3.5-4-3.5c-0.6,0-5.9-2.5-6.6-3.1c-0.6-0.5-4.4-1.7-8.2-2.5c-3.6-0.8-8.4,0-11,1.7
				c-0.7,0.5-2.4,1.5-3.7,2.2c-4.9,2.8-10.6,6.7-12.5,8.7c-0.8,0.8-3.8,3.7-6.7,6.4c-2.8,2.7-5.4,5.3-5.8,5.8
				c-0.5,0.8-0.5,0.9,0.3,1.5c1,0.7,5.1,0.9,5.1,0.3c0-0.5,2.4-2.8,2.9-2.8c0.2,0,0.8,0.5,1.4,1.1c1.3,1.4,2.9,1.4,5.5,0.2
				c1.1-0.5,2.8-1.2,4-1.5c1.1-0.3,2.1-0.8,2.1-1c0-0.8,1.9-3.1,2.9-3.5c0.9-0.4,1.2-0.4,1.8,0.2c0.4,0.4,1,1.3,1.3,2.1
				c0.3,0.8,0.7,1.3,0.8,1.3c0.1-0.1,0.8-0.4,1.6-0.8c1.2-0.6,1.5-0.6,2.3-0.2c0.5,0.3,1,0.9,1.1,1.3c0.1,0.4,0.5,1.1,0.8,1.4
				c0.6,0.5,0.8,0.5,2.4-0.3c3.7-1.8,4.3-1.6,5.1,1.5c0.4,1.6,0.5,1.7,1.8,1.9c1.3,0.2,2,0.8,2,1.6c0,0.5,0.9,0.9,2.3,0.9
				c0.8,0,1.8,0.5,3.1,1.4c3.2,2.3,3.4,2.4,4.5,1.5c0.5-0.4,1.3-0.8,1.8-0.8c1,0,2.2,1.3,2.1,2.2c-0.1,0.5,0.3,0.8,1.1,1.1
				c2.4,0.8,2.7,1.7,1.9,5.2c-0.2,0.8-0.1,1,0.3,1c2.1,0,3.4,2,2.9,4.3c-0.3,1.6-0.3,2.3,0.4,3c0.5,0.6,0.7,2.4,0.2,3.1
				c-0.1,0.2-0.7,0.7-1.3,1c-0.8,0.5-1,0.9-1,2.2c0,0.8-0.3,1.8-0.5,2.2c-0.3,0.4-0.5,1.1-0.5,1.7c0,0.6-0.5,1.6-1.3,2.5
				c-0.7,0.8-1.3,1.9-1.3,2.4c0,2.3-1.9,3.9-3.6,3c-1-0.5-1,0.1,0,2.6c0.8,2,3.2,5.1,6.1,7.8c2.7,2.5,3.1,2.7,8.1,4.4
				c1.1,0.4,2.3,0.9,2.7,1.1c2.3,1.3,6.4,2.7,8.5,3c1.3,0.1,2.8,0.4,3.4,0.7c0.6,0.2,2.3,0.4,3.8,0.4c1.5,0,3,0.2,3.3,0.4
				C507.3,522.6,507.4,522.6,508.9,521.3L508.9,521.3z M466.1,497.8c0.1-0.4,0.6-0.7,1.1-0.7c0.7,0,0.9,0.2,0.9,0.8
				c0,1.3,0.4,1.4,1.3,0.3l0.8-1l0.7,1.2c1.2,2,2.5,1.2,2.1-1.3c-0.2-1.4-0.2-1.5,0.7-1.8c1.5-0.6,1.6-1.4,0.1-2.8
				c-0.7-0.7-1.3-1.4-1.3-1.5c0-0.7,0.9-1,2.2-0.9c1.8,0.2,2.2-0.6,1.1-2.2c-0.9-1.3-0.8-2.5,0.3-3c0.5-0.3,0.7-0.5,0.5-0.7
				c-0.6-0.4-0.4-1.4,0.5-2.7c1.8-2.4,0.9-3.4-2.1-2.4c-2.7,0.9-3.1,0.8-3.3-0.6c-0.2-1,0-1.4,1.7-3.1c1.8-1.8,1.9-2,1.3-2.5
				c-0.5-0.5-0.8-0.5-1.9-0.2c-1.1,0.3-1.4,0.3-2-0.3c-0.4-0.4-0.7-1-0.7-1.3c0-0.6-0.4-0.6-1.9,0c-0.4,0.2-0.8,0-1.3-0.5
				c-2-2.4-3.5-3.5-5.3-3.9c-1.4-0.4-2.1-0.4-2.9-0.1c-1.4,0.6-2.2-0.1-2-1.6c0.2-1.2-0.4-1.4-1.7-0.5c-1.1,0.7-2.1,0.3-1.9-0.7
				c0.5-2.3,0.7-4.2,0.3-4.2c-0.8,0-2.4,1-3.4,2.1c-1.2,1.3-1.8,1.4-2.3,0.5c-0.2-0.4-0.8-0.6-1.4-0.6c-1,0-1-0.1-0.9-1.5
				c0.1-2-0.6-2-2.5-0.1c-1.9,2-2.7,2-2.4,0c0.3-1.7-0.9-4.9-1.7-4.6c-0.7,0.2-1.4,1.8-1.4,3.2c0,1.8-0.5,2.2-3.4,2.2
				c-2.2,0-2.8,0.2-4.8,1.3c-3.1,1.7-4.6,1.7-5.5-0.1c-0.7-1.3-1.3-0.8-1.2,1.1c0.2,2.5-0.2,3.2-1.5,3.2c-0.8,0-1.4-0.3-2.1-1.1
				c-1.2-1.2-1.5-1.1-1.5,0.6c0,1.7-0.9,1.9-2.3,0.5c-0.6-0.6-1.4-1.1-1.6-1.1c-0.2,0-0.5,0.7-0.7,1.4c-0.4,2.4-1,2.6-2.8,0.6
				c-1.7-1.9-2.2-2-2.8-1c-0.3,0.5-0.2,1,0.2,1.8c0.7,1.4,0.7,1.8-0.2,1.8c-0.7,0-0.7,0.2-0.5,1.1c0.2,0.9,0.1,1.1-0.5,1.3
				c-0.4,0.1-0.8,0.4-0.8,0.7c0,0.3-1,0.8-2.3,1.2c-2.6,0.9-5.8,2.8-5.6,3.4c0.2,0.7,2,0.7,3.6,0.1c3-1.2,3.2-0.5,1.1,2.8
				c-2.2,3.4-2,3.9,1.1,2.2c1.4-0.8,1.9-0.9,2.2-0.5c0.4,0.4,0.3,1-0.5,3.2c-1.2,3.4-0.9,4.1,1,2.3c1.7-1.7,2.4-1.3,2.4,1.2
				c0,1.1,0.1,2,0.3,2c1.6,0,2.7-1.9,2.4-4.2c-0.2-1.5-0.2-1.6,0.5-1.6c0.5,0,1,0.4,1.4,1.3c1.1,2.3,2.9,1.3,2.5-1.4
				c-0.2-1.3-0.1-1.6,0.4-1.8c0.7-0.3,1.2,0,1.9,0.9c1,1.4,3,0.3,3-1.7c0-0.7,0.3-1.5,0.6-1.8c0.6-0.6,0.7-0.6,1.6,0.5
				c0.5,0.6,1.1,1.1,1.3,1.1c0.6,0,0.8-0.9,0.4-1.5c-0.5-0.7-0.4-1.3,0.2-1.9c0.8-0.8,1.4-0.7,1.9,0.3c1.1,2.5,4-0.8,4.5-5.3
				c0.1-0.6,0.3-0.9,0.8-0.9c0.7,0,1.2,1.2,1.8,4.2c0.4,1.7,0.8,2.1,1.7,1.3c0.4-0.4,1.1-1.4,1.5-2.3c1-2.1,1.9-2,2,0.4
				c0.1,0.9,0.3,1.7,0.5,1.7c0.2,0,0.7-0.6,1.1-1.3c1-1.8,1.9-1.5,2,0.5c0.1,1.9,0.9,2.3,2,1.2c1.2-1.1,1.7-1,1.7,0.6
				c0,2.4,0.2,2.7,1.7,1.9c0.7-0.4,1.4-0.7,1.6-0.7c0.6,0,0.3,1.3-0.6,2.5c-0.5,0.7-0.8,1.4-0.6,1.5c0.4,0.4,2.2-0.4,4-1.7
				c2.3-1.7,3.2-0.8,1.7,1.6l-0.9,1.5l2.3-0.2c2.1-0.2,2.3-0.1,2.6,0.6c0.1,0.5,0,1.1-0.4,1.7c-0.7,1.1-0.5,1.5,0.7,0.9
				c1.5-0.8,2.1,0.4,1.1,2.6c-0.2,0.5-0.1,0.6,0.6,0.6c1.2,0,1.9,1.9,1.5,4.2c-0.3,1.8,0.2,2.1,1.1,0.7c0.7-1.1,1.4-1.2,1.9-0.3
				c0.2,0.4,0.2,0.9-0.2,1.5c-0.3,0.5-0.5,1-0.5,1.2C464.1,499.9,465.9,498.5,466.1,497.8z"/>
		</g>
	</g>
</g>
</svg>
