<?xml version="1.0" encoding="utf-8"?>
<svg version="1.1" xmlns="http://www.w3.org/2000/svg" xmlns:xlink="http://www.w3.org/1999/xlink" x="0px" y="0px"
	 viewBox="0 0 394 87" style="enable-background:new 0 0 394 87;" xml:space="preserve">
<style type="text/css">
	.st0{fill:#27448F;}
	.st1{fill:#B7B7B7;}
</style>
<title>Central Communications Ltd</title>
<g id="Central_Comms_text_PATHS">
	<g>
		<path class="st0" d="M93.3,19.8c0-0.7,0.2-1.3,0.5-1.9s0.8-1.1,1.3-1.5c0.6-0.4,1.2-0.8,2-1s1.6-0.4,2.4-0.4h23.7
			c0.9,0,1.7,0.1,2.4,0.4s1.4,0.6,2,1c0.6,0.4,1,0.9,1.3,1.5s0.5,1.2,0.5,1.9v4.3h-6.2v-4.3H99.6v24h23.7v-4.3h6.2v4.3
			c0,0.7-0.2,1.3-0.5,1.9s-0.8,1.1-1.3,1.5c-0.6,0.4-1.2,0.8-2,1s-1.6,0.4-2.4,0.4H99.6c-0.9,0-1.7-0.1-2.4-0.4s-1.4-0.6-2-1
			c-0.6-0.4-1-0.9-1.3-1.5s-0.5-1.2-0.5-1.9V19.8z"/>
		<path class="st0" d="M139.5,15h31.8v4.8h-25.6v9.6h21.8v4.8h-21.8v9.6h25.6v4.8h-31.8V15z"/>
		<path class="st0" d="M186.9,48.6h-6.2V15h6.2L213.1,41V15h6.2v33.6h-6.2l-26.2-26.1V48.6z"/>
		<path class="st0" d="M226.8,15h34.9v4.8h-14.3v28.8h-6.2V19.8h-14.3V15z"/>
		<path class="st0" d="M303.8,27c0,4.7-2.6,7.4-7.8,8l8.2,13.6h-6.9l-8.1-13.4h-13.7v13.4h-6.2V15h23.9c7.1,0,10.6,2.7,10.6,8.2V27z
			 M275.5,30.3h17.3c1.7,0,2.9-0.3,3.6-0.8c0.7-0.6,1.1-1.5,1.1-2.8v-3.4c0-1.3-0.4-2.2-1.1-2.8c-0.7-0.6-1.9-0.8-3.6-0.8h-17.3
			V30.3z"/>
		<path class="st0" d="M333.5,15l16.8,33.6h-6.2l-3.9-7.7h-19.7l-3.9,7.7h-6.2L327.3,15H333.5z M322.9,36h14.9l-7.4-14.8L322.9,36z"
			/>
		<path class="st0" d="M364.1,15v28.8h22.4v4.8h-28.7V15H364.1z"/>
	</g>
	<g>
		<path class="st0" d="M93.7,61c0-0.3,0.1-0.6,0.2-0.9c0.2-0.3,0.4-0.5,0.6-0.8c0.3-0.2,0.6-0.4,0.9-0.5s0.7-0.2,1.1-0.2h11.2
			c0.4,0,0.8,0.1,1.1,0.2c0.4,0.1,0.7,0.3,0.9,0.5c0.3,0.2,0.5,0.5,0.6,0.8c0.2,0.3,0.2,0.6,0.2,0.9v2.2h-3V61H96.7v12h11.2v-2.2h3
			V73c0,0.3-0.1,0.6-0.2,0.9c-0.2,0.3-0.4,0.5-0.6,0.8c-0.3,0.2-0.6,0.4-0.9,0.5c-0.4,0.1-0.7,0.2-1.1,0.2H96.7
			c-0.4,0-0.8-0.1-1.1-0.2s-0.7-0.3-0.9-0.5c-0.3-0.2-0.5-0.5-0.6-0.8c-0.2-0.3-0.2-0.6-0.2-0.9V61z"/>
		<path class="st0" d="M133.4,73c0,0.3-0.1,0.6-0.2,0.9c-0.2,0.3-0.4,0.5-0.6,0.8c-0.3,0.2-0.6,0.4-0.9,0.5
			c-0.4,0.1-0.7,0.2-1.1,0.2h-11.8c-0.4,0-0.8-0.1-1.1-0.2s-0.7-0.3-0.9-0.5c-0.3-0.2-0.5-0.5-0.6-0.8c-0.2-0.3-0.2-0.6-0.2-0.9V61
			c0-0.3,0.1-0.6,0.2-0.9c0.2-0.3,0.4-0.5,0.6-0.8c0.3-0.2,0.6-0.4,0.9-0.5s0.7-0.2,1.1-0.2h11.8c0.4,0,0.8,0.1,1.1,0.2
			c0.4,0.1,0.7,0.3,0.9,0.5c0.3,0.2,0.5,0.5,0.6,0.8c0.2,0.3,0.2,0.6,0.2,0.9V73z M118.6,61v12h11.8V61H118.6z"/>
		<path class="st0" d="M149.4,75.4l-7.7-12.3v12.3h-3V58.6h3.2l7.9,12.7l7.9-12.7h3.2v16.8H158V63.1l-7.7,12.3H149.4z"/>
		<path class="st0" d="M177,75.4l-7.7-12.3v12.3h-3V58.6h3.2l7.9,12.7l7.9-12.7h3.2v16.8h-2.9V63.1l-7.7,12.3H177z"/>
		<path class="st0" d="M193.9,58.6h3V73h11.8V58.6h3V73c0,0.3-0.1,0.6-0.2,0.9s-0.4,0.5-0.6,0.8c-0.3,0.2-0.6,0.4-0.9,0.5
			s-0.7,0.2-1.1,0.2h-11.8c-0.4,0-0.8-0.1-1.1-0.2s-0.7-0.3-0.9-0.5c-0.3-0.2-0.5-0.5-0.6-0.8c-0.2-0.3-0.2-0.6-0.2-0.9V58.6z"/>
		<path class="st0" d="M220,75.4h-3V58.6h3l12.5,13v-13h3v16.8h-3l-12.5-13V75.4z"/>
		<path class="st0" d="M243.7,58.6v16.8h-3V58.6H243.7z"/>
		<path class="st0" d="M249,61c0-0.3,0.1-0.6,0.2-0.9s0.4-0.5,0.6-0.8s0.6-0.4,0.9-0.5s0.7-0.2,1.1-0.2h11.2c0.4,0,0.8,0.1,1.1,0.2
			s0.7,0.3,0.9,0.5c0.3,0.2,0.5,0.5,0.6,0.8s0.2,0.6,0.2,0.9v2.2h-3V61H252v12h11.2v-2.2h3V73c0,0.3-0.1,0.6-0.2,0.9
			s-0.4,0.5-0.6,0.8c-0.3,0.2-0.6,0.4-0.9,0.5s-0.7,0.2-1.1,0.2H252c-0.4,0-0.8-0.1-1.1-0.2s-0.7-0.3-0.9-0.5s-0.5-0.5-0.6-0.8
			S249,73.3,249,73V61z"/>
		<path class="st0" d="M280.1,58.6l8,16.8h-3l-1.8-3.9h-9.4l-1.8,3.9h-3l8-16.8H280.1z M275.1,69.1h7.1l-3.5-7.4L275.1,69.1z"/>
		<path class="st0" d="M287.5,58.6h16.6V61h-6.8v14.4h-3V61h-6.8V58.6z"/>
		<path class="st0" d="M310.6,58.6v16.8h-3V58.6H310.6z"/>
		<path class="st0" d="M333.7,73c0,0.3-0.1,0.6-0.2,0.9s-0.4,0.5-0.6,0.8c-0.3,0.2-0.6,0.4-0.9,0.5s-0.7,0.2-1.1,0.2h-11.8
			c-0.4,0-0.8-0.1-1.1-0.2s-0.7-0.3-0.9-0.5s-0.5-0.5-0.6-0.8s-0.2-0.6-0.2-0.9V61c0-0.3,0.1-0.6,0.2-0.9s0.4-0.5,0.6-0.8
			s0.6-0.4,0.9-0.5s0.7-0.2,1.1-0.2h11.8c0.4,0,0.8,0.1,1.1,0.2s0.7,0.3,0.9,0.5c0.3,0.2,0.5,0.5,0.6,0.8s0.2,0.6,0.2,0.9V73z
			 M318.9,61v12h11.8V61H318.9z"/>
		<path class="st0" d="M342,75.4h-3V58.6h3l12.5,13v-13h3v16.8h-3l-12.5-13V75.4z"/>
		<path class="st0" d="M365.7,68.2c-0.4,0-0.8-0.1-1.1-0.2s-0.7-0.3-0.9-0.5s-0.5-0.5-0.6-0.8s-0.2-0.6-0.2-0.9V61
			c0-0.3,0.1-0.6,0.2-0.9s0.4-0.5,0.6-0.8s0.6-0.4,0.9-0.5s0.7-0.2,1.1-0.2h10.1c0.4,0,0.8,0.1,1.1,0.2s0.7,0.3,0.9,0.5
			c0.3,0.2,0.5,0.5,0.6,0.8s0.2,0.6,0.2,0.9v2.2h-3V61h-10.1v4.8h10.1c0.4,0,0.8,0.1,1.1,0.2s0.7,0.3,0.9,0.5
			c0.3,0.2,0.5,0.5,0.6,0.8s0.2,0.6,0.2,0.9V73c0,0.3-0.1,0.6-0.2,0.9s-0.4,0.5-0.6,0.8c-0.3,0.2-0.6,0.4-0.9,0.5s-0.7,0.2-1.1,0.2
			h-10.4c-0.4,0-0.8-0.1-1.1-0.2s-0.7-0.3-0.9-0.5s-0.5-0.5-0.6-0.8s-0.2-0.6-0.2-0.9v-2.2h3V73h10.4v-4.8H365.7z"/>
	</g>
	<g>
		<path class="st0" d="M382.1,74.2h4.8v-3.7h0.8v4.8h-5.6V74.2z"/>
		<path class="st0" d="M382.1,71.1v-5.8h0.8v2.4h4.8v1h-4.8v2.4H382.1z"/>
		<path class="st0" d="M387.7,64h-5.6v-3.7c0-0.4,0-0.7,0.1-1.1c0.1-0.3,0.2-0.6,0.4-0.8s0.4-0.4,0.6-0.5c0.2-0.1,0.5-0.2,0.8-0.2
			h1.7c0.3,0,0.6,0.1,0.8,0.2c0.2,0.1,0.4,0.3,0.6,0.5s0.3,0.5,0.4,0.8c0.1,0.3,0.1,0.7,0.1,1.1V64z M386.9,60.3
			c0-0.5-0.1-0.9-0.3-1.1s-0.5-0.4-0.9-0.4h-1.7c-0.2,0-0.3,0-0.5,0.1s-0.3,0.2-0.4,0.3s-0.2,0.3-0.2,0.5s-0.1,0.4-0.1,0.6V63h4
			V60.3z"/>
	</g>
</g>
<g id="Central_Comms_Logo">
	<g>
		<path id="Blue_C" class="st0" d="M44,71c-14.9,0-27-12.1-27-27s12.1-27,27-27h32.7C68.9,7.3,56.9,1,43.5,1C20,1,1,20,1,43.5
			S20,86,43.5,86c13,0,24.6-5.8,32.4-15H44z"/>
		<path id="Grey_C" class="st1" d="M67.9,47h-7.5H57H43h-1v-0.1c-2.2-0.3-4-2.1-4-4.4s1.8-4.2,4-4.4V38h1h14h3.4h7.2h16.1
			c-0.7-5-2.3-9.7-4.5-14H59.9H43v0c-0.2,0-0.3,0-0.5,0C32.3,24,24,32.3,24,42.5C24,52.7,32.3,61,42.5,61c0.2,0,0.3,0,0.5,0v0h18.7
			h18.9c1.9-4.3,3.1-9.1,3.5-14H67.9z"/>
	</g>
</g>
</svg>
