<?xml version="1.0" encoding="utf-8"?>
<!-- Generator: Adobe Illustrator 24.1.0, SVG Export Plug-In . SVG Version: 6.00 Build 0)  -->
<svg version="1.1" xmlns="http://www.w3.org/2000/svg" xmlns:xlink="http://www.w3.org/1999/xlink" x="0px" y="0px"
	 viewBox="0 0 455 132" style="enable-background:new 0 0 455 132;" xml:space="preserve">
<style type="text/css">
	.st0{fill:none;stroke:#E3378B;stroke-width:2.3655;stroke-linecap:round;stroke-linejoin:round;stroke-miterlimit:10;}
	.st1{fill:none;stroke:#E3378B;stroke-width:1.1827;stroke-linecap:round;stroke-linejoin:round;stroke-miterlimit:10;}
	.st2{fill:#F29100;}
	.st3{fill:#FDC600;}
	.st4{fill:#009EE2;}
	.st5{display:none;}
	.st6{fill:#27448F;}
	.st7{fill:#B7B7B7;}
	.st8{display:inline;}
	.st9{fill:#FFFFFF;}
	.st10{fill-rule:evenodd;clip-rule:evenodd;fill:#FF0000;stroke:#000000;}
</style>
<g id="Fireworks">
	<g>
		<g>
			<g>
				<line class="st0" x1="126.5" y1="3.6" x2="127.2" y2="16.2"/>
				<line class="st0" x1="116.8" y1="17.3" x2="118.3" y2="20"/>
				<line class="st0" x1="109.7" y1="4.3" x2="115.3" y2="14.5"/>
				<line class="st0" x1="122.8" y1="19.1" x2="123.2" y2="20.5"/>
				<line class="st0" x1="119.4" y1="7" x2="122" y2="16.2"/>
				<line class="st0" x1="145.5" y1="8.7" x2="139.5" y2="19.7"/>
				<line class="st0" x1="130.7" y1="15.1" x2="130.5" y2="18.2"/>
				<line class="st0" x1="131.6" y1="0.3" x2="130.9" y2="11.9"/>
				<line class="st0" x1="134.9" y1="19.8" x2="134.4" y2="21.2"/>
				<line class="st0" x1="138.4" y1="7.7" x2="135.7" y2="16.9"/>
			</g>
			<g>
				<line class="st0" x1="158.4" y1="29.2" x2="146.6" y2="33.4"/>
				<line class="st0" x1="142.5" y1="23.7" x2="140.3" y2="25.9"/>
				<line class="st0" x1="153" y1="13.3" x2="144.8" y2="21.5"/>
				<line class="st0" x1="142.5" y1="30" x2="141.2" y2="30.8"/>
				<line class="st0" x1="153.2" y1="23.3" x2="145.1" y2="28.4"/>
				<line class="st0" x1="159" y1="48.8" x2="146.7" y2="46.1"/>
				<line class="st0" x1="148.6" y1="36.5" x2="145.6" y2="37.2"/>
				<line class="st0" x1="163" y1="33.1" x2="151.7" y2="35.7"/>
				<line class="st0" x1="145.3" y1="41.8" x2="143.8" y2="41.8"/>
				<line class="st0" x1="157.9" y1="41.7" x2="148.3" y2="41.7"/>
			</g>
			<g>
				<line class="st0" x1="93.7" y1="28.4" x2="105.6" y2="32.3"/>
				<line class="st0" x1="102.8" y1="42.4" x2="105.9" y2="42.1"/>
				<line class="st0" x1="88.1" y1="44.2" x2="99.6" y2="42.8"/>
				<line class="st0" x1="106.7" y1="37.5" x2="108.2" y2="37.7"/>
				<line class="st0" x1="94.2" y1="36.2" x2="103.7" y2="37.2"/>
				<line class="st0" x1="105.4" y1="12.6" x2="113.4" y2="22.3"/>
				<line class="st0" x1="105.9" y1="28.7" x2="108.7" y2="30"/>
				<line class="st0" x1="92.6" y1="22.4" x2="103" y2="27.3"/>
				<line class="st0" x1="111.8" y1="26.6" x2="113" y2="27.5"/>
				<line class="st0" x1="101.9" y1="18.8" x2="109.4" y2="24.7"/>
			</g>
			<g>
				<line class="st0" x1="142.9" y1="69" x2="137.1" y2="57.9"/>
				<line class="st0" x1="146.1" y1="52.5" x2="143.6" y2="50.7"/>
				<line class="st0" x1="157.9" y1="61.4" x2="148.6" y2="54.4"/>
				<line class="st0" x1="139.9" y1="53.4" x2="138.9" y2="52.2"/>
				<line class="st0" x1="148" y1="63" x2="141.8" y2="55.7"/>
				<line class="st0" x1="123.6" y1="72.3" x2="124.5" y2="59.8"/>
				<line class="st0" x1="134.3" y1="60.3" x2="133.2" y2="57.4"/>
				<line class="st0" x1="139.7" y1="74.1" x2="135.5" y2="63.3"/>
				<line class="st0" x1="128.6" y1="57.8" x2="128.4" y2="56.3"/>
				<line class="st0" x1="130.4" y1="70.2" x2="129.1" y2="60.8"/>
			</g>
			<g>
				<line class="st0" x1="102.1" y1="63.1" x2="110.9" y2="54.2"/>
				<line class="st0" x1="118.7" y1="61.2" x2="119.7" y2="58.3"/>
				<line class="st0" x1="113.8" y1="75.1" x2="117.7" y2="64.2"/>
				<line class="st0" x1="116" y1="55.6" x2="116.8" y2="54.3"/>
				<line class="st0" x1="109.3" y1="66.2" x2="114.4" y2="58.1"/>
				<line class="st0" x1="107.8" y1="52.3" x2="110.2" y2="50.4"/>
				<line class="st0" x1="96.2" y1="61.5" x2="105.3" y2="54.3"/>
				<line class="st0" x1="108.4" y1="46.1" x2="109.8" y2="45.5"/>
				<line class="st0" x1="97.1" y1="51.5" x2="105.8" y2="47.4"/>
			</g>
		</g>
		<g>
			<g>
				<line class="st1" x1="123" y1="22.1" x2="124.4" y2="27.8"/>
				<line class="st1" x1="119.8" y1="29.2" x2="120.7" y2="30.3"/>
				<line class="st1" x1="115.4" y1="23.9" x2="118.8" y2="28.1"/>
				<line class="st1" x1="122.7" y1="29.5" x2="123" y2="30.1"/>
				<line class="st1" x1="120.1" y1="24.3" x2="122" y2="28.3"/>
				<line class="st1" x1="132.1" y1="22.8" x2="130.3" y2="28.3"/>
				<line class="st1" x1="125.9" y1="27" x2="126.1" y2="28.4"/>
				<line class="st1" x1="125" y1="20.2" x2="125.7" y2="25.5"/>
				<line class="st1" x1="128.2" y1="28.8" x2="128.2" y2="29.5"/>
				<line class="st1" x1="128.8" y1="23" x2="128.4" y2="27.4"/>
			</g>
			<g>
				<line class="st1" x1="139.8" y1="31" x2="134.8" y2="33.9"/>
				<line class="st1" x1="132.1" y1="29.9" x2="131.3" y2="31.1"/>
				<line class="st1" x1="135.9" y1="24.2" x2="132.9" y2="28.7"/>
				<line class="st1" x1="132.6" y1="32.7" x2="132.1" y2="33.2"/>
				<line class="st1" x1="136.9" y1="28.8" x2="133.6" y2="31.8"/>
				<line class="st1" x1="141.8" y1="39.9" x2="135.9" y2="39.7"/>
				<line class="st1" x1="135.9" y1="35.1" x2="134.6" y2="35.7"/>
				<line class="st1" x1="142.2" y1="32.4" x2="137.3" y2="34.5"/>
				<line class="st1" x1="134.9" y1="37.8" x2="134.2" y2="38"/>
				<line class="st1" x1="140.6" y1="36.7" x2="136.3" y2="37.6"/>
			</g>
			<g>
				<line class="st1" x1="110.2" y1="36.3" x2="116" y2="37.1"/>
				<line class="st1" x1="115.6" y1="41.9" x2="117" y2="41.5"/>
				<line class="st1" x1="109.1" y1="44" x2="114.2" y2="42.4"/>
				<line class="st1" x1="116.9" y1="39.3" x2="117.7" y2="39.3"/>
				<line class="st1" x1="111.1" y1="39.8" x2="115.6" y2="39.4"/>
				<line class="st1" x1="114.2" y1="28.1" x2="118.7" y2="31.8"/>
				<line class="st1" x1="115.8" y1="35.4" x2="117.2" y2="35.7"/>
				<line class="st1" x1="109.2" y1="33.7" x2="114.4" y2="35"/>
				<line class="st1" x1="118.3" y1="33.9" x2="119" y2="34.2"/>
				<line class="st1" x1="113.1" y1="31.2" x2="117.1" y2="33.3"/>
			</g>
			<g>
				<line class="st1" x1="136.2" y1="50.5" x2="132.6" y2="45.9"/>
				<line class="st1" x1="136.2" y1="42.7" x2="134.9" y2="42"/>
				<line class="st1" x1="142.4" y1="45.7" x2="137.6" y2="43.3"/>
				<line class="st1" x1="133.5" y1="43.6" x2="132.9" y2="43.2"/>
				<line class="st1" x1="138" y1="47.3" x2="134.6" y2="44.5"/>
				<line class="st1" x1="127.7" y1="53.7" x2="127" y2="47.9"/>
				<line class="st1" x1="131.6" y1="47.3" x2="130.8" y2="46"/>
				<line class="st1" x1="135.2" y1="53.1" x2="132.3" y2="48.5"/>
				<line class="st1" x1="128.7" y1="46.6" x2="128.5" y2="45.9"/>
				<line class="st1" x1="130.6" y1="52.1" x2="129.2" y2="47.9"/>
			</g>
			<g>
				<line class="st1" x1="117.1" y1="51.4" x2="120.3" y2="46.5"/>
				<line class="st1" x1="124.5" y1="49" x2="124.7" y2="47.6"/>
				<line class="st1" x1="123.5" y1="55.8" x2="124.3" y2="50.5"/>
				<line class="st1" x1="122.8" y1="46.7" x2="123.1" y2="46.1"/>
				<line class="st1" x1="120.7" y1="52.1" x2="122.3" y2="48"/>
				<line class="st1" x1="118.8" y1="46" x2="119.7" y2="44.9"/>
				<line class="st1" x1="114.3" y1="51.2" x2="117.8" y2="47.1"/>
				<line class="st1" x1="118.5" y1="43.1" x2="119.1" y2="42.7"/>
				<line class="st1" x1="113.8" y1="46.5" x2="117.4" y2="43.9"/>
			</g>
		</g>
	</g>
	<g>
		<g>
			<path class="st2" d="M254.2,86.5l1.4-21.5l1.4,21.5c0,0.8-0.5,1.4-1.3,1.5c-0.8,0-1.4-0.5-1.5-1.3
				C254.2,86.6,254.2,86.5,254.2,86.5z"/>
		</g>
		<g>
			<g>
				<path class="st2" d="M257,6.9l-1.4,21.5l-1.4-21.5c0-0.8,0.5-1.4,1.3-1.5c0.8,0,1.4,0.5,1.5,1.3C257,6.8,257,6.9,257,6.9z"/>
			</g>
		</g>
		<g>
			<g>
				<path class="st2" d="M215.8,45.3l21.5,1.4l-21.5,1.4c-0.8,0-1.4-0.5-1.5-1.3c0-0.8,0.5-1.4,1.3-1.5
					C215.7,45.3,215.8,45.3,215.8,45.3z"/>
			</g>
		</g>
		<g>
			<g>
				<path class="st2" d="M295.3,48.1l-21.5-1.4l21.5-1.4c0.8,0,1.4,0.5,1.5,1.3c0,0.8-0.5,1.4-1.3,1.5
					C295.5,48.1,295.4,48.1,295.3,48.1z"/>
			</g>
		</g>
		<g>
			<g>
				<path class="st2" d="M226.5,73.8l16.2-14.2l-14.2,16.2c-0.5,0.6-1.4,0.6-1.9,0.1c-0.6-0.5-0.6-1.4-0.1-1.9
					C226.4,73.9,226.5,73.9,226.5,73.8z"/>
			</g>
		</g>
		<g>
			<g>
				<path class="st2" d="M284.7,19.6l-16.2,14.2l14.2-16.2c0.5-0.6,1.4-0.6,1.9-0.1c0.6,0.5,0.6,1.4,0.1,1.9
					C284.8,19.5,284.7,19.5,284.7,19.6z"/>
			</g>
		</g>
		<g>
			<g>
				<path class="st2" d="M228.4,17.6l14.2,16.2l-16.2-14.2c-0.6-0.5-0.6-1.4-0.1-1.9c0.5-0.6,1.4-0.6,1.9-0.1
					C228.4,17.5,228.4,17.6,228.4,17.6z"/>
			</g>
		</g>
		<g>
			<g>
				<path class="st2" d="M282.7,75.8l-14.2-16.2l16.2,14.2c0.6,0.5,0.6,1.4,0.1,1.9c-0.5,0.6-1.4,0.6-1.9,0.1
					C282.8,75.9,282.8,75.8,282.7,75.8z"/>
			</g>
		</g>
		<g>
			<g>
				<path class="st2" d="M276.7,88.5l-10.9-22.9l13.3,21.6c0.4,0.6,0.2,1.5-0.4,1.9c-0.6,0.4-1.5,0.2-1.9-0.4
					C276.8,88.6,276.7,88.5,276.7,88.5z"/>
			</g>
		</g>
		<g>
			<g>
				<path class="st2" d="M234.5,4.9l10.9,22.9L232.1,6.3c-0.4-0.6-0.2-1.5,0.4-1.9c0.6-0.4,1.5-0.2,1.9,0.4
					C234.4,4.9,234.5,4.9,234.5,4.9z"/>
			</g>
		</g>
		<g>
			<g>
				<path class="st2" d="M213.8,67.8L236.7,57l-21.6,13.3c-0.6,0.4-1.5,0.2-1.9-0.4c-0.4-0.6-0.2-1.5,0.4-1.9
					C213.7,67.9,213.8,67.8,213.8,67.8z"/>
			</g>
		</g>
		<g>
			<g>
				<path class="st2" d="M297.4,25.6l-22.9,10.9L296,23.2c0.6-0.4,1.5-0.2,1.9,0.4c0.4,0.6,0.2,1.5-0.4,1.9
					C297.4,25.5,297.4,25.6,297.4,25.6z"/>
			</g>
		</g>
		<g>
			<g>
				<path class="st2" d="M241,91.2l8.5-23.8l-5.9,24.6c-0.2,0.7-0.9,1.2-1.7,1c-0.7-0.2-1.2-0.9-1-1.7C241,91.3,241,91.2,241,91.2z"
					/>
			</g>
		</g>
		<g>
			<g>
				<path class="st2" d="M270.2,2.2l-8.5,23.8l5.9-24.6c0.2-0.7,0.9-1.2,1.7-1c0.7,0.2,1.2,0.9,1,1.7C270.2,2.1,270.2,2.2,270.2,2.2
					z"/>
			</g>
		</g>
		<g>
			<g>
				<path class="st2" d="M211.1,32.1l23.8,8.5l-24.6-5.9c-0.7-0.2-1.2-0.9-1-1.7c0.2-0.7,0.9-1.2,1.7-1
					C211,32.1,211.1,32.1,211.1,32.1z"/>
			</g>
		</g>
		<g>
			<g>
				<path class="st2" d="M300.1,61.3l-23.8-8.5l24.6,5.9c0.7,0.2,1.2,0.9,1,1.7c-0.2,0.7-0.9,1.2-1.7,1
					C300.1,61.3,300.1,61.3,300.1,61.3z"/>
			</g>
		</g>
		<g>
			<g>
				<path class="st2" d="M239.6,72.3l9.2-13.5L242,73.7c-0.3,0.7-1.1,1-1.8,0.7c-0.7-0.3-1-1.1-0.7-1.8
					C239.5,72.4,239.5,72.4,239.6,72.3z"/>
			</g>
		</g>
		<g>
			<g>
				<path class="st2" d="M271.6,21.1l-9.2,13.5l6.8-14.9c0.3-0.7,1.1-1,1.8-0.7c0.7,0.3,1,1.1,0.7,1.8C271.7,21,271.6,21,271.6,21.1
					z"/>
			</g>
		</g>
		<g>
			<g>
				<path class="st2" d="M230,30.7l13.5,9.2l-14.9-6.8c-0.7-0.3-1-1.1-0.7-1.8c0.3-0.7,1.1-1,1.8-0.7
					C229.9,30.6,229.9,30.6,230,30.7z"/>
			</g>
		</g>
		<g>
			<g>
				<path class="st2" d="M281.2,62.7l-13.5-9.2l14.9,6.8c0.7,0.3,1,1.1,0.7,1.8c-0.3,0.7-1.1,1-1.8,0.7
					C281.3,62.8,281.3,62.8,281.2,62.7z"/>
			</g>
		</g>
		<g>
			<g>
				<path class="st2" d="M226.2,53.5l16.1-3.1l-15.3,5.7c-0.7,0.3-1.5-0.1-1.8-0.8c-0.3-0.7,0.1-1.5,0.8-1.8
					C226,53.5,226.1,53.5,226.2,53.5z"/>
			</g>
		</g>
		<g>
			<g>
				<path class="st2" d="M285,39.9L269,43l15.3-5.7c0.7-0.3,1.5,0.1,1.8,0.8c0.3,0.7-0.1,1.5-0.8,1.8
					C285.2,39.9,285.1,39.9,285,39.9z"/>
			</g>
		</g>
		<g>
			<g>
				<path class="st2" d="M248.8,17.3l3.1,16.1L246.2,18c-0.3-0.7,0.1-1.5,0.8-1.8c0.7-0.3,1.5,0.1,1.8,0.8
					C248.8,17.1,248.8,17.2,248.8,17.3z"/>
			</g>
		</g>
		<g>
			<g>
				<path class="st2" d="M262.4,76.1l-3.1-16.1l5.7,15.3c0.3,0.7-0.1,1.5-0.8,1.8c-0.7,0.3-1.5-0.1-1.8-0.8
					C262.4,76.3,262.4,76.2,262.4,76.1z"/>
			</g>
		</g>
		<g>
			<g>
				<path class="st2" d="M251.3,63l2.5-8.8l-1.5,9c0,0.3-0.3,0.5-0.6,0.4C251.4,63.6,251.3,63.3,251.3,63
					C251.3,63,251.3,63,251.3,63z"/>
			</g>
		</g>
		<g>
			<g>
				<path class="st2" d="M259.9,30.4l-2.5,8.8l1.5-9c0-0.3,0.3-0.5,0.6-0.4C259.7,29.8,259.9,30.1,259.9,30.4
					C259.9,30.4,259.9,30.4,259.9,30.4z"/>
			</g>
		</g>
		<g>
			<g>
				<path class="st2" d="M239.3,42.4L248,45l-9-1.5c-0.3,0-0.5-0.3-0.4-0.6C238.7,42.6,239,42.4,239.3,42.4
					C239.3,42.4,239.3,42.4,239.3,42.4z"/>
			</g>
		</g>
		<g>
			<g>
				<path class="st2" d="M271.9,51l-8.8-2.5l9,1.5c0.3,0,0.5,0.3,0.4,0.6C272.5,50.8,272.2,51,271.9,51C271.9,51,271.9,51,271.9,51z
					"/>
			</g>
		</g>
		<g>
			<g>
				<path class="st2" d="M241,55.2l8-4.4l-7.4,5.3c-0.2,0.2-0.6,0.1-0.7-0.1C240.7,55.7,240.8,55.4,241,55.2
					C241,55.2,241,55.2,241,55.2z"/>
			</g>
		</g>
		<g>
			<g>
				<path class="st2" d="M270.1,38.2l-8,4.4l7.4-5.3c0.2-0.2,0.6-0.1,0.7,0.1C270.5,37.7,270.4,38,270.1,38.2
					C270.2,38.2,270.2,38.2,270.1,38.2z"/>
			</g>
		</g>
		<g>
			<g>
				<path class="st2" d="M247.1,32.2l4.4,8l-5.3-7.4c-0.2-0.2-0.1-0.6,0.1-0.7C246.6,31.8,246.9,31.9,247.1,32.2
					C247.1,32.1,247.1,32.1,247.1,32.2z"/>
			</g>
		</g>
		<g>
			<g>
				<path class="st2" d="M264.1,61.2l-4.4-8l5.3,7.4c0.2,0.2,0.1,0.6-0.1,0.7C264.6,61.6,264.3,61.5,264.1,61.2
					C264.1,61.3,264.1,61.3,264.1,61.2z"/>
			</g>
		</g>
	</g>
	<g>
		<g>
			<g>
				<polygon class="st3" points="162.1,48.6 160.5,49.8 160.6,51.8 159,50.6 157.1,51.3 157.7,49.4 156.5,47.8 158.5,47.8 
					159.6,46.2 160.2,48.1 				"/>
				<g>
					<g>
						<polygon class="st3" points="160.1,49 164.9,51.6 159.6,50.1 						"/>
					</g>
				</g>
			</g>
			<g>
				<polygon class="st3" points="174.2,19.6 172.5,19.7 171.6,21.2 171,19.6 169.3,19.2 170.6,18.2 170.5,16.5 171.9,17.4 
					173.5,16.7 173,18.3 				"/>
				<g>
					<g>
						<polygon class="st3" points="172.5,18.9 174.8,23.1 171.7,19.5 						"/>
					</g>
				</g>
			</g>
			<g>
				<g>
					<g>
						<path class="st3" d="M150.2,32.6l3.7,2.6L150,33c-0.1-0.1-0.2-0.2-0.1-0.3C149.9,32.6,150.1,32.5,150.2,32.6
							C150.2,32.6,150.2,32.6,150.2,32.6z"/>
					</g>
				</g>
				<g>
					<g>
						<path class="st3" d="M181.1,52.2l6.2,4.2l-6.4-3.8c-0.1-0.1-0.2-0.2-0.1-0.3C180.9,52.2,181,52.2,181.1,52.2
							C181.1,52.2,181.1,52.2,181.1,52.2z"/>
					</g>
				</g>
				<g>
					<g>
						<path class="st3" d="M155.3,35.8l1.5,1.3l-1.8-0.8c-0.1-0.1-0.2-0.2-0.1-0.3C155,35.8,155.1,35.7,155.3,35.8
							C155.2,35.8,155.3,35.8,155.3,35.8z"/>
					</g>
				</g>
				<g>
					<g>
						<path class="st3" d="M175.6,48.7l1.5,1.3l-1.8-0.8c-0.1-0.1-0.2-0.2-0.1-0.3C175.3,48.7,175.4,48.6,175.6,48.7
							C175.5,48.7,175.6,48.7,175.6,48.7z"/>
					</g>
				</g>
				<g>
					<g>
						<path class="st3" d="M178.2,50.4l1.5,1.3l-1.8-0.8c-0.1-0.1-0.2-0.2-0.1-0.3C177.9,50.3,178,50.3,178.2,50.4
							C178.2,50.4,178.2,50.4,178.2,50.4z"/>
					</g>
				</g>
				<g>
					<g>
						<path class="st3" d="M158.1,37.6l16.6,10.8L157.8,38c-0.1-0.1-0.2-0.2-0.1-0.3C157.8,37.6,157.9,37.5,158.1,37.6
							C158.1,37.6,158.1,37.6,158.1,37.6z"/>
					</g>
				</g>
			</g>
			<g>
				<g>
					<g>
						<path class="st3" d="M176.4,59.7l7.4,0.6l-7.4-0.1c-0.1,0-0.2-0.1-0.2-0.2C176.2,59.9,176.3,59.7,176.4,59.7
							C176.4,59.7,176.4,59.7,176.4,59.7z"/>
					</g>
				</g>
				<g>
					<g>
						<path class="st3" d="M169.8,59.5l1.9,0.3l-2,0.2c-0.1,0-0.3-0.1-0.3-0.2C169.5,59.6,169.6,59.5,169.8,59.5
							C169.8,59.5,169.8,59.5,169.8,59.5z"/>
					</g>
				</g>
				<g>
					<g>
						<path class="st3" d="M173,59.6l1.9,0.3l-2,0.2c-0.1,0-0.3-0.1-0.3-0.2C172.7,59.7,172.8,59.6,173,59.6
							C172.9,59.6,172.9,59.6,173,59.6z"/>
					</g>
				</g>
				<g>
					<g>
						<path class="st3" d="M149.1,58.6l19.7,1.1L149.1,59c-0.1,0-0.2-0.1-0.2-0.3C148.9,58.7,149,58.5,149.1,58.6
							C149.1,58.6,149.1,58.6,149.1,58.6z"/>
					</g>
				</g>
			</g>
			<g>
				<g>
					<g>
						<path class="st3" d="M172.9,5.6l1.8,4.1l-2.3-3.9c-0.1-0.1,0-0.3,0.1-0.3C172.7,5.4,172.8,5.5,172.9,5.6
							C172.9,5.6,172.9,5.6,172.9,5.6z"/>
					</g>
				</g>
				<g>
					<g>
						<path class="st3" d="M189.6,38.2l3.2,6.7l-3.6-6.5c-0.1-0.1,0-0.3,0.1-0.3C189.4,38,189.5,38,189.6,38.2
							C189.6,38.2,189.6,38.2,189.6,38.2z"/>
					</g>
				</g>
				<g>
					<g>
						<path class="st3" d="M175.6,10.9l0.7,1.8l-1.1-1.6c-0.1-0.1,0-0.3,0.1-0.3C175.4,10.7,175.5,10.8,175.6,10.9
							C175.6,10.9,175.6,10.9,175.6,10.9z"/>
					</g>
				</g>
				<g>
					<g>
						<path class="st3" d="M186.6,32.3l0.7,1.8l-1.1-1.6c-0.1-0.1,0-0.3,0.1-0.3C186.3,32.1,186.5,32.1,186.6,32.3
							C186.6,32.3,186.6,32.3,186.6,32.3z"/>
					</g>
				</g>
				<g>
					<g>
						<path class="st3" d="M188,35.1l0.7,1.8l-1.1-1.6c-0.1-0.1,0-0.3,0.1-0.3C187.7,34.9,187.9,34.9,188,35.1
							C188,35,188,35.1,188,35.1z"/>
					</g>
				</g>
				<g>
					<g>
						<path class="st3" d="M177.1,13.8l8.8,17.7l-9.2-17.5c-0.1-0.1,0-0.3,0.1-0.3C176.9,13.7,177,13.7,177.1,13.8
							C177.1,13.8,177.1,13.8,177.1,13.8z"/>
					</g>
				</g>
			</g>
			<g>
				<g>
					<g>
						<path class="st3" d="M163.7,29l1.3,1.5l-1.6-1.2c-0.1-0.1-0.1-0.2-0.1-0.3C163.4,28.9,163.6,28.8,163.7,29
							C163.7,28.9,163.7,28.9,163.7,29z"/>
					</g>
				</g>
				<g>
					<g>
						<path class="st3" d="M166.2,31.2L188.7,53l-22.8-21.4c-0.1-0.1-0.1-0.2,0-0.3C165.9,31.1,166.1,31.1,166.2,31.2
							C166.1,31.2,166.2,31.2,166.2,31.2z"/>
					</g>
				</g>
			</g>
			<g>
				<g>
					<g>
						<path class="st3" d="M175.6,23.8l0.9,1.8l-1.3-1.5c-0.1-0.1-0.1-0.3,0-0.3C175.4,23.6,175.5,23.6,175.6,23.8
							C175.6,23.7,175.6,23.7,175.6,23.8z"/>
					</g>
				</g>
				<g>
					<g>
						<path class="st3" d="M177.4,26.5l5.9,9.2l-6.3-8.9c-0.1-0.1-0.1-0.3,0.1-0.3C177.2,26.4,177.3,26.4,177.4,26.5
							C177.4,26.5,177.4,26.5,177.4,26.5z"/>
					</g>
				</g>
			</g>
			<g>
				<g>
					<g>
						<path class="st3" d="M195.3,17.8l4.3,22.6l-4.8-22.5c0-0.1,0.1-0.3,0.2-0.3C195.1,17.6,195.3,17.7,195.3,17.8
							C195.3,17.8,195.3,17.8,195.3,17.8z"/>
					</g>
				</g>
			</g>
			<g>
				<g>
					<g>
						<path class="st3" d="M183.9,13.9l0.5,1.9l-1-1.7c-0.1-0.1,0-0.3,0.1-0.3C183.7,13.7,183.8,13.7,183.9,13.9
							C183.9,13.8,183.9,13.8,183.9,13.9z"/>
					</g>
				</g>
				<g>
					<g>
						<path class="st3" d="M185.2,16.9l9.9,25.4l-10.3-25.3c-0.1-0.1,0-0.3,0.1-0.3C185,16.7,185.1,16.8,185.2,16.9
							C185.2,16.9,185.2,16.9,185.2,16.9z"/>
					</g>
				</g>
			</g>
			<g>
				<g>
					<g>
						<path class="st3" d="M166,51.8l1.7,0.9l-1.9-0.5c-0.1,0-0.2-0.2-0.2-0.3C165.7,51.8,165.9,51.7,166,51.8
							C166,51.8,166,51.8,166,51.8z"/>
					</g>
				</g>
				<g>
					<g>
						<path class="st3" d="M169.1,53l10.2,4l-10.3-3.5c-0.1,0-0.2-0.2-0.2-0.3C168.8,53,169,52.9,169.1,53
							C169.1,53,169.1,53,169.1,53z"/>
					</g>
				</g>
			</g>
			<path class="st3" d="M161.6,30.2c0,0.5-0.4,0.9-0.9,0.9s-0.9-0.4-0.9-0.9s0.4-0.9,0.9-0.9S161.6,29.7,161.6,30.2z"/>
			<path class="st3" d="M192,17.9c0,0.5-0.4,0.9-0.9,0.9s-0.9-0.4-0.9-0.9c0-0.5,0.4-0.9,0.9-0.9S192,17.4,192,17.9z"/>
			<path class="st3" d="M160.6,25.9c0,0.3-0.3,0.6-0.6,0.6c-0.3,0-0.6-0.3-0.6-0.6c0-0.3,0.3-0.6,0.6-0.6
				C160.3,25.3,160.6,25.6,160.6,25.9z"/>
			<path class="st3" d="M189.3,14.9c0,0.3-0.3,0.6-0.6,0.6c-0.3,0-0.6-0.3-0.6-0.6c0-0.3,0.3-0.6,0.6-0.6
				C189,14.3,189.3,14.5,189.3,14.9z"/>
			<path class="st3" d="M156.8,44.3c0,0.3-0.2,0.6-0.5,0.6c-0.3,0-0.6-0.2-0.6-0.5c0-0.3,0.2-0.6,0.5-0.6
				C156.4,43.7,156.7,44,156.8,44.3z"/>
			<path class="st3" d="M174,29.1c0,0.3-0.3,0.6-0.6,0.6c-0.3,0-0.6-0.3-0.6-0.6c0-0.3,0.3-0.6,0.6-0.6
				C173.7,28.5,174,28.8,174,29.1z"/>
			<g>
				<g>
					<path class="st3" d="M175.5,32.4l6,7l-6.4-6.6c-0.1-0.1-0.1-0.3,0-0.3C175.2,32.3,175.4,32.3,175.5,32.4
						C175.5,32.4,175.5,32.4,175.5,32.4z"/>
				</g>
			</g>
		</g>
		<g>
			<g>
				<polygon class="st3" points="241,51.1 242.5,52.4 242.3,54.3 244,53.3 245.8,54.1 245.4,52.2 246.7,50.7 244.7,50.6 243.7,48.8 
					243,50.7 				"/>
				<g>
					<g>
						<polygon class="st3" points="243.4,52.8 238,53.9 243.1,51.6 						"/>
					</g>
				</g>
			</g>
			<g>
				<polygon class="st3" points="230.8,20.1 232.5,20.2 233.4,21.7 234,20.1 235.7,19.7 234.4,18.6 234.5,17 233.1,17.8 231.5,17.2 
					232,18.8 				"/>
				<g>
					<g>
						<polygon class="st3" points="233.3,20 230.2,23.5 232.5,19.4 						"/>
					</g>
				</g>
			</g>
			<g>
				<g>
					<g>
						<path class="st3" d="M257.4,34.9l-4.1,2l3.8-2.4c0.1-0.1,0.3,0,0.3,0.1C257.6,34.7,257.6,34.9,257.4,34.9
							C257.5,34.9,257.4,34.9,257.4,34.9z"/>
					</g>
				</g>
				<g>
					<g>
						<path class="st3" d="M225.4,52.7l-6.6,3.4l6.4-3.8c0.1-0.1,0.3,0,0.3,0.1C225.6,52.4,225.5,52.6,225.4,52.7
							C225.4,52.7,225.4,52.7,225.4,52.7z"/>
					</g>
				</g>
				<g>
					<g>
						<path class="st3" d="M252.2,37.8l-1.8,0.7l1.6-1.2c0.1-0.1,0.3-0.1,0.3,0.1C252.4,37.6,252.4,37.7,252.2,37.8
							C252.2,37.8,252.2,37.8,252.2,37.8z"/>
					</g>
				</g>
				<g>
					<g>
						<path class="st3" d="M231.2,49.5l-1.8,0.7l1.6-1.2c0.1-0.1,0.3-0.1,0.3,0.1C231.4,49.2,231.3,49.4,231.2,49.5
							C231.2,49.5,231.2,49.5,231.2,49.5z"/>
					</g>
				</g>
				<g>
					<g>
						<path class="st3" d="M228.4,51l-1.8,0.7l1.6-1.2c0.1-0.1,0.3-0.1,0.3,0.1C228.6,50.7,228.6,50.9,228.4,51
							C228.5,51,228.5,51,228.4,51z"/>
					</g>
				</g>
				<g>
					<g>
						<path class="st3" d="M249.3,39.4l-17.4,9.4l17.2-9.8c0.1-0.1,0.3,0,0.3,0.1C249.5,39.2,249.4,39.4,249.3,39.4
							C249.3,39.4,249.3,39.4,249.3,39.4z"/>
					</g>
				</g>
			</g>
			<g>
				<g>
					<g>
						<path class="st3" d="M232.6,6.3l-2.3,3.9l1.8-4.1c0.1-0.1,0.2-0.2,0.3-0.1C232.6,6,232.6,6.2,232.6,6.3
							C232.6,6.3,232.6,6.3,232.6,6.3z"/>
					</g>
				</g>
				<g>
					<g>
						<path class="st3" d="M215.8,38.9l-3.6,6.5l3.2-6.7c0.1-0.1,0.2-0.2,0.3-0.1C215.9,38.6,215.9,38.7,215.8,38.9
							C215.9,38.9,215.8,38.9,215.8,38.9z"/>
					</g>
				</g>
				<g>
					<g>
						<path class="st3" d="M229.8,11.6l-1.1,1.6l0.7-1.8c0-0.1,0.2-0.2,0.3-0.1C229.8,11.3,229.9,11.4,229.8,11.6
							C229.8,11.6,229.8,11.6,229.8,11.6z"/>
					</g>
				</g>
				<g>
					<g>
						<path class="st3" d="M218.9,33l-1.1,1.6l0.7-1.8c0-0.1,0.2-0.2,0.3-0.1C218.9,32.7,218.9,32.8,218.9,33
							C218.9,33,218.9,33,218.9,33z"/>
					</g>
				</g>
				<g>
					<g>
						<path class="st3" d="M217.4,35.8l-1.1,1.6l0.7-1.8c0-0.1,0.2-0.2,0.3-0.1C217.4,35.5,217.5,35.6,217.4,35.8
							C217.5,35.7,217.4,35.8,217.4,35.8z"/>
					</g>
				</g>
				<g>
					<g>
						<path class="st3" d="M228.3,14.6L219.1,32l8.8-17.7c0.1-0.1,0.2-0.2,0.3-0.1C228.3,14.3,228.4,14.4,228.3,14.6
							C228.3,14.5,228.3,14.5,228.3,14.6z"/>
					</g>
				</g>
			</g>
			<g>
				<g>
					<g>
						<path class="st3" d="M202.8-3.7l-0.1,4.5l-0.4-4.5c0-0.1,0.1-0.3,0.2-0.3C202.6-3.9,202.8-3.8,202.8-3.7
							C202.8-3.7,202.8-3.7,202.8-3.7z"/>
					</g>
				</g>
				<g>
					<g>
						<path class="st3" d="M203.7,32.9l-0.1,7.4l-0.4-7.4c0-0.1,0.1-0.3,0.2-0.3C203.6,32.7,203.7,32.8,203.7,32.9
							C203.7,32.9,203.7,32.9,203.7,32.9z"/>
					</g>
				</g>
				<g>
					<g>
						<path class="st3" d="M202.9,2.3l-0.2,2l-0.3-1.9c0-0.1,0.1-0.3,0.2-0.3C202.8,2,202.9,2.1,202.9,2.3
							C202.9,2.3,202.9,2.3,202.9,2.3z"/>
					</g>
				</g>
				<g>
					<g>
						<path class="st3" d="M203.5,26.4l-0.2,2l-0.3-1.9c0-0.1,0.1-0.3,0.2-0.3C203.4,26.1,203.5,26.2,203.5,26.4
							C203.5,26.3,203.5,26.3,203.5,26.4z"/>
					</g>
				</g>
				<g>
					<g>
						<path class="st3" d="M203.6,29.5l-0.2,2l-0.3-1.9c0-0.1,0.1-0.3,0.2-0.3C203.4,29.2,203.6,29.3,203.6,29.5
							C203.6,29.4,203.6,29.4,203.6,29.5z"/>
					</g>
				</g>
				<g>
					<g>
						<path class="st3" d="M203,5.6l0.2,19.8l-0.7-19.8c0-0.1,0.1-0.2,0.2-0.3C202.9,5.4,203,5.5,203,5.6C203,5.6,203,5.6,203,5.6z"
							/>
					</g>
				</g>
			</g>
			<g>
				<g>
					<g>
						<path class="st3" d="M241.6,29.8l-1.6,1.2l1.3-1.5c0.1-0.1,0.2-0.1,0.3,0C241.7,29.5,241.7,29.6,241.6,29.8
							C241.6,29.8,241.6,29.8,241.6,29.8z"/>
					</g>
				</g>
				<g>
					<g>
						<path class="st3" d="M239.2,32l-22.8,21.4l22.5-21.8c0.1-0.1,0.3-0.1,0.3,0C239.3,31.8,239.3,31.9,239.2,32
							C239.2,32,239.2,32,239.2,32z"/>
					</g>
				</g>
			</g>
			<g>
				<g>
					<g>
						<path class="st3" d="M229.8,24.5l-1.3,1.5l0.9-1.8c0.1-0.1,0.2-0.2,0.3-0.1C229.8,24.2,229.9,24.3,229.8,24.5
							C229.8,24.5,229.8,24.5,229.8,24.5z"/>
					</g>
				</g>
				<g>
					<g>
						<path class="st3" d="M228,27.3l-6.3,8.9l5.9-9.2c0.1-0.1,0.2-0.1,0.3-0.1C228,27,228.1,27.1,228,27.3
							C228,27.3,228,27.3,228,27.3z"/>
					</g>
				</g>
			</g>
			<g>
				<g>
					<g>
						<path class="st3" d="M212.5,12.8l-7.1,28.1l6.6-28.2c0-0.1,0.2-0.2,0.3-0.2C212.4,12.6,212.5,12.7,212.5,12.8
							C212.5,12.8,212.5,12.8,212.5,12.8z"/>
					</g>
				</g>
			</g>
			<g>
				<g>
					<g>
						<path class="st3" d="M220.7,14.2l-1,1.7l0.5-1.9c0-0.1,0.2-0.2,0.3-0.2C220.7,13.9,220.8,14,220.7,14.2
							C220.7,14.2,220.7,14.2,220.7,14.2z"/>
					</g>
				</g>
				<g>
					<g>
						<path class="st3" d="M219.5,17.2l-10.3,25.3l9.9-25.4c0-0.1,0.2-0.2,0.3-0.1C219.4,17,219.5,17.1,219.5,17.2
							C219.5,17.2,219.5,17.2,219.5,17.2z"/>
					</g>
				</g>
			</g>
			<g>
				<g>
					<g>
						<path class="st3" d="M237.1,54.5l-1.9,0.3l1.8-0.8c0.1-0.1,0.3,0,0.3,0.1C237.3,54.3,237.2,54.4,237.1,54.5
							C237.1,54.5,237.1,54.5,237.1,54.5z"/>
					</g>
				</g>
				<g>
					<g>
						<path class="st3" d="M233.9,55.5l-10.5,2.8l10.4-3.3c0.1,0,0.3,0,0.3,0.2C234.1,55.3,234,55.4,233.9,55.5
							C233.9,55.5,233.9,55.5,233.9,55.5z"/>
					</g>
				</g>
			</g>
			<path class="st3" d="M243.4,30.6c0,0.5,0.4,0.9,0.9,0.9c0.5,0,0.9-0.4,0.9-0.9s-0.4-0.9-0.9-0.9
				C243.8,29.8,243.4,30.2,243.4,30.6z"/>
			<path class="st3" d="M212.2,10.2c0,0.5,0.4,0.9,0.9,0.9c0.5,0,0.9-0.4,0.9-0.9c0-0.5-0.4-0.9-0.9-0.9
				C212.6,9.3,212.2,9.7,212.2,10.2z"/>
			<path class="st3" d="M244.4,26.4c0,0.3,0.3,0.6,0.6,0.6c0.3,0,0.6-0.3,0.6-0.6c0-0.3-0.3-0.6-0.6-0.6
				C244.7,25.8,244.4,26.1,244.4,26.4z"/>
			<path class="st3" d="M213.3,6.8c0,0.3,0.3,0.6,0.6,0.6c0.3,0,0.6-0.3,0.6-0.6c0-0.3-0.3-0.6-0.6-0.6
				C213.6,6.2,213.3,6.4,213.3,6.8z"/>
			<path class="st3" d="M246.7,47.1c-0.1,0.3,0.2,0.6,0.5,0.7c0.3,0.1,0.6-0.2,0.7-0.5c0.1-0.3-0.2-0.6-0.5-0.7
				C247,46.6,246.7,46.8,246.7,47.1z"/>
			<path class="st3" d="M231,29.6c0,0.3,0.3,0.6,0.6,0.6c0.3,0,0.6-0.3,0.6-0.6c0-0.3-0.3-0.6-0.6-0.6C231.3,29,231,29.3,231,29.6z"
				/>
			<g>
				<g>
					<path class="st3" d="M229.9,33.2l-6.4,6.6l6-7c0.1-0.1,0.2-0.1,0.3,0C230,32.9,230,33.1,229.9,33.2
						C229.9,33.2,229.9,33.2,229.9,33.2z"/>
				</g>
			</g>
		</g>
		<g>
			<g>
				<polygon class="st3" points="232.3,101.7 234,101.6 234.9,100.1 235.5,101.7 237.1,102.1 235.8,103.2 236,104.8 234.6,103.9 
					233,104.6 233.4,103 				"/>
				<g>
					<g>
						<polygon class="st3" points="234,102.4 231.7,98.2 234.8,101.8 						"/>
					</g>
				</g>
			</g>
			<g>
				<g>
					<g>
						<path class="st3" d="M257.6,86.9l-3.8-2.4l4.1,2c0.1,0.1,0.2,0.2,0.1,0.3C257.9,86.9,257.8,87,257.6,86.9
							C257.6,86.9,257.6,86.9,257.6,86.9z"/>
					</g>
				</g>
				<g>
					<g>
						<path class="st3" d="M225.7,69l-6.4-3.9l6.6,3.4c0.1,0.1,0.2,0.2,0.1,0.3C226,69,225.8,69.1,225.7,69
							C225.7,69,225.7,69,225.7,69z"/>
					</g>
				</g>
				<g>
					<g>
						<path class="st3" d="M252.4,84l-1.6-1.2l1.8,0.7c0.1,0.1,0.2,0.2,0.1,0.3C252.7,84,252.6,84.1,252.4,84
							C252.4,84,252.4,84,252.4,84z"/>
					</g>
				</g>
				<g>
					<g>
						<path class="st3" d="M231.4,72.2l-1.6-1.2l1.8,0.7c0.1,0.1,0.2,0.2,0.1,0.3C231.8,72.2,231.6,72.3,231.4,72.2
							C231.5,72.2,231.4,72.2,231.4,72.2z"/>
					</g>
				</g>
				<g>
					<g>
						<path class="st3" d="M228.7,70.7l-1.6-1.2l1.8,0.7c0.1,0.1,0.2,0.2,0.1,0.3C229,70.7,228.9,70.8,228.7,70.7
							C228.8,70.7,228.7,70.7,228.7,70.7z"/>
					</g>
				</g>
				<g>
					<g>
						<path class="st3" d="M249.5,82.4l-17.1-9.9l17.4,9.5c0.1,0.1,0.2,0.2,0.1,0.3C249.8,82.4,249.7,82.4,249.5,82.4
							C249.5,82.4,249.5,82.4,249.5,82.4z"/>
					</g>
				</g>
			</g>
			<g>
				<g>
					<g>
						<path class="st3" d="M233.6,115.7l-1.8-4.1l2.3,3.9c0.1,0.1,0,0.3-0.1,0.3C233.8,115.9,233.7,115.9,233.6,115.7
							C233.6,115.7,233.6,115.7,233.6,115.7z"/>
					</g>
				</g>
				<g>
					<g>
						<path class="st3" d="M216.9,83.1l-3.2-6.7l3.6,6.5c0.1,0.1,0,0.3-0.1,0.3C217.1,83.3,217,83.3,216.9,83.1
							C216.9,83.1,216.9,83.1,216.9,83.1z"/>
					</g>
				</g>
				<g>
					<g>
						<path class="st3" d="M230.9,110.4l-0.7-1.8l1.1,1.6c0.1,0.1,0,0.3-0.1,0.3C231.1,110.6,231,110.6,230.9,110.4
							C230.9,110.4,230.9,110.4,230.9,110.4z"/>
					</g>
				</g>
				<g>
					<g>
						<path class="st3" d="M219.9,89l-0.7-1.8l1.1,1.6c0.1,0.1,0,0.3-0.1,0.3C220.2,89.2,220,89.2,219.9,89
							C219.9,89,219.9,89,219.9,89z"/>
					</g>
				</g>
				<g>
					<g>
						<path class="st3" d="M218.5,86.2l-0.7-1.8l1.1,1.6c0.1,0.1,0,0.3-0.1,0.3C218.7,86.4,218.6,86.4,218.5,86.2
							C218.5,86.3,218.5,86.2,218.5,86.2z"/>
					</g>
				</g>
				<g>
					<g>
						<path class="st3" d="M229.4,107.5l-8.8-17.7l9.2,17.5c0.1,0.1,0,0.3-0.1,0.3C229.6,107.6,229.4,107.6,229.4,107.5
							C229.4,107.5,229.4,107.5,229.4,107.5z"/>
					</g>
				</g>
			</g>
			<g>
				<g>
					<g>
						<path class="st3" d="M242.7,92.4l-1.3-1.5l1.6,1.2c0.1,0.1,0.1,0.2,0.1,0.3C243,92.5,242.9,92.5,242.7,92.4
							C242.8,92.4,242.7,92.4,242.7,92.4z"/>
					</g>
				</g>
				<g>
					<g>
						<path class="st3" d="M240.3,90.1l-22.5-21.8l22.8,21.4c0.1,0.1,0.1,0.2,0,0.3C240.6,90.2,240.4,90.2,240.3,90.1
							C240.3,90.1,240.3,90.1,240.3,90.1z"/>
					</g>
				</g>
			</g>
			<g>
				<g>
					<g>
						<path class="st3" d="M230.8,97.6l-0.9-1.8l1.3,1.5c0.1,0.1,0.1,0.3,0,0.3C231.1,97.7,231,97.7,230.8,97.6
							C230.9,97.6,230.8,97.6,230.8,97.6z"/>
					</g>
				</g>
				<g>
					<g>
						<path class="st3" d="M229,94.8l-5.9-9.2l6.3,8.9c0.1,0.1,0.1,0.3-0.1,0.3C229.3,94.9,229.1,94.9,229,94.8
							C229.1,94.8,229,94.8,229,94.8z"/>
					</g>
				</g>
			</g>
			<g>
				<g>
					<g>
						<path class="st3" d="M211.2,103.5l-4.3-22.6l4.8,22.5c0,0.1-0.1,0.3-0.2,0.3C211.3,103.7,211.2,103.6,211.2,103.5
							C211.2,103.5,211.2,103.5,211.2,103.5z"/>
					</g>
				</g>
			</g>
			<g>
				<g>
					<g>
						<path class="st3" d="M222.6,107.4l-0.5-1.9l1,1.7c0.1,0.1,0,0.3-0.1,0.3C222.8,107.7,222.6,107.6,222.6,107.4
							C222.6,107.5,222.6,107.5,222.6,107.4z"/>
					</g>
				</g>
				<g>
					<g>
						<path class="st3" d="M221.3,104.4L211.4,79l10.3,25.3c0.1,0.1,0,0.3-0.1,0.3C221.5,104.6,221.3,104.5,221.3,104.4
							C221.3,104.4,221.3,104.4,221.3,104.4z"/>
					</g>
				</g>
			</g>
			<g>
				<g>
					<g>
						<path class="st3" d="M243.8,64.8l-1.9-0.4l2-0.1c0.1,0,0.2,0.1,0.3,0.2C244.1,64.6,244,64.8,243.8,64.8
							C243.8,64.8,243.8,64.8,243.8,64.8z"/>
					</g>
				</g>
				<g>
					<g>
						<path class="st3" d="M240.5,64.5l-19.7-2.3l19.7,1.8c0.1,0,0.2,0.1,0.2,0.3C240.8,64.4,240.7,64.5,240.5,64.5
							C240.5,64.5,240.5,64.5,240.5,64.5z"/>
					</g>
				</g>
			</g>
			<path class="st3" d="M244.8,91.1c0-0.5,0.4-0.9,0.9-0.9c0.5,0,0.9,0.4,0.9,0.9c0,0.5-0.4,0.9-0.9,0.9
				C245.2,92,244.8,91.6,244.8,91.1z"/>
			<path class="st3" d="M214.5,103.4c0-0.5,0.4-0.9,0.9-0.9c0.5,0,0.9,0.4,0.9,0.9c0,0.5-0.4,0.9-0.9,0.9
				C214.9,104.3,214.5,103.9,214.5,103.4z"/>
			<path class="st3" d="M245.9,95.4c0-0.3,0.3-0.6,0.6-0.6c0.3,0,0.6,0.3,0.6,0.6c0,0.3-0.3,0.6-0.6,0.6
				C246.2,96,245.9,95.7,245.9,95.4z"/>
			<path class="st3" d="M217.2,106.4c0-0.3,0.3-0.6,0.6-0.6c0.3,0,0.6,0.3,0.6,0.6c0,0.3-0.3,0.6-0.6,0.6
				C217.5,107,217.2,106.8,217.2,106.4z"/>
			<path class="st3" d="M235,69.8c0-0.3,0.3-0.6,0.6-0.6c0.3,0,0.6,0.3,0.6,0.6c0,0.3-0.3,0.6-0.6,0.6C235.3,70.4,235,70.1,235,69.8
				z"/>
			<path class="st3" d="M232.5,92.2c0-0.3,0.3-0.6,0.6-0.6c0.3,0,0.6,0.3,0.6,0.6c0,0.3-0.3,0.6-0.6,0.6
				C232.7,92.8,232.5,92.5,232.5,92.2z"/>
			<g>
				<g>
					<path class="st3" d="M231,88.9l-6-7l6.4,6.6c0.1,0.1,0.1,0.3,0,0.3C231.2,89.1,231.1,89,231,88.9C231,88.9,231,88.9,231,88.9z"
						/>
				</g>
			</g>
		</g>
		<g>
			<g>
				<polygon class="st3" points="175.6,101.2 174,101.1 173.1,99.7 172.5,101.2 170.8,101.6 172.1,102.7 171.9,104.4 173.4,103.5 
					174.9,104.1 174.5,102.5 				"/>
				<g>
					<g>
						<polygon class="st3" points="173.1,101.3 176.3,97.8 174,101.9 						"/>
					</g>
				</g>
			</g>
			<g>
				<g>
					<g>
						<path class="st3" d="M148.8,88.8l4-2.1l-3.7,2.5c-0.1,0.1-0.3,0-0.3-0.1C148.6,89,148.7,88.8,148.8,88.8
							C148.8,88.8,148.8,88.8,148.8,88.8z"/>
					</g>
				</g>
				<g>
					<g>
						<path class="st3" d="M180.1,69.8l6.5-3.6l-6.2,4.1c-0.1,0.1-0.3,0-0.3-0.1C180,70,180,69.9,180.1,69.8
							C180.1,69.8,180.1,69.8,180.1,69.8z"/>
					</g>
				</g>
				<g>
					<g>
						<path class="st3" d="M153.9,85.7l1.8-0.8l-1.5,1.2c-0.1,0.1-0.3,0.1-0.3,0C153.7,85.9,153.8,85.8,153.9,85.7
							C153.9,85.7,153.9,85.7,153.9,85.7z"/>
					</g>
				</g>
				<g>
					<g>
						<path class="st3" d="M174.5,73.2l1.8-0.8l-1.5,1.2c-0.1,0.1-0.3,0.1-0.3,0C174.3,73.5,174.3,73.3,174.5,73.2
							C174.5,73.2,174.5,73.2,174.5,73.2z"/>
					</g>
				</g>
				<g>
					<g>
						<path class="st3" d="M177.1,71.6l1.8-0.8l-1.5,1.2c-0.1,0.1-0.3,0.1-0.3,0C177,71.9,177,71.7,177.1,71.6
							C177.1,71.6,177.1,71.6,177.1,71.6z"/>
					</g>
				</g>
				<g>
					<g>
						<path class="st3" d="M156.7,84l17-10L157,84.4c-0.1,0.1-0.3,0-0.3-0.1C156.6,84.2,156.6,84,156.7,84
							C156.7,84,156.7,84,156.7,84z"/>
					</g>
				</g>
			</g>
			<g>
				<g>
					<g>
						<path class="st3" d="M173.9,115l2.3-3.9l-1.8,4.1c-0.1,0.1-0.2,0.2-0.3,0.1C173.9,115.3,173.9,115.2,173.9,115
							C173.9,115,173.9,115,173.9,115z"/>
					</g>
				</g>
				<g>
					<g>
						<path class="st3" d="M190.6,82.4l3.6-6.5l-3.2,6.7c-0.1,0.1-0.2,0.2-0.3,0.1C190.6,82.7,190.6,82.6,190.6,82.4
							C190.6,82.4,190.6,82.4,190.6,82.4z"/>
					</g>
				</g>
				<g>
					<g>
						<path class="st3" d="M176.7,109.7l1.1-1.6l-0.7,1.8c0,0.1-0.2,0.2-0.3,0.1C176.6,110,176.6,109.9,176.7,109.7
							C176.6,109.7,176.6,109.7,176.7,109.7z"/>
					</g>
				</g>
				<g>
					<g>
						<path class="st3" d="M187.6,88.3l1.1-1.6l-0.7,1.8c0,0.1-0.2,0.2-0.3,0.1C187.6,88.6,187.5,88.5,187.6,88.3
							C187.6,88.3,187.6,88.3,187.6,88.3z"/>
					</g>
				</g>
				<g>
					<g>
						<path class="st3" d="M189,85.5l1.1-1.6l-0.7,1.8c0,0.1-0.2,0.2-0.3,0.1C189,85.8,189,85.7,189,85.5
							C189,85.6,189,85.5,189,85.5z"/>
					</g>
				</g>
				<g>
					<g>
						<path class="st3" d="M178.2,106.8l9.2-17.5l-8.8,17.7c-0.1,0.1-0.2,0.2-0.3,0.1C178.1,107,178.1,106.9,178.2,106.8
							C178.2,106.8,178.2,106.8,178.2,106.8z"/>
					</g>
				</g>
			</g>
			<g>
				<g>
					<g>
						<path class="st3" d="M203.7,125l0.1-4.5l0.4,4.5c0,0.1-0.1,0.3-0.2,0.3C203.8,125.2,203.7,125.1,203.7,125
							C203.7,125,203.7,125,203.7,125z"/>
					</g>
				</g>
				<g>
					<g>
						<path class="st3" d="M202.8,88.4l0.1-7.4l0.4,7.4c0,0.1-0.1,0.3-0.2,0.3C202.9,88.6,202.8,88.5,202.8,88.4
							C202.8,88.4,202.8,88.4,202.8,88.4z"/>
					</g>
				</g>
				<g>
					<g>
						<path class="st3" d="M203.6,119l0.2-2l0.3,1.9c0,0.1-0.1,0.3-0.2,0.3C203.7,119.3,203.6,119.2,203.6,119
							C203.5,119,203.5,119,203.6,119z"/>
					</g>
				</g>
				<g>
					<g>
						<path class="st3" d="M203,95l0.2-2l0.3,1.9c0,0.1-0.1,0.3-0.2,0.3C203.1,95.2,203,95.1,203,95C203,95,203,95,203,95z"/>
					</g>
				</g>
				<g>
					<g>
						<path class="st3" d="M202.9,91.8l0.2-2l0.3,1.9c0,0.1-0.1,0.3-0.2,0.3C203,92.1,202.9,92,202.9,91.8
							C202.9,91.9,202.9,91.9,202.9,91.8z"/>
					</g>
				</g>
				<g>
					<g>
						<path class="st3" d="M203.5,115.7l-0.2-19.8l0.7,19.8c0,0.1-0.1,0.2-0.2,0.3C203.6,115.9,203.5,115.8,203.5,115.7
							C203.5,115.7,203.5,115.7,203.5,115.7z"/>
					</g>
				</g>
			</g>
			<g>
				<g>
					<g>
						<path class="st3" d="M164.9,91.5l1.6-1.2l-1.3,1.5c-0.1,0.1-0.2,0.1-0.3,0C164.8,91.8,164.8,91.7,164.9,91.5
							C164.9,91.5,164.9,91.5,164.9,91.5z"/>
					</g>
				</g>
				<g>
					<g>
						<path class="st3" d="M167.3,89.3l22.8-21.4l-22.5,21.8c-0.1,0.1-0.3,0.1-0.3,0C167.2,89.5,167.2,89.4,167.3,89.3
							C167.3,89.3,167.3,89.3,167.3,89.3z"/>
					</g>
				</g>
			</g>
			<g>
				<g>
					<g>
						<path class="st3" d="M176.7,96.8l1.3-1.5l-0.9,1.8c-0.1,0.1-0.2,0.2-0.3,0.1C176.7,97.1,176.6,97,176.7,96.8
							C176.7,96.8,176.7,96.8,176.7,96.8z"/>
					</g>
				</g>
				<g>
					<g>
						<path class="st3" d="M178.5,94l6.3-8.9l-5.9,9.2c-0.1,0.1-0.2,0.1-0.3,0.1C178.5,94.3,178.4,94.2,178.5,94
							C178.5,94,178.5,94,178.5,94z"/>
					</g>
				</g>
			</g>
			<g>
				<g>
					<g>
						<path class="st3" d="M194,108.5l7.1-28.1l-6.6,28.2c0,0.1-0.2,0.2-0.3,0.2C194.1,108.7,194,108.6,194,108.5
							C194,108.5,194,108.5,194,108.5z"/>
					</g>
				</g>
			</g>
			<g>
				<g>
					<g>
						<path class="st3" d="M185.8,107.1l1-1.7l-0.5,1.9c0,0.1-0.2,0.2-0.3,0.2C185.8,107.4,185.7,107.3,185.8,107.1
							C185.7,107.1,185.7,107.1,185.8,107.1z"/>
					</g>
				</g>
				<g>
					<g>
						<path class="st3" d="M187,104.1l10.3-25.3l-9.9,25.4c0,0.1-0.2,0.2-0.3,0.1C187,104.3,187,104.2,187,104.1
							C187,104.1,187,104.1,187,104.1z"/>
					</g>
				</g>
			</g>
			<g>
				<g>
					<g>
						<path class="st3" d="M166.4,69l1.9-0.3l-1.8,0.8c-0.1,0.1-0.3,0-0.3-0.1C166.2,69.2,166.3,69.1,166.4,69
							C166.4,69,166.4,69,166.4,69z"/>
					</g>
				</g>
				<g>
					<g>
						<path class="st3" d="M169.6,68.1l13.8-3.7l-13.6,4.2c-0.1,0-0.3,0-0.3-0.2C169.4,68.2,169.5,68.1,169.6,68.1
							C169.6,68.1,169.6,68.1,169.6,68.1z"/>
					</g>
				</g>
			</g>
			<path class="st3" d="M163.1,90.7c0-0.5-0.4-0.9-0.9-0.9c-0.5,0-0.9,0.4-0.9,0.9c0,0.5,0.4,0.9,0.9,0.9
				C162.7,91.6,163.1,91.2,163.1,90.7z"/>
			<path class="st3" d="M194.3,111.1c0-0.5-0.4-0.9-0.9-0.9c-0.5,0-0.9,0.4-0.9,0.9c0,0.5,0.4,0.9,0.9,0.9
				C193.9,112,194.3,111.6,194.3,111.1z"/>
			<path class="st3" d="M162,94.9c0-0.3-0.3-0.6-0.6-0.6c-0.3,0-0.6,0.3-0.6,0.6c0,0.3,0.3,0.6,0.6,0.6
				C161.8,95.5,162,95.3,162,94.9z"/>
			<path class="st3" d="M193.1,114.5c0-0.3-0.3-0.6-0.6-0.6c-0.3,0-0.6,0.3-0.6,0.6c0,0.3,0.3,0.6,0.6,0.6
				C192.9,115.1,193.1,114.9,193.1,114.5z"/>
			<path class="st3" d="M163.7,70.4c0-0.3-0.3-0.6-0.6-0.6c-0.3,0-0.6,0.3-0.6,0.6c0,0.3,0.3,0.6,0.6,0.6
				C163.4,71,163.7,70.7,163.7,70.4z"/>
			<path class="st3" d="M175.5,91.7c0-0.3-0.3-0.6-0.6-0.6c-0.3,0-0.6,0.3-0.6,0.6c0,0.3,0.3,0.6,0.6,0.6
				C175.2,92.3,175.5,92,175.5,91.7z"/>
			<g>
				<g>
					<path class="st3" d="M176.6,88.1l6.4-6.6l-6,7c-0.1,0.1-0.2,0.1-0.3,0C176.5,88.4,176.5,88.2,176.6,88.1
						C176.6,88.1,176.6,88.1,176.6,88.1z"/>
				</g>
			</g>
		</g>
	</g>
	<g>
		<g>
			<path class="st4" d="M69.8,113.5l1.5-19.1l1.5,19.1c0.1,0.8-0.6,1.6-1.4,1.6c-0.8,0.1-1.6-0.6-1.6-1.4
				C69.8,113.6,69.8,113.5,69.8,113.5z"/>
		</g>
		<g>
			<g>
				<path class="st4" d="M72.9,7.5l-1.5,19.1L69.8,7.5c-0.1-0.8,0.6-1.6,1.4-1.6c0.8-0.1,1.6,0.6,1.6,1.4
					C72.9,7.3,72.9,7.4,72.9,7.5z"/>
			</g>
		</g>
		<g>
			<g>
				<path class="st4" d="M18.3,58.9l19.1,1.5L18.3,62c-0.8,0.1-1.6-0.6-1.6-1.4c-0.1-0.8,0.6-1.6,1.4-1.6
					C18.2,58.9,18.3,58.9,18.3,58.9z"/>
			</g>
		</g>
		<g>
			<g>
				<path class="st4" d="M124.3,62l-19.1-1.5l19.1-1.5c0.8-0.1,1.6,0.6,1.6,1.4c0.1,0.8-0.6,1.6-1.4,1.6C124.5,62,124.4,62,124.3,62
					z"/>
			</g>
		</g>
		<g>
			<g>
				<path class="st4" d="M32.8,96.9l14.6-12.4L35,99c-0.5,0.6-1.5,0.7-2.2,0.2c-0.6-0.5-0.7-1.5-0.2-2.2
					C32.7,97,32.7,96.9,32.8,96.9z"/>
			</g>
		</g>
		<g>
			<g>
				<path class="st4" d="M109.9,24.1L95.3,36.5l12.4-14.6c0.5-0.6,1.5-0.7,2.2-0.2c0.6,0.5,0.7,1.5,0.2,2.2
					C110,24,110,24,109.9,24.1z"/>
			</g>
		</g>
		<g>
			<g>
				<path class="st4" d="M35,21.9l12.4,14.6L32.8,24.1c-0.6-0.5-0.7-1.5-0.2-2.2c0.5-0.6,1.5-0.7,2.2-0.2
					C34.8,21.8,34.9,21.8,35,21.9z"/>
			</g>
		</g>
		<g>
			<g>
				<path class="st4" d="M107.7,99L95.3,84.5l14.6,12.4c0.6,0.5,0.7,1.5,0.2,2.2c-0.5,0.6-1.5,0.7-2.2,0.2
					C107.9,99.1,107.8,99.1,107.7,99z"/>
			</g>
		</g>
		<g>
			<g>
				<path class="st4" d="M49.9,109l8.6-17.1l-5.8,18.2c-0.3,0.8-1.1,1.3-1.9,1c-0.8-0.3-1.3-1.1-1-1.9C49.9,109.1,49.9,109,49.9,109
					z"/>
			</g>
		</g>
		<g>
			<g>
				<path class="st4" d="M92.8,12L84.2,29l5.8-18.2c0.3-0.8,1.1-1.3,1.9-1c0.8,0.3,1.3,1.1,1,1.9C92.8,11.8,92.8,11.9,92.8,12z"/>
			</g>
		</g>
		<g>
			<g>
				<path class="st4" d="M22.8,39l17.1,8.6l-18.2-5.8c-0.8-0.3-1.3-1.1-1-1.9c0.3-0.8,1.1-1.3,1.9-1C22.7,39,22.8,39,22.8,39z"/>
			</g>
		</g>
		<g>
			<g>
				<path class="st4" d="M119.9,81.9l-17.1-8.6l18.2,5.8c0.8,0.3,1.3,1.1,1,1.9c-0.3,0.8-1.1,1.3-1.9,1
					C120,81.9,119.9,81.9,119.9,81.9z"/>
			</g>
		</g>
		<g>
			<g>
				<path class="st4" d="M21.9,79.6l18.2-6l-17,8.8c-0.8,0.4-1.7,0.1-2.1-0.7c-0.4-0.8-0.1-1.7,0.7-2.1
					C21.8,79.7,21.8,79.6,21.9,79.6z"/>
			</g>
		</g>
		<g>
			<g>
				<path class="st4" d="M120.8,41.3l-18.2,6l17-8.8c0.8-0.4,1.7-0.1,2.1,0.7c0.4,0.8,0.1,1.7-0.7,2.1
					C120.9,41.3,120.9,41.3,120.8,41.3z"/>
			</g>
		</g>
		<g>
			<g>
				<path class="st4" d="M52.2,11l6,18.2l-8.8-17c-0.4-0.8-0.1-1.7,0.7-2.1c0.8-0.4,1.7-0.1,2.1,0.7C52.1,10.9,52.2,10.9,52.2,11z"
					/>
			</g>
		</g>
		<g>
			<g>
				<path class="st4" d="M90.5,109.9l-6-18.2l8.8,17c0.4,0.8,0.1,1.7-0.7,2.1c-0.8,0.4-1.7,0.1-2.1-0.7
					C90.6,110.1,90.5,110,90.5,109.9z"/>
			</g>
		</g>
		<g>
			<g>
				<path class="st4" d="M59.2,112.1l5.3-18.4l-2.3,19c-0.1,0.8-0.9,1.4-1.7,1.3c-0.8-0.1-1.4-0.9-1.3-1.7
					C59.1,112.2,59.2,112.1,59.2,112.1z"/>
			</g>
		</g>
		<g>
			<g>
				<path class="st4" d="M83.5,8.9l-5.3,18.4l2.3-19c0.1-0.8,0.9-1.4,1.7-1.3c0.8,0.1,1.4,0.9,1.3,1.7C83.6,8.7,83.5,8.8,83.5,8.9z"
					/>
			</g>
		</g>
		<g>
			<g>
				<path class="st4" d="M19.7,48.3l18.4,5.3l-19-2.3c-0.8-0.1-1.4-0.9-1.3-1.7c0.1-0.8,0.9-1.4,1.7-1.3
					C19.6,48.3,19.7,48.3,19.7,48.3z"/>
			</g>
		</g>
		<g>
			<g>
				<path class="st4" d="M123,72.6l-18.4-5.3l19,2.3c0.8,0.1,1.4,0.9,1.3,1.7c-0.1,0.8-0.9,1.4-1.7,1.3
					C123.1,72.7,123,72.6,123,72.6z"/>
			</g>
		</g>
		<g>
			<g>
				<path class="st4" d="M26.3,88.4L43,79.1L27.9,90.9c-0.7,0.5-1.6,0.4-2.1-0.3c-0.5-0.7-0.4-1.6,0.3-2.1
					C26.1,88.4,26.2,88.4,26.3,88.4z"/>
			</g>
		</g>
		<g>
			<g>
				<path class="st4" d="M116.4,32.6l-16.8,9.2L114.8,30c0.7-0.5,1.6-0.4,2.1,0.3c0.5,0.7,0.4,1.6-0.3,2.1
					C116.6,32.5,116.5,32.5,116.4,32.6z"/>
			</g>
		</g>
		<g>
			<g>
				<path class="st4" d="M43.5,15.4l9.2,16.8L40.9,17c-0.5-0.7-0.4-1.6,0.3-2.1c0.7-0.5,1.6-0.4,2.1,0.3
					C43.4,15.2,43.4,15.3,43.5,15.4z"/>
			</g>
		</g>
		<g>
			<g>
				<path class="st4" d="M99.2,105.6L90,88.8l11.8,15.1c0.5,0.7,0.4,1.6-0.3,2.1c-0.7,0.5-1.6,0.4-2.1-0.3
					C99.3,105.7,99.3,105.6,99.2,105.6z"/>
			</g>
		</g>
		<g>
			<g>
				<path class="st4" d="M40.6,103.7l11.9-15l-9.3,16.7c-0.4,0.7-1.3,1-2.1,0.6c-0.7-0.4-1-1.3-0.6-2.1
					C40.5,103.8,40.6,103.7,40.6,103.7z"/>
			</g>
		</g>
		<g>
			<g>
				<path class="st4" d="M102.1,17.3l-11.9,15l9.3-16.7c0.4-0.7,1.3-1,2.1-0.6c0.7,0.4,1,1.3,0.6,2.1
					C102.2,17.1,102.1,17.2,102.1,17.3z"/>
			</g>
		</g>
		<g>
			<g>
				<path class="st4" d="M28.2,29.7l15,11.9l-16.7-9.3c-0.7-0.4-1-1.3-0.6-2.1c0.4-0.7,1.3-1,2.1-0.6C28,29.6,28.1,29.7,28.2,29.7z"
					/>
			</g>
		</g>
		<g>
			<g>
				<path class="st4" d="M114.5,91.2l-15-11.9l16.7,9.3c0.7,0.4,1,1.3,0.6,2.1c-0.4,0.7-1.3,1-2.1,0.6
					C114.7,91.3,114.6,91.3,114.5,91.2z"/>
			</g>
		</g>
		<g>
			<g>
				<path class="st4" d="M19.1,69.3l19-2.2l-18.4,5.2c-0.8,0.2-1.7-0.2-1.9-1.1c-0.2-0.8,0.2-1.7,1.1-1.9
					C18.9,69.3,19,69.3,19.1,69.3z"/>
			</g>
		</g>
		<g>
			<g>
				<path class="st4" d="M123.6,51.7l-19,2.2l18.4-5.2c0.8-0.2,1.7,0.2,1.9,1.1c0.2,0.8-0.2,1.7-1.1,1.9
					C123.8,51.6,123.7,51.6,123.6,51.7z"/>
			</g>
		</g>
		<g>
			<g>
				<path class="st4" d="M62.5,8.2l2.2,19L59.6,8.8c-0.2-0.8,0.2-1.7,1.1-1.9c0.8-0.2,1.7,0.2,1.9,1.1C62.5,8,62.5,8.1,62.5,8.2z"/>
			</g>
		</g>
		<g>
			<g>
				<path class="st4" d="M80.2,112.7l-2.2-19l5.2,18.4c0.2,0.8-0.2,1.7-1.1,1.9c-0.8,0.2-1.7-0.2-1.9-1.1
					C80.2,112.9,80.2,112.8,80.2,112.7z"/>
			</g>
		</g>
		<g>
			<path class="st4" d="M70.4,91.9l0.9-11.3l0.9,11.3c0,0.5-0.3,0.9-0.8,1c-0.5,0-0.9-0.3-1-0.8C70.4,92,70.4,91.9,70.4,91.9z"/>
		</g>
		<g>
			<g>
				<path class="st4" d="M72.3,29l-0.9,11.3L70.4,29c0-0.5,0.3-0.9,0.8-1c0.5,0,0.9,0.3,1,0.8C72.3,28.9,72.3,29,72.3,29z"/>
			</g>
		</g>
		<g>
			<g>
				<path class="st4" d="M39.9,59.6l11.3,0.9l-11.3,0.9c-0.5,0-0.9-0.3-1-0.8c0-0.5,0.3-0.9,0.8-1C39.8,59.6,39.9,59.6,39.9,59.6z"
					/>
			</g>
		</g>
		<g>
			<g>
				<path class="st4" d="M102.8,61.4l-11.3-0.9l11.3-0.9c0.5,0,0.9,0.3,1,0.8c0,0.5-0.3,0.9-0.8,1C102.9,61.4,102.8,61.4,102.8,61.4
					z"/>
			</g>
		</g>
		<g>
			<g>
				<path class="st4" d="M48.5,82l8.6-7.4l-7.4,8.6c-0.3,0.4-0.9,0.4-1.3,0.1c-0.4-0.3-0.4-0.9-0.1-1.3C48.4,82.1,48.5,82.1,48.5,82
					z"/>
			</g>
		</g>
		<g>
			<g>
				<path class="st4" d="M94.2,38.9l-8.6,7.4l7.4-8.6c0.3-0.4,0.9-0.4,1.3-0.1c0.4,0.3,0.4,0.9,0.1,1.3
					C94.3,38.8,94.2,38.8,94.2,38.9z"/>
			</g>
		</g>
		<g>
			<g>
				<path class="st4" d="M49.8,37.6l7.4,8.6l-8.6-7.4c-0.4-0.3-0.4-0.9-0.1-1.3c0.3-0.4,0.9-0.4,1.3-0.1
					C49.7,37.5,49.7,37.6,49.8,37.6z"/>
			</g>
		</g>
		<g>
			<g>
				<path class="st4" d="M92.9,83.3l-7.4-8.6l8.6,7.4c0.4,0.3,0.4,0.9,0.1,1.3c-0.3,0.4-0.9,0.4-1.3,0.1C93,83.4,93,83.4,92.9,83.3z
					"/>
			</g>
		</g>
		<g>
			<g>
				<path class="st4" d="M58.6,89.2l5.1-10.1l-3.4,10.8c-0.2,0.5-0.7,0.7-1.1,0.6s-0.7-0.7-0.6-1.1C58.6,89.3,58.6,89.3,58.6,89.2z"
					/>
			</g>
		</g>
		<g>
			<g>
				<path class="st4" d="M84,31.7l-5.1,10.1L82.4,31c0.2-0.5,0.7-0.7,1.1-0.6c0.5,0.2,0.7,0.7,0.6,1.1C84.1,31.6,84.1,31.7,84,31.7z
					"/>
			</g>
		</g>
		<g>
			<g>
				<path class="st4" d="M42.6,47.8l10.1,5.1l-10.8-3.4c-0.5-0.2-0.7-0.7-0.6-1.1c0.2-0.5,0.7-0.7,1.1-0.6
					C42.5,47.7,42.5,47.7,42.6,47.8z"/>
			</g>
		</g>
		<g>
			<g>
				<path class="st4" d="M100.1,73.2L90,68.1l10.8,3.4c0.5,0.2,0.7,0.7,0.6,1.1c-0.2,0.5-0.7,0.7-1.1,0.6
					C100.2,73.2,100.1,73.2,100.1,73.2z"/>
			</g>
		</g>
		<g>
			<g>
				<path class="st4" d="M42,71.8l10.8-3.6l-10.1,5.2c-0.4,0.2-1,0.1-1.2-0.4c-0.2-0.4-0.1-1,0.4-1.2C41.9,71.8,42,71.8,42,71.8z"/>
			</g>
		</g>
		<g>
			<g>
				<path class="st4" d="M100.7,49.1l-10.8,3.6l10.1-5.2c0.4-0.2,1-0.1,1.2,0.4c0.2,0.4,0.1,1-0.4,1.2
					C100.8,49.1,100.7,49.1,100.7,49.1z"/>
			</g>
		</g>
		<g>
			<g>
				<path class="st4" d="M60,31.1l3.6,10.8l-5.2-10.1c-0.2-0.4-0.1-1,0.4-1.2c0.4-0.2,1-0.1,1.2,0.4C60,31.1,60,31.1,60,31.1z"/>
			</g>
		</g>
		<g>
			<g>
				<path class="st4" d="M82.7,89.8L79.2,79l5.2,10.1c0.2,0.4,0.1,1-0.4,1.2c-0.4,0.2-1,0.1-1.2-0.4C82.7,89.9,82.7,89.8,82.7,89.8z
					"/>
			</g>
		</g>
		<g>
			<g>
				<path class="st4" d="M64.1,91.1l3.2-10.9l-1.4,11.3c-0.1,0.5-0.5,0.9-1,0.8c-0.5-0.1-0.9-0.5-0.8-1
					C64.1,91.2,64.1,91.1,64.1,91.1z"/>
			</g>
		</g>
		<g>
			<g>
				<path class="st4" d="M78.6,29.9l-3.2,10.9l1.4-11.3c0.1-0.5,0.5-0.9,1-0.8c0.5,0.1,0.9,0.5,0.8,1C78.6,29.8,78.6,29.8,78.6,29.9
					z"/>
			</g>
		</g>
		<g>
			<g>
				<path class="st4" d="M40.8,53.2l10.9,3.2L40.4,55c-0.5-0.1-0.9-0.5-0.8-1c0.1-0.5,0.5-0.9,1-0.8C40.7,53.2,40.7,53.2,40.8,53.2z
					"/>
			</g>
		</g>
		<g>
			<g>
				<path class="st4" d="M101.9,67.7l-10.9-3.2l11.3,1.4c0.5,0.1,0.9,0.5,0.8,1c-0.1,0.5-0.5,0.9-1,0.8
					C102,67.7,102,67.7,101.9,67.7z"/>
			</g>
		</g>
		<g>
			<g>
				<path class="st4" d="M44.6,77l9.9-5.5l-8.9,7c-0.4,0.3-1,0.2-1.3-0.2c-0.3-0.4-0.2-1,0.2-1.3C44.5,77,44.6,77,44.6,77z"/>
			</g>
		</g>
		<g>
			<g>
				<path class="st4" d="M98.1,43.9l-9.9,5.5l8.9-7c0.4-0.3,1-0.2,1.3,0.2c0.3,0.4,0.2,1-0.2,1.3C98.2,43.9,98.1,43.9,98.1,43.9z"/>
			</g>
		</g>
		<g>
			<g>
				<path class="st4" d="M54.8,33.7l5.5,9.9l-7-8.9c-0.3-0.4-0.2-1,0.2-1.3c0.4-0.3,1-0.2,1.3,0.2C54.8,33.6,54.8,33.7,54.8,33.7z"
					/>
			</g>
		</g>
		<g>
			<g>
				<path class="st4" d="M87.9,87.2l-5.5-9.9l7,8.9c0.3,0.4,0.2,1-0.2,1.3c-0.4,0.3-1,0.2-1.3-0.2C87.9,87.3,87.9,87.2,87.9,87.2z"
					/>
			</g>
		</g>
		<g>
			<g>
				<path class="st4" d="M53.1,86.1l7-8.9l-5.5,9.9c-0.2,0.4-0.8,0.6-1.2,0.3c-0.4-0.2-0.6-0.8-0.3-1.2
					C53.1,86.2,53.1,86.1,53.1,86.1z"/>
			</g>
		</g>
		<g>
			<g>
				<path class="st4" d="M89.6,34.8l-7,8.9l5.5-9.9c0.2-0.4,0.8-0.6,1.2-0.3s0.6,0.8,0.3,1.2C89.6,34.8,89.6,34.8,89.6,34.8z"/>
			</g>
		</g>
		<g>
			<g>
				<path class="st4" d="M45.7,42.2l8.9,7l-9.9-5.5c-0.4-0.2-0.6-0.8-0.3-1.2c0.2-0.4,0.8-0.6,1.2-0.3
					C45.7,42.2,45.7,42.2,45.7,42.2z"/>
			</g>
		</g>
		<g>
			<g>
				<path class="st4" d="M97,78.7l-8.9-7l9.9,5.5c0.4,0.2,0.6,0.8,0.3,1.2c-0.2,0.4-0.8,0.6-1.2,0.3C97,78.7,97,78.7,97,78.7z"/>
			</g>
		</g>
		<g>
			<g>
				<path class="st4" d="M40.3,65.7l11.3-1.3l-10.9,3.1c-0.5,0.1-1-0.1-1.1-0.6c-0.1-0.5,0.1-1,0.6-1.1
					C40.3,65.7,40.3,65.7,40.3,65.7z"/>
			</g>
		</g>
		<g>
			<g>
				<path class="st4" d="M102.3,55.2l-11.3,1.3l10.9-3.1c0.5-0.1,1,0.1,1.1,0.6c0.1,0.5-0.1,1-0.6,1.1
					C102.4,55.2,102.4,55.2,102.3,55.2z"/>
			</g>
		</g>
		<g>
			<g>
				<path class="st4" d="M66.1,29.5l1.3,11.3l-3.1-10.9c-0.1-0.5,0.1-1,0.6-1.1c0.5-0.1,1,0.1,1.1,0.6
					C66.1,29.4,66.1,29.4,66.1,29.5z"/>
			</g>
		</g>
		<g>
			<g>
				<path class="st4" d="M76.6,91.5l-1.3-11.3l3.1,10.9c0.1,0.5-0.1,1-0.6,1.1c-0.5,0.1-1-0.1-1.1-0.6
					C76.6,91.6,76.6,91.5,76.6,91.5z"/>
			</g>
		</g>
		<g>
			<path class="st4" d="M70.9,77.5l0.5-6.1l0.5,6.1c0,0.3-0.2,0.5-0.5,0.5C71.1,78.1,70.9,77.9,70.9,77.5
				C70.9,77.6,70.9,77.6,70.9,77.5z"/>
		</g>
		<g>
			<g>
				<path class="st4" d="M71.8,43.4l-0.5,6.1l-0.5-6.1c0-0.3,0.2-0.5,0.5-0.5C71.6,42.8,71.8,43,71.8,43.4
					C71.8,43.3,71.8,43.4,71.8,43.4z"/>
			</g>
		</g>
		<g>
			<g>
				<path class="st4" d="M54.3,60l6.1,0.5L54.3,61c-0.3,0-0.5-0.2-0.5-0.5C53.7,60.2,53.9,60,54.3,60C54.2,60,54.2,60,54.3,60z"/>
			</g>
		</g>
		<g>
			<g>
				<path class="st4" d="M88.4,61l-6.1-0.5l6.1-0.5c0.3,0,0.5,0.2,0.5,0.5C89,60.7,88.8,60.9,88.4,61C88.5,61,88.5,61,88.4,61z"/>
			</g>
		</g>
		<g>
			<g>
				<path class="st4" d="M58.9,72.2l4.7-4l-4,4.7c-0.2,0.2-0.5,0.2-0.7,0.1C58.7,72.8,58.7,72.5,58.9,72.2
					C58.9,72.2,58.9,72.2,58.9,72.2z"/>
			</g>
		</g>
		<g>
			<g>
				<path class="st4" d="M83.8,48.7l-4.7,4l4-4.7c0.2-0.2,0.5-0.2,0.7-0.1C84,48.2,84,48.5,83.8,48.7C83.8,48.7,83.8,48.7,83.8,48.7
					z"/>
			</g>
		</g>
		<g>
			<g>
				<path class="st4" d="M59.6,48l4,4.7l-4.7-4c-0.2-0.2-0.2-0.5-0.1-0.7C59,47.8,59.4,47.8,59.6,48C59.6,48,59.6,48,59.6,48z"/>
			</g>
		</g>
		<g>
			<g>
				<path class="st4" d="M83.1,72.9l-4-4.7l4.7,4c0.2,0.2,0.2,0.5,0.1,0.7C83.7,73.1,83.3,73.1,83.1,72.9
					C83.1,72.9,83.1,72.9,83.1,72.9z"/>
			</g>
		</g>
		<g>
			<g>
				<path class="st4" d="M64.4,76.1l2.8-5.5l-1.9,5.9c-0.1,0.3-0.4,0.4-0.6,0.3C64.5,76.7,64.3,76.4,64.4,76.1
					C64.4,76.1,64.4,76.1,64.4,76.1z"/>
			</g>
		</g>
		<g>
			<g>
				<path class="st4" d="M78.3,44.8l-2.8,5.5l1.9-5.9c0.1-0.3,0.4-0.4,0.6-0.3C78.2,44.2,78.4,44.5,78.3,44.8
					C78.3,44.8,78.3,44.8,78.3,44.8z"/>
			</g>
		</g>
		<g>
			<g>
				<path class="st4" d="M55.7,53.6l5.5,2.8l-5.9-1.9c-0.3-0.1-0.4-0.4-0.3-0.6C55.1,53.6,55.4,53.4,55.7,53.6
					C55.7,53.5,55.7,53.5,55.7,53.6z"/>
			</g>
		</g>
		<g>
			<g>
				<path class="st4" d="M87,67.4l-5.5-2.8l5.9,1.9c0.3,0.1,0.4,0.4,0.3,0.6C87.6,67.3,87.3,67.5,87,67.4C87,67.4,87,67.4,87,67.4z"
					/>
			</g>
		</g>
		<g>
			<g>
				<path class="st4" d="M55.4,66.6l5.9-1.9l-5.5,2.8c-0.2,0.1-0.5,0-0.7-0.2C55,67.1,55.1,66.8,55.4,66.6
					C55.4,66.7,55.4,66.6,55.4,66.6z"/>
			</g>
		</g>
		<g>
			<g>
				<path class="st4" d="M87.3,54.3l-5.9,1.9l5.5-2.8c0.2-0.1,0.5,0,0.7,0.2C87.7,53.8,87.6,54.1,87.3,54.3
					C87.3,54.3,87.3,54.3,87.3,54.3z"/>
			</g>
		</g>
		<g>
			<g>
				<path class="st4" d="M65.2,44.5l1.9,5.9l-2.8-5.5c-0.1-0.2,0-0.5,0.2-0.7C64.7,44.1,65,44.2,65.2,44.5
					C65.2,44.5,65.2,44.5,65.2,44.5z"/>
			</g>
		</g>
		<g>
			<g>
				<path class="st4" d="M77.5,76.4l-1.9-5.9l2.8,5.5c0.1,0.2,0,0.5-0.2,0.7C78,76.8,77.7,76.7,77.5,76.4
					C77.5,76.4,77.5,76.4,77.5,76.4z"/>
			</g>
		</g>
		<g>
			<g>
				<path class="st4" d="M67.4,77.1l1.7-5.9l-0.8,6.1c0,0.3-0.3,0.5-0.5,0.4C67.6,77.7,67.4,77.4,67.4,77.1
					C67.4,77.1,67.4,77.1,67.4,77.1z"/>
			</g>
		</g>
		<g>
			<g>
				<path class="st4" d="M75.3,43.8l-1.7,5.9l0.8-6.1c0-0.3,0.3-0.5,0.5-0.4C75.1,43.2,75.3,43.5,75.3,43.8
					C75.3,43.8,75.3,43.8,75.3,43.8z"/>
			</g>
		</g>
		<g>
			<g>
				<path class="st4" d="M54.7,56.5l5.9,1.7l-6.1-0.8c-0.3,0-0.5-0.3-0.4-0.5C54.1,56.7,54.4,56.5,54.7,56.5
					C54.7,56.5,54.7,56.5,54.7,56.5z"/>
			</g>
		</g>
		<g>
			<g>
				<path class="st4" d="M88,64.4l-5.9-1.7l6.1,0.8c0.3,0,0.5,0.3,0.4,0.5C88.6,64.2,88.3,64.4,88,64.4C88,64.4,88,64.4,88,64.4z"/>
			</g>
		</g>
		<g>
			<g>
				<path class="st4" d="M56.8,69.4l5.4-3l-4.9,3.8c-0.2,0.2-0.5,0.1-0.7-0.1C56.5,70,56.5,69.7,56.8,69.4
					C56.8,69.5,56.8,69.5,56.8,69.4z"/>
			</g>
		</g>
		<g>
			<g>
				<path class="st4" d="M85.9,51.5l-5.4,3l4.9-3.8c0.2-0.2,0.5-0.1,0.7,0.1C86.2,51,86.2,51.3,85.9,51.5
					C85.9,51.4,85.9,51.5,85.9,51.5z"/>
			</g>
		</g>
		<g>
			<g>
				<path class="st4" d="M62.4,45.9l3,5.4l-3.8-4.9c-0.2-0.2-0.1-0.5,0.1-0.7C61.8,45.6,62.1,45.6,62.4,45.9
					C62.3,45.9,62.3,45.9,62.4,45.9z"/>
			</g>
		</g>
		<g>
			<g>
				<path class="st4" d="M80.3,75l-3-5.4l3.8,4.9c0.2,0.2,0.1,0.5-0.1,0.7C80.9,75.3,80.5,75.3,80.3,75C80.4,75,80.4,75,80.3,75z"/>
			</g>
		</g>
		<g>
			<g>
				<path class="st4" d="M61.4,74.4l3.8-4.8l-3,5.4c-0.1,0.2-0.4,0.3-0.7,0.2C61.3,75,61.3,74.7,61.4,74.4
					C61.4,74.4,61.4,74.4,61.4,74.4z"/>
			</g>
		</g>
		<g>
			<g>
				<path class="st4" d="M81.3,46.5l-3.8,4.8l3-5.4c0.1-0.2,0.4-0.3,0.7-0.2C81.3,45.9,81.4,46.2,81.3,46.5
					C81.3,46.5,81.3,46.5,81.3,46.5z"/>
			</g>
		</g>
		<g>
			<g>
				<path class="st4" d="M57.4,50.6l4.8,3.8l-5.4-3c-0.2-0.1-0.3-0.4-0.2-0.7C56.8,50.5,57.1,50.4,57.4,50.6
					C57.4,50.5,57.4,50.5,57.4,50.6z"/>
			</g>
		</g>
		<g>
			<g>
				<path class="st4" d="M85.3,70.4l-4.8-3.8l5.4,3c0.2,0.1,0.3,0.4,0.2,0.7C85.9,70.5,85.6,70.5,85.3,70.4
					C85.3,70.4,85.3,70.4,85.3,70.4z"/>
			</g>
		</g>
		<g>
			<g>
				<path class="st4" d="M54.5,63.3l6.1-0.7l-5.9,1.7c-0.3,0.1-0.5-0.1-0.6-0.3C54,63.7,54.2,63.4,54.5,63.3
					C54.4,63.3,54.5,63.3,54.5,63.3z"/>
			</g>
		</g>
		<g>
			<g>
				<path class="st4" d="M88.2,57.6l-6.1,0.7l5.9-1.7c0.3-0.1,0.5,0.1,0.6,0.3C88.7,57.3,88.5,57.5,88.2,57.6
					C88.3,57.6,88.2,57.6,88.2,57.6z"/>
			</g>
		</g>
		<g>
			<g>
				<path class="st4" d="M68.5,43.6l0.7,6.1l-1.7-5.9c-0.1-0.3,0.1-0.5,0.3-0.6C68.1,43.1,68.4,43.3,68.5,43.6
					C68.5,43.6,68.5,43.6,68.5,43.6z"/>
			</g>
		</g>
		<g>
			<g>
				<path class="st4" d="M74.2,77.3l-0.7-6.1l1.7,5.9c0.1,0.3-0.1,0.5-0.3,0.6C74.5,77.8,74.3,77.7,74.2,77.3
					C74.2,77.4,74.2,77.3,74.2,77.3z"/>
			</g>
		</g>
	</g>
</g>
<g id="Layer_6">
</g>
<g id="Original_Central_Comms_Logo" class="st5">
	
		<image style="display:inline;overflow:visible;" width="394" height="87" xlink:href="80F4E209.jpg"  transform="matrix(1 0 0 1 61 148)">
	</image>
</g>
<g id="Central_Comms_text_PATHS">
	<g>
		<path class="st6" d="M154.3,60.8c0-0.7,0.2-1.3,0.5-1.9s0.8-1.1,1.3-1.5c0.6-0.4,1.2-0.8,2-1s1.6-0.4,2.4-0.4h23.7
			c0.9,0,1.7,0.1,2.4,0.4s1.4,0.6,2,1c0.6,0.4,1,0.9,1.3,1.5s0.5,1.2,0.5,1.9v4.3h-6.2v-4.3h-23.7v24h23.7v-4.3h6.2v4.3
			c0,0.7-0.2,1.3-0.5,1.9s-0.8,1.1-1.3,1.5c-0.6,0.4-1.2,0.8-2,1s-1.6,0.4-2.4,0.4h-23.7c-0.9,0-1.7-0.1-2.4-0.4s-1.4-0.6-2-1
			c-0.6-0.4-1-0.9-1.3-1.5s-0.5-1.2-0.5-1.9V60.8z"/>
		<path class="st6" d="M200.5,56h31.8v4.8h-25.6v9.6h21.8v4.8h-21.8v9.6h25.6v4.8h-31.8V56z"/>
		<path class="st6" d="M247.9,89.6h-6.2V56h6.2L274.1,82V56h6.2v33.6h-6.2l-26.2-26.1V89.6z"/>
		<path class="st6" d="M287.8,56h34.9v4.8h-14.3v28.8h-6.2V60.8h-14.3V56z"/>
		<path class="st6" d="M364.8,68c0,4.7-2.6,7.4-7.8,8l8.2,13.6h-6.9l-8.1-13.4h-13.7v13.4h-6.2V56h23.9c7.1,0,10.6,2.7,10.6,8.2V68z
			 M336.5,71.3h17.3c1.7,0,2.9-0.3,3.6-0.8c0.7-0.6,1.1-1.5,1.1-2.8v-3.4c0-1.3-0.4-2.2-1.1-2.8c-0.7-0.6-1.9-0.8-3.6-0.8h-17.3
			V71.3z"/>
		<path class="st6" d="M394.5,56l16.8,33.6h-6.2l-3.9-7.7h-19.7l-3.9,7.7h-6.2L388.3,56H394.5z M383.9,77h14.9l-7.4-14.8L383.9,77z"
			/>
		<path class="st6" d="M425.1,56v28.8h22.4v4.8h-28.7V56H425.1z"/>
	</g>
	<g>
		<path class="st6" d="M154.7,102c0-0.3,0.1-0.6,0.2-0.9c0.2-0.3,0.4-0.5,0.6-0.8c0.3-0.2,0.6-0.4,0.9-0.5s0.7-0.2,1.1-0.2h11.2
			c0.4,0,0.8,0.1,1.1,0.2c0.4,0.1,0.7,0.3,0.9,0.5c0.3,0.2,0.5,0.5,0.6,0.8c0.2,0.3,0.2,0.6,0.2,0.9v2.2h-3V102h-11.2v12h11.2v-2.2
			h3v2.2c0,0.3-0.1,0.6-0.2,0.9c-0.2,0.3-0.4,0.5-0.6,0.8c-0.3,0.2-0.6,0.4-0.9,0.5c-0.4,0.1-0.7,0.2-1.1,0.2h-11.2
			c-0.4,0-0.8-0.1-1.1-0.2s-0.7-0.3-0.9-0.5c-0.3-0.2-0.5-0.5-0.6-0.8c-0.2-0.3-0.2-0.6-0.2-0.9V102z"/>
		<path class="st6" d="M194.4,114c0,0.3-0.1,0.6-0.2,0.9c-0.2,0.3-0.4,0.5-0.6,0.8c-0.3,0.2-0.6,0.4-0.9,0.5
			c-0.4,0.1-0.7,0.2-1.1,0.2h-11.8c-0.4,0-0.8-0.1-1.1-0.2s-0.7-0.3-0.9-0.5c-0.3-0.2-0.5-0.5-0.6-0.8c-0.2-0.3-0.2-0.6-0.2-0.9v-12
			c0-0.3,0.1-0.6,0.2-0.9c0.2-0.3,0.4-0.5,0.6-0.8c0.3-0.2,0.6-0.4,0.9-0.5s0.7-0.2,1.1-0.2h11.8c0.4,0,0.8,0.1,1.1,0.2
			c0.4,0.1,0.7,0.3,0.9,0.5c0.3,0.2,0.5,0.5,0.6,0.8c0.2,0.3,0.2,0.6,0.2,0.9V114z M179.6,102v12h11.8v-12H179.6z"/>
		<path class="st6" d="M210.4,116.4l-7.7-12.3v12.3h-3V99.6h3.2l7.9,12.7l7.9-12.7h3.2v16.8H219v-12.3l-7.7,12.3H210.4z"/>
		<path class="st6" d="M238,116.4l-7.7-12.3v12.3h-3V99.6h3.2l7.9,12.7l7.9-12.7h3.2v16.8h-2.9v-12.3l-7.7,12.3H238z"/>
		<path class="st6" d="M254.9,99.6h3V114h11.8V99.6h3V114c0,0.3-0.1,0.6-0.2,0.9s-0.4,0.5-0.6,0.8c-0.3,0.2-0.6,0.4-0.9,0.5
			s-0.7,0.2-1.1,0.2h-11.8c-0.4,0-0.8-0.1-1.1-0.2s-0.7-0.3-0.9-0.5c-0.3-0.2-0.5-0.5-0.6-0.8c-0.2-0.3-0.2-0.6-0.2-0.9V99.6z"/>
		<path class="st6" d="M281,116.4h-3V99.6h3l12.5,13v-13h3v16.8h-3l-12.5-13V116.4z"/>
		<path class="st6" d="M304.7,99.6v16.8h-3V99.6H304.7z"/>
		<path class="st6" d="M310,102c0-0.3,0.1-0.6,0.2-0.9s0.4-0.5,0.6-0.8s0.6-0.4,0.9-0.5s0.7-0.2,1.1-0.2h11.2c0.4,0,0.8,0.1,1.1,0.2
			s0.7,0.3,0.9,0.5c0.3,0.2,0.5,0.5,0.6,0.8s0.2,0.6,0.2,0.9v2.2h-3V102H313v12h11.2v-2.2h3v2.2c0,0.3-0.1,0.6-0.2,0.9
			s-0.4,0.5-0.6,0.8c-0.3,0.2-0.6,0.4-0.9,0.5s-0.7,0.2-1.1,0.2H313c-0.4,0-0.8-0.1-1.1-0.2s-0.7-0.3-0.9-0.5s-0.5-0.5-0.6-0.8
			s-0.2-0.6-0.2-0.9V102z"/>
		<path class="st6" d="M341.1,99.6l8,16.8h-3l-1.8-3.9h-9.4l-1.8,3.9h-3l8-16.8H341.1z M336.1,110.1h7.1l-3.5-7.4L336.1,110.1z"/>
		<path class="st6" d="M348.5,99.6h16.6v2.4h-6.8v14.4h-3V102h-6.8V99.6z"/>
		<path class="st6" d="M371.6,99.6v16.8h-3V99.6H371.6z"/>
		<path class="st6" d="M394.7,114c0,0.3-0.1,0.6-0.2,0.9s-0.4,0.5-0.6,0.8c-0.3,0.2-0.6,0.4-0.9,0.5s-0.7,0.2-1.1,0.2h-11.8
			c-0.4,0-0.8-0.1-1.1-0.2s-0.7-0.3-0.9-0.5s-0.5-0.5-0.6-0.8s-0.2-0.6-0.2-0.9v-12c0-0.3,0.1-0.6,0.2-0.9s0.4-0.5,0.6-0.8
			s0.6-0.4,0.9-0.5s0.7-0.2,1.1-0.2h11.8c0.4,0,0.8,0.1,1.1,0.2s0.7,0.3,0.9,0.5c0.3,0.2,0.5,0.5,0.6,0.8s0.2,0.6,0.2,0.9V114z
			 M379.9,102v12h11.8v-12H379.9z"/>
		<path class="st6" d="M403,116.4h-3V99.6h3l12.5,13v-13h3v16.8h-3l-12.5-13V116.4z"/>
		<path class="st6" d="M426.7,109.2c-0.4,0-0.8-0.1-1.1-0.2s-0.7-0.3-0.9-0.5s-0.5-0.5-0.6-0.8s-0.2-0.6-0.2-0.9V102
			c0-0.3,0.1-0.6,0.2-0.9s0.4-0.5,0.6-0.8s0.6-0.4,0.9-0.5s0.7-0.2,1.1-0.2h10.1c0.4,0,0.8,0.1,1.1,0.2s0.7,0.3,0.9,0.5
			c0.3,0.2,0.5,0.5,0.6,0.8s0.2,0.6,0.2,0.9v2.2h-3V102h-10.1v4.8h10.1c0.4,0,0.8,0.1,1.1,0.2s0.7,0.3,0.9,0.5
			c0.3,0.2,0.5,0.5,0.6,0.8s0.2,0.6,0.2,0.9v4.8c0,0.3-0.1,0.6-0.2,0.9s-0.4,0.5-0.6,0.8c-0.3,0.2-0.6,0.4-0.9,0.5s-0.7,0.2-1.1,0.2
			h-10.4c-0.4,0-0.8-0.1-1.1-0.2s-0.7-0.3-0.9-0.5s-0.5-0.5-0.6-0.8s-0.2-0.6-0.2-0.9v-2.2h3v2.2h10.4v-4.8H426.7z"/>
	</g>
	<g>
		<path class="st6" d="M443.1,115.2h4.8v-3.7h0.8v4.8h-5.6V115.2z"/>
		<path class="st6" d="M443.1,112.1v-5.8h0.8v2.4h4.8v1h-4.8v2.4H443.1z"/>
		<path class="st6" d="M448.7,105h-5.6v-3.7c0-0.4,0-0.7,0.1-1.1c0.1-0.3,0.2-0.6,0.4-0.8s0.4-0.4,0.6-0.5c0.2-0.1,0.5-0.2,0.8-0.2
			h1.7c0.3,0,0.6,0.1,0.8,0.2c0.2,0.1,0.4,0.3,0.6,0.5s0.3,0.5,0.4,0.8c0.1,0.3,0.1,0.7,0.1,1.1V105z M447.9,101.3
			c0-0.5-0.1-0.9-0.3-1.1s-0.5-0.4-0.9-0.4h-1.7c-0.2,0-0.3,0-0.5,0.1s-0.3,0.2-0.4,0.3s-0.2,0.3-0.2,0.5s-0.1,0.4-0.1,0.6v2.7h4
			V101.3z"/>
	</g>
</g>
<g id="Central_Comms_Logo">
	<g>
		<path id="Blue_C" class="st6" d="M105,112c-14.9,0-27-12.1-27-27s12.1-27,27-27h32.7c-7.8-9.7-19.8-16-33.2-16
			C81,42,62,61,62,84.5S81,127,104.5,127c13,0,24.6-5.8,32.4-15H105z"/>
		<path id="Grey_C" class="st7" d="M128.9,88h-7.5H118h-14h-1v-0.1c-2.2-0.3-4-2.1-4-4.4s1.8-4.2,4-4.4V79h1h14h3.4h7.2h16.1
			c-0.7-5-2.3-9.7-4.5-14h-19.3H104v0c-0.2,0-0.3,0-0.5,0C93.3,65,85,73.3,85,83.5c0,10.2,8.3,18.5,18.5,18.5c0.2,0,0.3,0,0.5,0v0
			h18.7h18.9c1.9-4.3,3.1-9.1,3.5-14H128.9z"/>
	</g>
</g>
<g id="Central_Comms_Text" class="st5">
	<g id="layer1" transform="translate(-123.16 -269.73)" class="st8">
		<g id="g4585" transform="matrix(-1 0 0 1 665.4 -160.86)">
			<path class="st9" d="M473.2,478.6c0.5,0.6,3.6-2,5-1c0.4,0.3,0.6,0.8,0,6c-0.4,3.2-0.6,4.7-1,6c-0.6,1.8-1,2-2,5
				c-0.6,1.7-0.9,2.6-1,3c-0.5,1.9-0.4,2.7-1,3c-0.5,0.3-1-0.2-3-1c-1.6-0.7-2.5-1-3-1c-2,0.1-2.7,2.3-4,2c-1.1-0.2-1.7-2.1-2-3
				c-0.6-2-0.1-3-1-4c-0.6-0.7-1.1-0.3-2-1c-2.1-1.5-1.3-4.3-3-5c-1.1-0.5-1.8,0.6-3,0c-1.1-0.5-0.9-1.5-2-2c-1.3-0.5-2.2,0.6-3,0
				c-0.7-0.5-0.2-1.5-1-3c-0.4-0.7-0.9-1.1-2-2c-1.4-1.1-2-1.7-3-2c-0.3-0.1-2.1-0.7-4,0c-1.2,0.5-1.3,1-2,1c-1.5-0.1-1.9-3-3-3
				c-1,0-0.9,2.7-3,4c-1,0.6-1.3,0.2-3,1c-1.3,0.6-1.3,1-3,2c-1.9,1.2-2.1,0.8-4,2c-1.8,1.1-1.7,1.5-3,2c-1.5,0.6-1.9,0.3-3,1
				c-1.1,0.7-0.9,1.2-2,2c-0.5,0.4-1.7,1.2-3,1c-1.1-0.2-1.1-1-3-2c-1.3-0.7-1.6-0.5-2-1c-0.9-1.3,0.7-3.3,0-4c-0.7-0.6-2.2,0.7-3,0
				c-0.6-0.6-0.3-2,0-3c0.5-1.8,1.3-2.7,1-3c-0.4-0.4-2.4,1.6-4,1c-0.1,0-0.8-0.3-1-1c-0.3-1.1,1.2-2.3,2-3c1.5-1.3,1.9-0.9,3-2
				c1.1-1.1,0.7-1.5,2-3c1.1-1.2,1.4-1.1,2-2c0.8-1.4,0.2-2.1,1-3c0.4-0.5,0.9-0.5,3-1c0.3-0.1,1.6-0.4,4-1c3.5-0.9,3.2-1,4-1
				c2.2-0.1,3.2,0.7,4,0c0.7-0.6,0.3-1.6,1-2c0.7-0.4,1.4,0.5,3,1c1.9,0.5,3.5,0.1,4,0c2.1-0.5,1.8-1.5,4-2c1.1-0.3,2-0.2,3-1
				c0.3-0.2,0.7-0.5,1-1c0.9-1.3,0.3-2.4,1-3c0.5-0.4,1.5-0.4,2,0c1.2,1.1-0.8,4.4,0,5c0.9,0.6,3.7-2.7,5-2c0.9,0.5,0,2.3,1,3
				c0.8,0.6,1.9-0.4,5-1c1.6-0.3,2.5-0.4,3,0c1.1,1,0,3.4,1,4c0.6,0.3,1.3-0.4,2,0c0.7,0.4,0.3,1.4,1,2c0.9,0.8,2.4-0.7,4,0
				c0.8,0.3,0.5,0.7,2,2c1.2,1.1,1.9,1.8,3,2c1.5,0.3,2-0.5,3,0c1.1,0.5,0.9,1.6,2,2c0.7,0.2,1-0.2,2,0c0.2,0,1.6,0.3,2,1
				C477.1,474.2,472.7,477.9,473.2,478.6z"/>
			<path id="path3698" class="st10" d="M412.9,461.2c1.3-3,20.3-24.9,35.2-26.9c14.9-2.1,25.4,9.6,27.5,11.4s10.1,22.8,10.1,22.8
				l7,23.6l4.7,10.6l4.4,7l3.6,4.1l6,2.6c0,0-0.7-1.3-1.6,0.3c-0.9,1.6,4.3,4.9-3.9,6.3c-8.2,1.4-15.7-1.6-25.4-7.1
				c-9.7-5.4-10-11.2-11.7-15c-1.7-3.8,4.9-0.3,4.9-0.3l0.5-3.9l2.3-5.2l2.6-11.1l-2.6-2.8l-1.6-1.3l1.3-3.9l-18.4-7.8l-4.1-5.7
				l-6,2.3l-2.1-4.1l-4.4,1.8l-1.8-4.1l-1.8-0.3l-1.6,4.7l-11.1,2.8l-2.1-2.6l-2.3,3.1C422.3,460.6,411.6,464.2,412.9,461.2
				L412.9,461.2z"/>
			<path id="path2801" d="M516.7,540c-0.4-0.3-0.8-0.9-0.8-1.2c0-1.2-0.8-1.4-3-0.9c-2.5,0.6-3,0.4-3.4-1.8
				c-0.3-1.5-0.3-1.5-1.8-1.6c-1.3-0.1-1.6-0.3-1.9-1c-0.5-1.2-0.4-2.9,0-3.2c0.2-0.1,0.4-0.6,0.4-1.1c0-0.6,0.4-1.1,1.5-1.8
				c1.7-1,1.8-1.6,0.6-2.6c-0.6-0.6-1.5-0.8-3.5-1c-5.1-0.4-7.8-0.8-8.8-1.2c-0.6-0.2-1.8-0.4-2.7-0.4c-1.5,0-4-0.6-6.8-1.5
				c-0.6-0.2-1.7-0.5-2.6-0.6c-1.5-0.3-3.6-1.6-3.9-2.4c-0.1-0.3-0.4-0.5-0.7-0.5c-0.3,0-1.1-0.7-1.8-1.5c-0.7-0.8-1.6-1.5-1.9-1.5
				c-0.7,0-3.4-2.7-3.4-3.4c0-0.3-0.3-0.8-0.7-1.1c-0.4-0.4-0.7-0.8-0.7-1c0-0.2-0.3-0.5-0.6-0.8c-0.3-0.2-0.7-1.3-0.9-2.4
				c-0.2-1.1-0.6-2.5-0.9-3.1c-0.3-0.6-0.6-1.3-0.6-1.5c0-0.8-0.7-0.9-1.7-0.2c-1.3,0.9-3.6,1.6-4.3,1.4c-0.3-0.1-0.5-0.7-0.5-1.2
				c0-0.6-0.3-1.3-0.7-1.7c-0.5-0.4-0.7-1.2-0.8-2.5c-0.1-1.7-0.2-1.9-1-2c-1.2-0.2-2.2-1.1-2.2-1.9c0-0.4-0.3-1-0.8-1.3
				c-0.4-0.3-0.9-1-1.1-1.5c-0.3-0.7-0.5-0.8-1.2-0.6c-1.6,0.4-3.2-0.2-3.7-1.4c-0.4-1-0.6-1.1-1.8-1c-1.5,0.1-2.4-0.4-2.4-1.4
				c0-0.3-0.3-1-0.7-1.5c-0.4-0.5-0.7-1.3-0.8-1.8c-0.1-1-1.6-1.5-4.2-1.5c-0.9,0-1.7-0.2-1.9-0.5c-0.6-0.7-1.3-0.7-2.3,0
				c-1.2,0.8-3.2,0.6-3.6-0.5c-0.4-0.9-0.9-1.1-0.9-0.3c0,0.6-2.7,3.1-3.4,3.1c-0.3,0-1.1,0.5-1.9,1.1c-1,0.8-1.8,1.1-2.7,1.1
				c-1,0-1.4,0.2-1.6,0.7c-0.1,0.4-1.2,1.2-2.5,1.8c-1.2,0.6-2.6,1.5-3.1,2c-0.7,0.8-1,0.9-2.1,0.8c-1-0.2-1.3-0.1-1.6,0.5
				c-1,1.9-4.5,2.8-5.8,1.6c-0.4-0.3-1.2-0.7-1.8-0.8c-1.8-0.4-2.6-1.9-2-3.9c0.5-1.9,0.1-2.5-1.4-1.9c-2.2,0.8-3.3-0.8-2.2-3.1
				c1-2.1,0.8-2.4-1-2.2c-1.4,0.2-1.7,0.1-2.4-0.6c-0.9-1-0.9-1.1,0.2-2.8c0.9-1.5,2.4-2.8,3.5-3.1c1.1-0.3,0.7-1.4-0.6-1.6
				c-0.6-0.1-1.3-0.3-1.5-0.5c-0.6-0.4-0.5-1.5,0.1-2c0.8-0.6,3.2-0.9,4.5-0.4c1,0.4,1.2,0.3,1.9-0.8c0.4-0.6,1-1.3,1.3-1.5
				c0.3-0.2,0.8-0.9,1.1-1.6c0.5-1,0.9-1.3,2-1.5c0.9-0.1,1.6-0.5,2-1.1c0.3-0.5,1-1.4,1.4-2c0.4-0.6,1.9-2.1,3.3-3.4
				c1.4-1.3,2.7-2.7,2.8-3.1c0.2-0.7,3.5-3.9,8.9-8.8c1.1-1,2.3-1.8,2.6-1.8s0.8-0.3,1-0.7c0.2-0.4,1-1.1,1.7-1.5
				c0.8-0.5,2-1.3,2.7-1.9c0.7-0.6,1.9-1.2,2.5-1.4c0.7-0.2,1.6-0.8,2.1-1.2c0.5-0.4,2.1-1.3,3.6-2c1.5-0.7,3.3-1.5,3.9-1.8
				c1-0.5,1.5-0.5,3.5-0.1c1.3,0.2,2.8,0.4,3.5,0.4c1.1,0,5,1.3,7,2.4c0.5,0.3,1.2,0.5,1.5,0.5c0.3,0,2.5,1.1,5,2.3
				c4.1,2.1,4.8,2.6,7.1,5.2c3,3.3,5.7,7.2,6.7,9.5c0.2,0.5,0.6,1.4,1,1.9c0.3,0.6,0.8,1.9,1.1,2.9c0.5,2,1.2,4,1.7,5
				c0.2,0.3,0.3,0.9,0.3,1.3c0,0.4,0.1,0.8,0.3,0.9c0.2,0.1,0.4,0.9,0.6,1.7c0.1,0.8,0.5,2,0.8,2.5c0.7,1.4,2.3,6.4,2.6,8.1
				c0.2,1.5,1.9,6,2.8,7.8c0.3,0.5,0.7,2.1,0.9,3.4c0.3,1.5,1.1,3.9,2,5.8c0.9,1.8,1.6,3.5,1.6,3.8c0,0.3,0.2,0.7,0.5,1
				c0.3,0.3,0.7,1.1,1,1.8c0.3,0.7,0.9,1.7,1.3,2.3c0.5,0.6,0.8,1.2,0.8,1.4c0,0.2,0.4,0.9,0.9,1.5c0.5,0.6,0.9,1.3,0.9,1.5
				c0,0.2,0.8,1.2,1.8,2.2c1,1,2.1,2.2,2.3,2.7c0.3,0.6,1,1.1,2.1,1.4c1.5,0.4,1.7,0.4,2.6-0.3c0.5-0.4,1.2-0.8,1.5-0.8
				s0.6-0.4,0.7-1c0.6-2.8,1-3.8,2.5-5.3c1.6-1.7,1.6-1.7,2.8-1.2c1,0.4,1.4,0.9,1.9,2.3c0.4,1,0.8,1.9,0.8,1.9
				c0.1,0.1,0.7-0.1,1.4-0.5c0.7-0.3,1.6-0.6,2-0.6c1.1,0,2.8,1.7,3.2,3.2c0.3,1.1,0.6,1.5,2,2.2c1,0.5,1.9,1.2,2.2,1.9
				c0.3,0.6,1,1.2,1.6,1.5c1.8,0.7,2.7,2,2.9,4c0.1,1.4,0,2-0.5,2.6c-0.6,0.7-0.6,0.8,0,1.8c0.7,1.2,0.8,2.6,0.3,3.6
				c-0.2,0.4-1.3,1-2.4,1.5c-2.9,1.1-3,1.3-3,3.3c0,2.3-1.1,4.6-2.4,4.9c-0.5,0.1-2,0.1-3.3,0c-1.8-0.1-2.6,0-3.7,0.5
				C519.5,540.7,517.8,540.8,516.7,540L516.7,540z M521.2,537.8c0.9-1.2,0.9-1.4,0.6-2.3c-0.5-1.2-0.3-1.8,0.7-1.8
				c0.8,0,1.4,1,1.4,2.5c0,1.7,2.2,2.5,3.8,1.3c0.6-0.4,0.7-1,0.7-3.6c0-3.5,0.2-3.8,2.4-3.8c3.5,0.1,5-3,1.8-3.7
				c-1.3-0.3-2-1.5-0.9-1.5c0.3,0,1.1-0.2,1.7-0.6c0.9-0.5,1.1-0.8,1.1-1.8c0-1.5-0.9-3.1-1.8-3.1c-0.3,0-1.1,0.3-1.7,0.7
				c-2.3,1.5-3.6,0.4-1.7-1.6c1-1,1.1-1.3,0.6-1.8c-0.4-0.6-0.8-0.6-3.4-0.4c-3.6,0.3-4-0.2-2.1-2.2c1-1.1,1.2-1.5,0.9-2.2
				c-0.7-1.9-2.9-1.2-4,1.4c-1.3,3.1-2.5,2.6-2.5-0.9c0-4.5-1.3-5.4-3.3-2.5c-1.2,1.8-1.3,2.5-0.5,7.3c0.4,2.7-0.7,2.9-2.5,0.4
				c-0.5-0.8-1.2-1.4-1.4-1.4c-0.7,0-0.4,1,0.6,2.1c1.1,1.3,1,2.3-0.1,2.5c-0.9,0.1-2.2,1.8-1.7,2.2c0.2,0.2,0.9,0.4,1.6,0.4
				c2,0.2,1.8,1.1-0.4,2.6c-3.1,2-5,5.7-3,6c0.5,0.1,1.3-0.4,2.2-1.4c2.1-2.1,3.7-1.8,2.2,0.5c-0.8,1.3-1.1,4.3-0.4,4.9
				c0.9,0.7,1.7,0.1,2.4-2c1-2.7,1.2-3.1,2.1-3.2c0.7-0.1,0.7,0,0.6,3.3c-0.2,3.4-0.2,3.4,0.8,4.2
				C519.3,539.4,520,539.3,521.2,537.8L521.2,537.8z M508.9,521.3c1.1-1,1.3-1.3,1.1-2.2c-0.3-1.4-1.6-3.2-2.3-3.2
				c-0.7,0-6.3-5.3-7.7-7.3c-0.5-0.7-1.1-1.6-1.5-1.9c-0.3-0.4-0.9-1.3-1.2-2.2c-0.3-0.8-1.6-3.6-2.8-6.2c-2.6-5.7-2.8-6-4.4-10.3
				c-0.7-1.9-1.6-4-1.8-4.6s-0.5-1.5-0.5-2c0-0.8-0.4-2.3-1.3-4.6c-0.3-0.7-0.6-2.1-0.8-3.1c-1-5-2.1-9.3-3-11.6
				c-0.4-1-0.7-2.1-0.7-2.5c0-0.4-0.6-1.8-1.3-3.2c-0.7-1.4-1.3-2.7-1.3-3c0-0.3-0.2-0.7-0.5-0.9c-0.3-0.2-1-1.4-1.6-2.7
				c-0.8-1.7-2-3.2-4.7-5.8c-2-1.9-3.8-3.5-4-3.5c-0.6,0-5.9-2.5-6.6-3.1c-0.6-0.5-4.4-1.7-8.2-2.5c-3.6-0.8-8.4,0-11,1.7
				c-0.7,0.5-2.4,1.5-3.7,2.2c-4.9,2.8-10.6,6.7-12.5,8.7c-0.8,0.8-3.8,3.7-6.7,6.4c-2.8,2.7-5.4,5.3-5.8,5.8
				c-0.5,0.8-0.5,0.9,0.3,1.5c1,0.7,5.1,0.9,5.1,0.3c0-0.5,2.4-2.8,2.9-2.8c0.2,0,0.8,0.5,1.4,1.1c1.3,1.4,2.9,1.4,5.5,0.2
				c1.1-0.5,2.8-1.2,4-1.5c1.1-0.3,2.1-0.8,2.1-1c0-0.8,1.9-3.1,2.9-3.5c0.9-0.4,1.2-0.4,1.8,0.2c0.4,0.4,1,1.3,1.3,2.1
				c0.3,0.8,0.7,1.3,0.8,1.3c0.1-0.1,0.8-0.4,1.6-0.8c1.2-0.6,1.5-0.6,2.3-0.2c0.5,0.3,1,0.9,1.1,1.3c0.1,0.4,0.5,1.1,0.8,1.4
				c0.6,0.5,0.8,0.5,2.4-0.3c3.7-1.8,4.3-1.6,5.1,1.5c0.4,1.6,0.5,1.7,1.8,1.9c1.3,0.2,2,0.8,2,1.6c0,0.5,0.9,0.9,2.3,0.9
				c0.8,0,1.8,0.5,3.1,1.4c3.2,2.3,3.4,2.4,4.5,1.5c0.5-0.4,1.3-0.8,1.8-0.8c1,0,2.2,1.3,2.1,2.2c-0.1,0.5,0.3,0.8,1.1,1.1
				c2.4,0.8,2.7,1.7,1.9,5.2c-0.2,0.8-0.1,1,0.3,1c2.1,0,3.4,2,2.9,4.3c-0.3,1.6-0.3,2.3,0.4,3c0.5,0.6,0.7,2.4,0.2,3.1
				c-0.1,0.2-0.7,0.7-1.3,1c-0.8,0.5-1,0.9-1,2.2c0,0.8-0.3,1.8-0.5,2.2c-0.3,0.4-0.5,1.1-0.5,1.7c0,0.6-0.5,1.6-1.3,2.5
				c-0.7,0.8-1.3,1.9-1.3,2.4c0,2.3-1.9,3.9-3.6,3c-1-0.5-1,0.1,0,2.6c0.8,2,3.2,5.1,6.1,7.8c2.7,2.5,3.1,2.7,8.1,4.4
				c1.1,0.4,2.3,0.9,2.7,1.1c2.3,1.3,6.4,2.7,8.5,3c1.3,0.1,2.8,0.4,3.4,0.7c0.6,0.2,2.3,0.4,3.8,0.4c1.5,0,3,0.2,3.3,0.4
				C507.3,522.6,507.4,522.6,508.9,521.3L508.9,521.3z M466.1,497.8c0.1-0.4,0.6-0.7,1.1-0.7c0.7,0,0.9,0.2,0.9,0.8
				c0,1.3,0.4,1.4,1.3,0.3l0.8-1l0.7,1.2c1.2,2,2.5,1.2,2.1-1.3c-0.2-1.4-0.2-1.5,0.7-1.8c1.5-0.6,1.6-1.4,0.1-2.8
				c-0.7-0.7-1.3-1.4-1.3-1.5c0-0.7,0.9-1,2.2-0.9c1.8,0.2,2.2-0.6,1.1-2.2c-0.9-1.3-0.8-2.5,0.3-3c0.5-0.3,0.7-0.5,0.5-0.7
				c-0.6-0.4-0.4-1.4,0.5-2.7c1.8-2.4,0.9-3.4-2.1-2.4c-2.7,0.9-3.1,0.8-3.3-0.6c-0.2-1,0-1.4,1.7-3.1c1.8-1.8,1.9-2,1.3-2.5
				c-0.5-0.5-0.8-0.5-1.9-0.2c-1.1,0.3-1.4,0.3-2-0.3c-0.4-0.4-0.7-1-0.7-1.3c0-0.6-0.4-0.6-1.9,0c-0.4,0.2-0.8,0-1.3-0.5
				c-2-2.4-3.5-3.5-5.3-3.9c-1.4-0.4-2.1-0.4-2.9-0.1c-1.4,0.6-2.2-0.1-2-1.6c0.2-1.2-0.4-1.4-1.7-0.5c-1.1,0.7-2.1,0.3-1.9-0.7
				c0.5-2.3,0.7-4.2,0.3-4.2c-0.8,0-2.4,1-3.4,2.1c-1.2,1.3-1.8,1.4-2.3,0.5c-0.2-0.4-0.8-0.6-1.4-0.6c-1,0-1-0.1-0.9-1.5
				c0.1-2-0.6-2-2.5-0.1c-1.9,2-2.7,2-2.4,0c0.3-1.7-0.9-4.9-1.7-4.6c-0.7,0.2-1.4,1.8-1.4,3.2c0,1.8-0.5,2.2-3.4,2.2
				c-2.2,0-2.8,0.2-4.8,1.3c-3.1,1.7-4.6,1.7-5.5-0.1c-0.7-1.3-1.3-0.8-1.2,1.1c0.2,2.5-0.2,3.2-1.5,3.2c-0.8,0-1.4-0.3-2.1-1.1
				c-1.2-1.2-1.5-1.1-1.5,0.6c0,1.7-0.9,1.9-2.3,0.5c-0.6-0.6-1.4-1.1-1.6-1.1c-0.2,0-0.5,0.7-0.7,1.4c-0.4,2.4-1,2.6-2.8,0.6
				c-1.7-1.9-2.2-2-2.8-1c-0.3,0.5-0.2,1,0.2,1.8c0.7,1.4,0.7,1.8-0.2,1.8c-0.7,0-0.7,0.2-0.5,1.1c0.2,0.9,0.1,1.1-0.5,1.3
				c-0.4,0.1-0.8,0.4-0.8,0.7c0,0.3-1,0.8-2.3,1.2c-2.6,0.9-5.8,2.8-5.6,3.4c0.2,0.7,2,0.7,3.6,0.1c3-1.2,3.2-0.5,1.1,2.8
				c-2.2,3.4-2,3.9,1.1,2.2c1.4-0.8,1.9-0.9,2.2-0.5c0.4,0.4,0.3,1-0.5,3.2c-1.2,3.4-0.9,4.1,1,2.3c1.7-1.7,2.4-1.3,2.4,1.2
				c0,1.1,0.1,2,0.3,2c1.6,0,2.7-1.9,2.4-4.2c-0.2-1.5-0.2-1.6,0.5-1.6c0.5,0,1,0.4,1.4,1.3c1.1,2.3,2.9,1.3,2.5-1.4
				c-0.2-1.3-0.1-1.6,0.4-1.8c0.7-0.3,1.2,0,1.9,0.9c1,1.4,3,0.3,3-1.7c0-0.7,0.3-1.5,0.6-1.8c0.6-0.6,0.7-0.6,1.6,0.5
				c0.5,0.6,1.1,1.1,1.3,1.1c0.6,0,0.8-0.9,0.4-1.5c-0.5-0.7-0.4-1.3,0.2-1.9c0.8-0.8,1.4-0.7,1.9,0.3c1.1,2.5,4-0.8,4.5-5.3
				c0.1-0.6,0.3-0.9,0.8-0.9c0.7,0,1.2,1.2,1.8,4.2c0.4,1.7,0.8,2.1,1.7,1.3c0.4-0.4,1.1-1.4,1.5-2.3c1-2.1,1.9-2,2,0.4
				c0.1,0.9,0.3,1.7,0.5,1.7c0.2,0,0.7-0.6,1.1-1.3c1-1.8,1.9-1.5,2,0.5c0.1,1.9,0.9,2.3,2,1.2c1.2-1.1,1.7-1,1.7,0.6
				c0,2.4,0.2,2.7,1.7,1.9c0.7-0.4,1.4-0.7,1.6-0.7c0.6,0,0.3,1.3-0.6,2.5c-0.5,0.7-0.8,1.4-0.6,1.5c0.4,0.4,2.2-0.4,4-1.7
				c2.3-1.7,3.2-0.8,1.7,1.6l-0.9,1.5l2.3-0.2c2.1-0.2,2.3-0.1,2.6,0.6c0.1,0.5,0,1.1-0.4,1.7c-0.7,1.1-0.5,1.5,0.7,0.9
				c1.5-0.8,2.1,0.4,1.1,2.6c-0.2,0.5-0.1,0.6,0.6,0.6c1.2,0,1.9,1.9,1.5,4.2c-0.3,1.8,0.2,2.1,1.1,0.7c0.7-1.1,1.4-1.2,1.9-0.3
				c0.2,0.4,0.2,0.9-0.2,1.5c-0.3,0.5-0.5,1-0.5,1.2C464.1,499.9,465.9,498.5,466.1,497.8z"/>
		</g>
	</g>
</g>
</svg>
