<?xml version="1.0" encoding="utf-8"?>
<svg xmlns="http://www.w3.org/2000/svg" viewBox="0 0 304.828 90.878">
<title>Dahua</title>title>
  <g id="Artwork_12" data-name="Artwork 12" transform="translate(152.414 45.439)">
    <g id="_Group_" data-name="&lt;Group&gt;" transform="translate(-152.414 -45.439)">
      <path id="_Path_" data-name="&lt;Path&gt;" d="M525.123,103.9h1.806l1.381-.106,1.31-.177,1.346-.283,1.31-.283,1.275-.354,1.275-.46,1.275-.46,1.2-.567,1.169-.567,1.169-.708,1.133-.708,1.063-.744,1.027-.815,1.027-.85.921-.956-2.125,6.765h18.487L577.185,53.4H558.414l-8.606,26.739-.106.354-.354,1.169-.354.85-.39.815-.46.779-.531.744-.567.708-.638.6-.637.637-.708.531-.744.531-.815.46-.815.319-.85.39-.885.248-.85.248-.956.106-.956.106-.425-.035-.39-.142-.39-.106-.425-.177-.354-.142-.319-.248-.319-.248-.283-.248L535,88.037l-.213-.319-.177-.39-.177-.354-.177-.39-.071-.46-.035-.425-.071-.46.106-.744.177-.779,9.7-30.316H525.406L514.25,87.966l-.177.567-.106.6-.106.5-.071.567-.177.708-.106.708-.106.637v.673l.035,1.1.177,1.062.248,1.027.354.992.39.921.531.921.638.815.6.744.779.708.815.6.85.6.921.46.992.354.992.283,1.027.213,1.1.071.46.106h.815Z" transform="translate(-331.573 -34.488)" fill="#000"/>
      <path id="_Path_2" data-name="&lt;Path&gt;" d="M383.579,21.431h-.248l-1.452.035-1.381.142-1.31.177L377.77,22l-1.31.283-1.275.425-1.275.39-1.24.531-1.24.567-1.169.567-1.133.708-1.1.708-1.1.779-.992.85-.992.885-.921.956L372.068,3.9H353.4L331.8,71.935h18.664l8.429-26.7.106-.177v-.106l.425-1.275.319-.815.46-.779.46-.779.531-.744.531-.708.638-.637.673-.567.708-.567.708-.531.815-.46.779-.354.815-.354.85-.283.956-.212.921-.177.921-.035.46.035.39.106.425.106.39.177.354.248.354.212.354.248.283.283.283.354.213.283.248.39.177.354.106.39.142.425.035.425v.39l-.035.815-.213.744-9.81,30.281h18.806l11.085-34.5.177-.531.142-.531.142-.567.035-.567.177-.637.142-.708.035-.744.071-.673-.071-1.1-.177-1.133-.213-.956-.354-.992-.46-.921-.531-.885-.6-.85-.708-.744-.708-.708-.815-.637-.85-.531-.921-.5-.992-.354-.992-.283-1.027-.248-1.1-.106h-.531l-.46-.106h-.39Z" transform="translate(-214.289 -2.519)" fill="#000"/>
      <path id="_Compound_Path_" data-name="&lt;Compound Path&gt;" d="M337.3,228.081v-2.125h5.312v6.8h-1.948v-.744l-.744.354-.815.283-.425.106-.46.071h-1.806l-.85-.142-.39-.106-.425-.177-.354-.177-.354-.177-.354-.213-.354-.248-.283-.212-.283-.283-.212-.354-.248-.283-.212-.354-.177-.39-.354-.744-.248-.885-.106-.779V225.46l.177-.921.248-.815.354-.815.212-.354.248-.319.213-.354.283-.283.283-.319.354-.283.354-.248.39-.177.567-.283.708-.248.815-.106H337.8l.531.071h.46l.46.106.46.106.39.142.354.248.354.212.283.248.283.319.212.248.248.354.177.354.177.319.106.39.106.46-2.09.425-.177-.46-.212-.39-.283-.354-.354-.319-.46-.212-.46-.177-.5-.106h-1.027l-.354.071-.39.106-.354.106-.354.177-.283.177-.283.212-.248.248-.283.354-.177.319-.177.354-.142.39-.106.46v.425l-.071.46v.992l.071.46v.39l.106.46.142.425.177.354.248.354.212.354.248.212.283.248.283.177.354.177.354.106.39.106.354.071h.39l.638-.071h.5l.46-.071.46-.106.354-.177.354-.177.283-.248.354-.212v-1.523ZM316.8,226.487v-.39l.071-.46.106-.425.071-.46.354-.921.425-.85.213-.425.248-.39.283-.354.354-.354.354-.319.354-.283.39-.213.354-.248.638-.177.637-.177.638-.106h1.452l.637.106.638.177.567.212.5.248.531.354.46.354.46.5.354.46.319.46.283.531.283.567.177.673.106.638.106.6v1.346l-.106.638-.106.637-.177.567-.283.567-.283.531-.283.5-.39.46-.39.39-.531.354-.46.354-.567.283-.567.177-.638.177-.637.106h-1.346l-.638-.106-.637-.177-.567-.177-.6-.283-.5-.283-.46-.425-.39-.39-.39-.46-.354-.46-.283-.531-.248-.567-.177-.567-.177-.637-.071-.673-.071-.673Zm2.55-.071.071.815.177.744.106.425.177.354.177.354.248.283.248.283.283.283.283.212.354.177.354.142.354.106h.46l.39.071.46-.071h.39l.39-.106.354-.142.354-.177.283-.212.212-.283.283-.283.177-.354.177-.354.142-.354.106-.354.177-.815.071-.779-.071-.815-.177-.744-.106-.39-.142-.354-.177-.283-.177-.354-.212-.283-.283-.248-.283-.213-.354-.177-.354-.177-.39-.106-.39-.071-.46-.071-.46.071-.425.071-.39.106-.354.177-.283.177-.354.213-.213.283-.248.319-.248.283-.177.319-.177.354-.106.354-.177.815-.071.815Zm-38.285,6.3V220.112h2.125l5.773,8.464v-8.464h2.3v12.608H289l-5.667-8.181v8.181Zm-13.529,0V220.112h2.479v4.994h5.6v-4.994h2.444v12.608h-2.444v-5.49h-5.6v5.49Zm-24.685,0V220.112h9.067v2.16h-6.587v2.762h6.127v2.125h-6.127V230.6h6.835v2.125Zm104.832,0v-5.312l-4.462-7.3h2.9l2.833,4.994,2.833-4.994h2.833l-4.462,7.367v5.242Zm-39.631,0v-12.5h2.479V230.56h5.525v2.125Zm-14.344-6.233v-.39l.071-.46.071-.425.106-.46.283-.921.39-.85.283-.425.248-.39.283-.354.354-.354.283-.319.425-.283.354-.213.39-.248.567-.177.637-.177.708-.106h1.417l.638.106.637.177.6.212.531.248.5.354.46.354.46.5.354.46.354.46.283.531.213.567.248.673.106.638.142.6v1.346l-.142.638-.106.637-.248.567-.213.567-.283.531-.354.5-.354.46-.46.39-.46.354-.5.354-.531.283-.6.177-.637.177-.638.106h-1.31l-.708-.106-.567-.177-.6-.177-.567-.283-.531-.283-.46-.425-.39-.39-.425-.46-.319-.46-.319-.531-.212-.567-.248-.567-.106-.637-.106-.673v-.673Zm2.55-.071v.815l.177.744.106.425.177.354.177.354.248.283.212.283.283.283.319.212.283.177.39.142.354.106h.46l.39.071.46-.071h.425l.39-.106.354-.142.319-.177.319-.212.213-.283.212-.283.248-.354.177-.354.177-.354.106-.354.177-.815.071-.779-.071-.815-.177-.744-.106-.39-.177-.354-.177-.283-.177-.354-.283-.283-.213-.248-.319-.213-.319-.177-.354-.177-.39-.106-.425-.071-.46-.071-.46.071-.39.071-.425.106-.354.177-.354.177-.283.213-.248.283-.283.319-.177.283-.177.319-.177.354-.106.354-.177.815v.815Zm-33.716,1.665,2.55.744-.106.531-.212.46-.177.39-.248.425-.283.39-.283.283-.283.283-.354.319-.354.213-.39.212-.39.177-.39.106-.46.106-.46.071h-2.267l-.567-.177-.567-.177-.531-.213-.5-.283-.46-.354-.39-.39-.39-.5-.354-.531-.283-.567-.283-.567-.283-.6-.106-.708-.106-.638v-.708l.071-.673.071-.673.106-.637.248-.637.212-.567.283-.567.354-.531.39-.46.46-.425.46-.354.531-.283.531-.283.6-.177.637-.106.638-.106h1.275l.531.071.6.106.46.177.531.142.39.248.46.283.319.283.46.46.354.531.283.6.283.708-2.656.637-.106-.46-.248-.39-.283-.425-.354-.283-.39-.213-.39-.177-.46-.106-.531-.071-.319.071h-.354l-.354.106-.283.106-.283.106-.283.177-.248.177-.248.283-.283.354-.248.319-.177.39-.177.46-.106.39-.106.46-.071.46v.921l.071.5.106.39.106.46.177.425.177.354.248.39.283.283.248.248.248.212.283.177.283.106.283.106.283.106.354.071h.319l.531-.071.46-.106.46-.177.39-.283.354-.39.283-.46.248-.531.212-.638Zm-28.262,4.64V222.273H230.7v-2.16h9.7v2.16h-3.612v10.448Z" transform="translate(-148.995 -142.02)" fill="#000"/>
      <path id="_Compound_Path_2" data-name="&lt;Compound Path&gt;" d="M102.247,79.168l-1.027.354-1.1.283L99.1,80.16l-1.1.283-1.1.212-1.062.319-1.1.283-1.1.212-.673.177-.567.177-2.373.708-1.983.637-.779.354-.744.283-.637.354-.531.283-.46.354-.425.354-.39.425-.39.39-.283.46-.283.425-.283.46-.177.46-.177.567-.106.531v.46l.071.5.106.46.177.425.248.39.213.354.425.39.319.354.425.213.46.177.531.106.567.106.708.071h.708l1.275-.106,1.346-.213.637-.106.637-.177.637-.177.637-.248.567-.248.567-.283.744-.39.744-.39.708-.39.567-.46.567-.531.6-.46.46-.531.46-.531.46-.531.46-.637.39-.637.425-.708.354-.673.354-.744.354-.779.283-.815.885-2.975ZM92.3,73.289l1.806-.354,1.558-.354,1.275-.354.956-.212,1.735-.39,1.735-.46,1.806-.531,1.771-.6.213-.531.248-.531.177-.5.106-.6.071-.567.071-.567-.071-.567-.071-.567-.567-.283-.637-.283-.637-.283-.637-.248-.637-.248L102,64.152l-.567-.177-.567-.071-.956-.071H98.883l-.992.142-.921.177-.921.248-.921.283-.885.354-.744.39-.567.39-.567.354-.744.637-.815.744-.744.921L89.32,69.5,71.542,67.552l.708-1.1.708-1.027.708-.921.673-.85.708-.815.637-.744.673-.708.744-.637.708-.708.815-.637.744-.637.815-.567.885-.567.885-.6.85-.531.921-.46.921-.531.992-.39.992-.39.992-.354,1.062-.354,1.062-.354,1.1-.248,1.1-.212,1.2-.248,1.2-.106,1.169-.177,1.2-.106L98,52.5h7.119l1.629.071,1.558.106,1.523.106,1.452.177,1.31.177,1.169.177,1.24.212,1.133.283,1.1.39,1.027.5.992.567.921.673.85.708.815.85.744.85.637.921.6,1.027.46,1.062.39,1.1.212,1.169.177,1.24v2.833l-.071.6-.106.567-.106.5-.177.6-.637,2.09-.779,2.408-.885,2.762-1.062,3.187L120.1,83.985l-1.346,4.108-1.417,4.6-1.629,5.135-.177.567-.071.6v1.133l.071.5.106.531.106.46.177.39H97.891v-.106l-.248-.354-.177-.39-.177-.39-.106-.425-.177-.921V97.9l.071-.5.106-.531.177-.567-1.275,1.027-1.275.85-1.275.744-1.275.708-.85.46-.815.39-.744.354-.815.283-1.346.531-1.452.46-1.487.39-1.523.283-1.558.283-1.594.177-1.558.071H75.685l-1.133-.071-1.1-.106-.992-.106-.85-.177-.85-.177-.744-.213-.708-.283-.637-.248-.637-.354-.5-.319-.531-.39-.531-.425-.46-.46-.425-.46-.39-.46-.354-.531-.354-.46-.283-.5-.283-.531-.248-.567-.177-.6-.177-.567-.177-.6-.106-.637-.071-.637L62.9,92.8v-.637l.071-.708.106-.708.106-.708.177-.744.212-.744.248-.744.283-.637.283-.673.354-.637.319-.6.425-.567.354-.567.85-1.062.956-.992.956-.921,1.027-.921,1.24-.85,1.381-.744,1.487-.779,1.629-.708,1.806-.637,1.948-.6,2.09-.531,2.267-.46,1.275-.213,1.275-.248,1.169-.212,1.133-.177,1.1-.213,1.027-.177.921-.177.921-.248Z" transform="translate(-40.623 -33.906)" fill="#000"/>
      <path id="_Compound_Path_3" data-name="&lt;Compound Path&gt;" d="M724.512,79.3l-1.027.354-1.1.283-1.1.354-1.027.283-1.1.212-1.1.319-1.1.283-1.1.212-.673.177-.567.177-2.444.708-1.912.637-.85.354-.708.283-.637.354-.531.283-.46.354-.46.354-.39.425-.354.39-.354.46-.283.425-.213.46-.177.46-.177.567-.106.531v.956l.142.46.142.425.248.39.248.354.354.39.425.354.39.283.46.177.5.177.567.106h1.381l1.275-.106,1.2-.248,1.24-.283,1.1-.354,1.133-.46,1.027-.5.992-.637.992-.637.85-.744.885-.815.744-.85.708-.921.638-.992.6-1.027.46-1.1.39-1.1.85-2.975ZM714.6,73.419l1.771-.354,1.523-.354,1.275-.354,1.062-.213,1.735-.39,1.735-.46,1.735-.531,1.842-.6.212-.531.248-.531.177-.5.106-.6.071-.567v-1.24l-.071-.567-.567-.283-.637-.283-.637-.212-.638-.248-1.275-.354-1.1-.248-1.027-.071h-.992l-.992.142-.992.177-.921.248-.885.283-.85.354-.815.39-.567.39-.531.354-.815.637-.744.744-.744.921-.815,1.027-17.673-1.912.708-1.1.673-1.027.638-.921.673-.85.708-.815.708-.815.708-.673.708-.637.744-.708.779-.637.779-.637.779-.567.85-.567.885-.531.885-.531.921-.531.921-.46.921-.39,1.063-.39.992-.354,1.027-.354,1.1-.283,1.063-.283,1.169-.212,1.2-.248,1.2-.177,1.2-.106,1.2-.106L720.3,52.7h7.119l1.594.071,1.558.106,1.487.106,1.381.177,1.346.177,1.2.177,1.2.213,1.1.283,1.1.39,1.1.5.992.567.921.673.85.708.815.85.744.85.637.921.567,1.027.46,1.062.354,1.1.283,1.169.177,1.24.071,1.2-.071.637v.956l-.213,1.169-.283,1.1-.708,2.09-.744,2.408-.85,2.762-.992,3.187-1.169,3.577-1.275,4.108L739.6,92.827,737.935,98l-.142.5v.531l-.071.567v.567l.106.567.071.531.177.531.142.39H720.156v-.106l-.212-.425-.177-.39-.177-.39-.106-.425-.177-.921-.071-.921.071-.6.071-.5.106-.531.177-.567-1.275,1.027-1.275.85-1.346.744-1.2.708-.85.46-.815.39-.744.354-.815.283-1.381.531-1.452.46-1.452.39-1.558.283-1.558.283-1.558.177-1.629.071h-2.833l-1.1-.071-1.1-.106-.992-.106-.921-.177-.815-.177-.744-.213-.673-.283-.708-.248-.567-.354-.567-.354-.531-.39-.46-.425-.5-.46-.39-.46-.46-.46-.354-.531-.283-.46-.283-.5-.283-.531-.212-.567-.248-.6-.177-.567-.106-.6-.106-.637-.071-.637-.071-.637v-.637l.071-.708.071-.708.177-.708.106-.744.248-.744.283-.744.319-.637.283-.673.283-.637.354-.567.354-.567.39-.567.885-1.062.85-.992.992-.921,1.1-.921,1.2-.85,1.31-.744L696,77.952l1.665-.708,1.806-.637,1.912-.6,2.125-.531,2.267-.46,1.275-.212,1.2-.248,1.2-.212,1.169-.177,1.062-.212,1.027-.177.992-.177.921-.248Z" transform="translate(-442.528 -34.036)" fill="#000"/>
      <path id="_Path_3" data-name="&lt;Path&gt;" d="M113.686,51.177,129.624,1.523H110.959l-9.421,29.4-.106-1.1-.071-1.1-.177-1.027-.106-1.1-.213-1.062-.248-1.027-.283-1.027-.283-1.027L99.7,21.391l-.354-.992-.46-1.027-.39-.992-.531-.921-.531-.992-.567-.992-.567-.921-1.24-1.665-1.31-1.558L92.366,9.881,90.807,8.5,89.249,7.225l-1.7-1.169L85.778,5.029,83.9,4.073l-1.912-.885-1.948-.744-2.019-.673L75.968,1.24,73.737.815l-2.2-.39L69.31.177,67.043.071,64.67,0,62.3.071,59.924.248,57.516.531,55.072.85l-2.408.5-2.515.567-2.408.708L45.262,3.4l-2.479.885L40.339,5.312,37.86,6.41,35.416,7.65,33.008,8.96l-2.373,1.381L28.262,11.9l-2.3,1.629-2.231,1.665-2.09,1.735-2.054,1.806-1.948,1.842L15.8,22.489l-1.806,1.948L12.36,26.491,10.8,28.51,9.314,30.529,7.969,32.654l-1.275,2.09L5.56,36.868,4.5,39.064l-.956,2.16-.815,2.2-.779,2.125-.637,2.2-.425,2.2L.46,52.1l-.283,2.2L.035,56.418,0,58.508.035,60.6l.248,2.054L.637,64.67l.39,2.054.567,1.948.779,1.842.815,1.912.956,1.806,1.1,1.735L6.41,77.562l1.275,1.523L9.031,80.5l1.417,1.346,1.523,1.24,1.558,1.133,1.665,1.062,1.735.956,1.806.885,1.842.744,1.948.708,1.983.567,2.019.46,2.09.39,2.054.354,2.231.177,2.16.106h2.231l2.231-.071,2.337-.142,2.3-.248,2.3-.39,2.3-.39,2.373-.6,2.373-.637,2.337-.744,2.337-.815,2.373-.992,2.3-.956L65.2,83.476l2.3-1.2,2.3-1.346V77.243L67.858,78.27l-1.912.921-1.983.885-1.948.779L60,81.564l-1.948.637-1.983.567-1.983.5-1.948.39-1.983.283-1.877.283-1.983.106-1.912.142H42.535L40.622,84.4l-1.771-.177-1.842-.213-1.735-.283L33.5,83.37l-1.665-.46-1.665-.6-1.629-.567-1.558-.708L25.5,80.289l-1.452-.85-1.381-.885-1.417-.992-1.24-1.1-1.24-1.133-1.1-1.2-1.1-1.275-.956-1.417-.992-1.487-.815-1.594-.744-1.629-.637-1.7L11.9,63.289l-.39-1.735-.319-1.771-.142-1.806-.142-1.842V54.293l.142-1.842.212-1.948.354-1.842.39-1.912.531-1.877.6-1.948.744-1.806.744-1.912.921-1.877.992-1.842,1.027-1.842,1.2-1.806,1.24-1.771,1.31-1.735L22.773,26.6,24.3,24.9l1.594-1.665L27.554,21.6l1.735-1.523,1.842-1.523,1.912-1.452,1.983-1.381,2.019-1.31,2.09-1.24,2.054-1.169,2.16-1.027,2.09-.921,2.125-.885,2.125-.708,2.16-.708,2.125-.6,2.16-.5L58.189,6.3l2.16-.319L62.4,5.737l2.09-.142h2.019l2.019.071,1.983.106,1.948.248,1.912.319,1.842.425,1.877.531,1.735.567,1.735.708,1.665.744,1.629.885,1.487.885L87.8,12.148l1.452,1.169,1.275,1.2L91.8,15.76l1.133,1.417,1.027,1.487.885,1.346.744,1.31.637,1.346.567,1.452.46,1.381.425,1.452.283,1.487.283,1.523.177,1.558.071,1.558.071,1.594L98.493,36.3,98.351,38l-.177,1.665-.213,1.665-.283,1.735-.425,1.842-.5,1.842-.6,1.806-.637,1.735-.673,1.7-.815,1.665-.85,1.594-.956,1.629L91.2,58.437,90.1,60l-1.133,1.523-1.275,1.487L86.31,64.458,84.857,65.91l-1.523,1.381-1.629,1.381.779.177.744.106.744.106.815.142.885.106.85.106h3.01l1.2-.035,1.275-.142,1.2-.213.885-.177.921-.177.85-.212.885-.319.815-.283.85-.354.815-.319.815-.425.815-.39.744-.425.744-.46.744-.5.744-.5.708-.5.708-.567.673-.6.637-.567.637-.637.637-.637.6-.637.567-.708.567-.673.5-.708.5-.744.531-.744.39-.779.46-.744.39-.779.354-.815.354-.815.354-.85.283-.815Z" fill="#e20d18"/>
    </g>
  </g>
</svg>