<?xml version="1.0" encoding="utf-8"?>
<svg xmlns="http://www.w3.org/2000/svg" xmlns:xlink="http://www.w3.org/1999/xlink" viewBox="0 0 800.2 223.6" version="1.1">
<title>Fanvil</title>
<defs>
<clipPath id="clip1">
  <path d="M 0 0 L 800.199219 0 L 800.199219 223.601563 L 0 223.601563 Z M 0 0 "/>
</clipPath>
</defs>
<g id="surface1">
<g clip-path="url(#clip1)" clip-rule="nonzero">
<path style=" stroke:none;fill-rule:evenodd;fill:rgb(70.117188%,12.547302%,14.501953%);fill-opacity:1;" d="M 56.4375 1.949219 C 59.960938 1.039063 63.507813 -0.0195313 67.167969 0.03125 C 104.910156 0.0820313 142.648438 0.0390625 180.390625 0.0625 C 180.519531 13.71875 180.417969 27.382813 180.4375 41.039063 C 145.699219 41.082031 110.960938 40.992188 76.21875 41.089844 C 61.949219 40.871094 48.800781 54.441406 50.179688 68.789063 C 49.828125 75.871094 49.96875 82.960938 49.949219 90.050781 C 93.449219 90.0625 136.949219 90.050781 180.4375 90.050781 C 180.449219 103.632813 180.449219 117.210938 180.449219 130.800781 C 136.949219 130.8125 93.449219 130.789063 49.949219 130.800781 C 49.9375 160.71875 49.949219 190.632813 49.949219 220.550781 C 33.449219 220.550781 16.949219 220.550781 0.460938 220.550781 C 0.339844 199.960938 0.710938 179.371094 0.1875 158.789063 C 0.28125 129.109375 0.0585938 99.429688 0.25 69.75 C 0.628906 55.601563 4.730469 41.359375 13.398438 30.019531 C 23.910156 16 39.6875 6.550781 56.4375 1.949219 Z M 188.710938 0.300781 C 233.210938 0.28125 277.710938 0.339844 322.210938 0.269531 C 322.949219 13.851563 321.96875 27.460938 322.199219 41.050781 C 277.710938 41.0625 233.21875 41.03125 188.738281 41.0625 C 188.648438 27.480469 188.71875 13.890625 188.710938 0.300781 Z M 553.949219 0.320313 C 577.199219 0.28125 600.449219 0.300781 623.699219 0.3125 C 623.6875 13.890625 623.710938 27.46875 623.699219 41.050781 C 600.449219 41.050781 577.199219 41.050781 553.960938 41.039063 C 553.9375 27.46875 553.960938 13.890625 553.949219 0.320313 Z M 631.949219 0.3125 C 648.460938 0.320313 664.960938 0.230469 681.46875 0.359375 C 681.621094 13.921875 682.050781 27.5 681.417969 41.050781 C 664.929688 41.039063 648.4375 41.0625 631.960938 41.039063 C 631.9375 27.46875 631.949219 13.890625 631.949219 0.3125 Z M 333.699219 0.300781 C 370.4375 0.28125 407.167969 0.332031 443.910156 0.28125 C 444 13.859375 443.917969 27.449219 443.949219 41.039063 C 407.199219 41.0625 370.449219 41.050781 333.710938 41.050781 C 333.699219 27.460938 333.699219 13.882813 333.699219 0.300781 Z M 452.449219 41.039063 C 452.46875 27.460938 452.417969 13.871094 452.46875 0.289063 C 484.378906 0.320313 516.289063 0.289063 548.199219 0.300781 C 548.339844 13.882813 548.648438 27.46875 548.199219 41.050781 C 516.277344 41.050781 484.371094 41.0625 452.449219 41.039063 Z M 687.199219 0.300781 C 701.699219 0.300781 716.199219 0.300781 730.699219 0.300781 C 730.699219 13.882813 730.699219 27.460938 730.6875 41.050781 C 716.199219 41.050781 701.699219 41.050781 687.199219 41.050781 C 687.1875 27.46875 687.199219 13.882813 687.199219 0.300781 Z M 753.699219 0.300781 C 769.199219 0.300781 784.699219 0.300781 800.199219 0.300781 C 800.199219 74.722656 800.210938 149.140625 800.1875 223.550781 C 784.699219 223.550781 769.199219 223.539063 753.710938 223.5625 C 753.679688 149.140625 753.699219 74.722656 753.699219 0.300781 Z M 188.398438 60.8125 C 223.988281 60.78125 259.578125 60.820313 295.179688 60.789063 C 302.808594 60.761719 310.578125 62.769531 316.917969 67.109375 C 325.550781 73.679688 330.929688 83.640625 334.089844 93.839844 C 339.019531 109.652344 339.71875 126.351563 340.1875 142.78125 C 340.46875 168.699219 338.648438 194.621094 339.757813 220.53125 C 319.578125 220.050781 299.398438 220.410156 279.21875 220.8125 C 255.539063 220.710938 231.769531 221.410156 208.1875 218.679688 C 204.628906 218.160156 200.757813 218.332031 197.640625 216.261719 C 186.71875 210.082031 179.070313 198.980469 176.289063 186.839844 C 172.160156 168.601563 176.960938 148.242188 189.871094 134.511719 C 193.929688 130.449219 198.53125 126.609375 203.980469 124.652344 C 225.839844 120.640625 248.148438 121.941406 270.238281 121.800781 C 278.800781 122.132813 287.390625 122.261719 295.960938 121.742188 C 295.867188 114.28125 296.460938 106.171875 292.578125 99.46875 C 289.640625 94.582031 283.640625 93.089844 278.289063 93.070313 C 248.429688 93.019531 218.570313 93.070313 188.710938 93.050781 C 188.578125 82.300781 188.96875 71.550781 188.398438 60.8125 Z M 223.910156 157.632813 C 220.558594 158.339844 217.769531 160.949219 216.898438 164.269531 C 215.519531 169.480469 215.398438 175.332031 217.800781 180.261719 C 220.140625 184.679688 225.640625 185.53125 230.167969 185.550781 C 252.089844 185.550781 274.019531 185.550781 295.949219 185.550781 C 295.960938 175.96875 295.9375 166.390625 295.960938 156.8125 C 276.347656 156.78125 256.75 156.8125 237.148438 156.800781 C 232.730469 156.800781 228.25 156.691406 223.910156 157.632813 Z M 359.699219 60.800781 C 393.507813 60.789063 427.328125 60.8125 461.140625 60.789063 C 465.800781 60.722656 470.550781 60.789063 475.058594 62.101563 C 482.871094 64.230469 489.5 69.210938 495.269531 74.722656 C 506.6875 87.851563 511.21875 105.640625 510.960938 122.769531 C 510.929688 144.441406 510.960938 166.109375 510.949219 187.769531 C 510.507813 198.660156 510.710938 209.5625 510.769531 220.449219 C 495.167969 220.679688 479.558594 220.480469 463.960938 220.550781 C 463.9375 182.28125 463.949219 144.019531 463.960938 105.75 C 464.058594 100.628906 460.300781 96.089844 455.660156 94.3125 C 452.371094 92.832031 448.679688 93.378906 445.1875 93.300781 C 431.308594 93.261719 417.429688 93.390625 403.550781 93.230469 C 403.308594 135.660156 403.519531 178.109375 403.4375 220.550781 C 388.871094 220.550781 374.289063 220.539063 359.710938 220.550781 C 359.6875 167.300781 359.699219 114.050781 359.699219 60.800781 Z M 504.519531 61.109375 C 521.039063 60.972656 537.570313 61.109375 554.089844 61.039063 C 565.320313 97.089844 577.589844 132.839844 591.679688 167.882813 C 610.519531 133.859375 621.019531 96.121094 637.710938 61.101563 C 653.308594 60.992188 668.917969 61.070313 684.519531 61.0625 C 663.089844 114.539063 637.519531 166.320313 617.859375 220.519531 C 600.390625 220.601563 582.910156 220.511719 565.429688 220.5625 C 547.359375 166.5625 521.789063 115.402344 504.519531 61.109375 Z M 687.199219 60.800781 C 701.699219 60.800781 716.199219 60.800781 730.699219 60.800781 C 730.710938 115.039063 730.679688 169.28125 730.71875 223.519531 C 716.210938 223.589844 701.710938 223.519531 687.210938 223.550781 C 687.1875 169.300781 687.199219 115.050781 687.199219 60.800781 Z M 687.199219 60.800781 "/>
</g>
</g>
</svg>