<?xml version="1.0" encoding="UTF-8"?><svg id="a" xmlns="http://www.w3.org/2000/svg" xmlns:xlink="http://www.w3.org/1999/xlink" viewBox="0 0 540 76.809">
<title>Grandstream_Networks-logo - brandlogos.net</title><defs><clipPath id="b"><rect width="540" height="76.809" style="fill:none;"/></clipPath><clipPath id="c"><path d="M41.199,26.91s19.349,19.158,16.281,31.523c0,0,2.095-1.24,4.772-3,.205-.136.415-.275.626-.416.727-1.037,1.703-1.627,2.83-2.247.28-.155.571-.313.868-.481.569-.472,1.109-.957,1.652-1.405.05-.04.102-.081.15-.121,1.091-.601,2.27-1.665,3.121-2.269.03-.028.002,0,.03-.028,1.239-1.238,2.014-2.448,2.014-3.281,0-3.205-9.715-13.443-32.344-18.275Z" style="fill:none;"/></clipPath><linearGradient id="d" x1="-200.5423" y1="335.5978" x2="-199.5423" y2="335.5978" gradientTransform="translate(6527.5107 10897.1984) scale(32.3439 -32.3439)" gradientUnits="userSpaceOnUse"><stop offset="0" stop-color="#939598"/><stop offset="1" stop-color="#58595b"/></linearGradient><clipPath id="e"><path d="M16.874.021c-1.966.08-4.723.334-7.694,1.039-.407.105-3.096.839-5.6,2.335-.244.148-.487.303-.726.463-.762.512-1.47,1.132-2.076,1.784-.195.23-.618.845-.743,1.929-.1,6.825,10.144,21.981,10.144,21.981-.284-21.866,50.765-17.062,50.765-17.062C41.601,2.834,27.81.001,18.284.001c-.481,0-.95.007-1.41.02" style="fill:none;"/></clipPath><linearGradient id="f" x1="-200.069" y1="330.1548" x2="-199.069" y2="330.1548" gradientTransform="translate(9601.2557 15849.4599) scale(47.9614 -47.9614)" gradientUnits="userSpaceOnUse"><stop offset="0" stop-color="#00052c"/><stop offset=".1139" stop-color="#00052c"/><stop offset=".1375" stop-color="#041037"/><stop offset=".2281" stop-color="#13385e"/><stop offset=".3248" stop-color="#205b80"/><stop offset=".4269" stop-color="#2b779c"/><stop offset=".5364" stop-color="#338cb1"/><stop offset=".6567" stop-color="#399cc0"/><stop offset=".7963" stop-color="#3ca5c9"/><stop offset="1" stop-color="#3ea8cc"/></linearGradient><clipPath id="g"><path d="M.012,8.6c3.086,43.591,20.168,65.049,25.395,67.936.332.183.756.271,1.258.273h.037c9.204-.032,44.797-28.315,44.797-28.315C29.734,55.644,1.406,11.169.206,6.747c-.145.466-.24,1.08-.194,1.853" style="fill:none;"/></clipPath><linearGradient id="h" x1="-203.0682" y1="332.2836" x2="-202.0677" y2="332.2836" gradientTransform="translate(14519.2284 23799.8738) scale(71.4994 -71.4994)" gradientUnits="userSpaceOnUse"><stop offset="0" stop-color="#0d274d"/><stop offset=".0925" stop-color="#15315b"/><stop offset=".2827" stop-color="#224272"/><stop offset=".4866" stop-color="#2c4f83"/><stop offset=".7118" stop-color="#32568c"/><stop offset="1" stop-color="#345990"/></linearGradient></defs><path d="M119.8886,11.0353h-22.525v20.907h22.525v-8.42h-11.653v-3.679h16.447v9.311c0,2.64-.472,4.431-1.422,5.381-.947.947-2.722,1.421-5.322,1.421h-18.623c-2.602,0-4.376-.474-5.325-1.421-.947-.95-1.423-2.741-1.423-5.381v-15.165c0-2.639.476-4.432,1.423-5.381.949-.947,2.723-1.421,5.325-1.421h18.623c2.526,0,4.282.45,5.267,1.347.986.898,1.477,2.586,1.477,5.066v.724l-4.794-.011v-3.278Z" style="fill:#345990;"/><path d="M159.0809,10.9238h-16.503v10.09h16.503c1.154,0,1.963-.202,2.427-.612.464-.408.697-1.19.697-2.342v-4.182c0-1.114-.233-1.885-.697-2.314-.464-.427-1.273-.64-2.427-.64M137.7849,35.9558V7.1868h23.15c2.114,0,3.652.437,4.619,1.313.964.871,1.445,2.292,1.445,4.264v6.41c0,1.971-.481,3.394-1.445,4.265-.967.873-2.505,1.309-4.619,1.309h-4.23l13.159,11.208h-7.136l-11.695-11.208h-8.455v11.208h-4.793Z" style="fill:#345990;"/><path d="M184.3388,25.1968h15.5l-7.751-14.718-7.749,14.718ZM173.9128,35.9558l15.721-28.769h5.129l16.001,28.769h-5.294l-3.679-7.081h-19.461l-3.677,7.081h-4.74Z" style="fill:#345990;"/><path d="M219.3513,35.9558V7.1868h3.012l21.525,19.236c1.041.928,2.137,2.138,3.29,3.624-.302-1.785-.452-4.145-.452-7.083V7.1868h4.459v28.769h-2.675l-22.134-20.015c-.817-.744-1.283-1.171-1.394-1.283-.596-.593-1.097-1.242-1.505-1.951.223,1.71.334,3.811.334,6.299v16.95h-4.46Z" style="fill:#345990;"/><path d="M280.5121,11.0349h-10.371v20.908h10.371c4.46,0,7.657-.746,9.588-2.236,2.119-1.603,3.18-4.38,3.18-8.329,0-3.803-1.061-6.504-3.18-8.107-1.969-1.492-5.163-2.236-9.588-2.236M281.1811,7.1869c5.053,0,8.734.745,11.038,2.23,1.86,1.191,3.318,2.841,4.378,4.963,1.06,2.12,1.59,4.458,1.59,7.024,0,5.613-1.992,9.72-5.968,12.321-2.265,1.488-5.946,2.231-11.038,2.231h-15.835V7.1869h15.835Z" style="fill:#345990;"/><path d="M334.2033,11.0353h-20.35v8.084h18.119c2.602,0,4.368.483,5.297,1.449.928.967,1.395,2.752,1.395,5.353v3.233c0,2.64-.467,4.431-1.395,5.381-.929.947-2.695,1.421-5.297,1.421h-16.782c-2.601,0-4.376-.474-5.322-1.421-.95-.95-1.423-2.741-1.423-5.381v-.782l4.461.012v3.558h21.408v-8.643h-18.064c-2.563,0-4.321-.472-5.271-1.422-.944-.945-1.42-2.741-1.42-5.377v-2.511c0-2.675.476-4.478,1.42-5.408.95-.927,2.708-1.394,5.271-1.394h15.331c2.454,0,4.19.44,5.214,1.318,1.022.882,1.532,2.523,1.532,4.926v.614l-4.124-.013v-2.997Z" style="fill:#345990;"/><polygon points="363.6408 11.0896 363.6408 35.9556 358.8468 35.9556 358.8468 11.0896 345.6868 11.0896 345.6868 7.1866 376.8528 7.1866 376.8528 11.0896 363.6408 11.0896" style="fill:#345990;"/><path d="M405.5091,10.9238h-16.502v10.09h16.502c1.152,0,1.96-.202,2.427-.612.463-.408.698-1.19.698-2.342v-4.182c0-1.114-.235-1.885-.698-2.314-.467-.427-1.275-.64-2.427-.64M384.2101,35.9558V7.1868h23.152c2.114,0,3.653.437,4.619,1.313.963.871,1.445,2.292,1.445,4.264v6.41c0,1.971-.482,3.394-1.445,4.265-.966.873-2.505,1.309-4.618,1.309h-4.231l13.157,11.208h-7.134l-11.696-11.208h-8.452v11.208h-4.797Z" style="fill:#345990;"/><polygon points="425.9715 35.9558 425.9715 7.1868 453.6805 7.1868 453.6805 11.0348 430.7655 11.0348 430.7655 19.0608 444.7595 19.0608 444.7595 22.8538 430.7655 22.8538 430.7655 31.9988 453.9055 31.9988 453.9055 35.9558 425.9715 35.9558" style="fill:#345990;"/><path d="M469.4038,25.1968h15.498l-7.75-14.718-7.748,14.718ZM458.9768,35.9558l15.723-28.769h5.13l16.001,28.769h-5.299l-3.68-7.081h-19.458l-3.678,7.081h-4.739Z" style="fill:#345990;"/><path d="M508.2629,12.3164c.147,1.115.22,2.527.22,4.238v19.401h-4.067V7.1874h3.903l13.994,18.734,13.043-18.734h4.462v28.768h-4.462v-19.401l.227-4.238c-.634,1.338-1.212,2.381-1.731,3.122l-10.982,16h-1.226l-11.429-15.554c-.449-.595-1.097-1.785-1.952-3.568" style="fill:#345990;"/><path d="M101.9054,60.1442h-7.335v7.951h7.335v-2.354h1.764v1.295c0,1.018-.171,1.702-.512,2.054-.343.355-.991.532-1.947.532h-5.925c-.953,0-1.607-.182-1.955-.54-.348-.363-.522-1.044-.522-2.046v-5.767c0-1.003.174-1.685.522-2.045.348-.361,1.002-.541,1.955-.541h5.925c.956,0,1.604.173,1.947.524.341.348.512,1.027.512,2.039v1.042h-1.764v-2.144Z" style="fill:#345990;"/><path d="M118.4258,68.0954h8.751v-7.951h-8.751v7.951ZM116.6638,61.2694c0-1.003.174-1.685.523-2.045.347-.361,1.003-.541,1.959-.541h7.331c.958,0,1.609.18,1.949.541.343.36.514,1.042.514,2.045v5.767c0,1.002-.171,1.683-.514,2.046-.34.357-.991.539-1.949.539h-7.331c-.956,0-1.612-.182-1.959-.539-.349-.363-.523-1.044-.523-2.046v-5.767Z" style="fill:#345990;"/><path d="M142.7735,69.6218v-10.938h1.108l7.911,7.315c.385.349.786.809,1.211,1.375-.112-.679-.166-1.576-.166-2.692v-5.998h1.639v10.938h-.983l-8.138-7.61c-.301-.282-.472-.445-.514-.491-.217-.224-.399-.472-.552-.738.081.65.124,1.448.124,2.395v6.444h-1.64Z" style="fill:#345990;"/><path d="M168.4337,69.6218v-10.938h1.108l7.911,7.315c.382.349.786.809,1.209,1.375-.111-.679-.166-1.576-.166-2.692v-5.998h1.64v10.938h-.983l-8.137-7.61c-.3-.282-.47-.445-.511-.491-.219-.224-.405-.472-.554-.738.084.65.124,1.448.124,2.395v6.444h-1.641Z" style="fill:#345990;"/><polygon points="194.0932 58.6834 194.0932 69.6214 204.3622 69.6214 204.3622 68.1174 195.8572 68.1174 195.8572 64.6384 201.0002 64.6384 201.0002 63.2004 195.8572 63.2004 195.8572 60.1444 204.2802 60.1444 204.2802 58.6834 194.0932 58.6834" style="fill:#345990;"/><path d="M226.0034,60.1442h-7.337v7.951h7.337v-2.354h1.763v1.295c0,1.018-.171,1.702-.513,2.054-.341.355-.99.532-1.945.532h-5.924c-.956,0-1.608-.182-1.958-.54-.348-.363-.525-1.044-.525-2.046v-5.767c0-1.003.177-1.685.525-2.045.35-.361,1.002-.541,1.958-.541h5.924c.955,0,1.604.173,1.945.524.342.348.513,1.027.513,2.039v1.042h-1.763v-2.144Z" style="fill:#345990;"/><polygon points="238.4025 58.6834 238.4025 60.1654 243.2425 60.1654 243.2425 69.6214 245.0015 69.6214 245.0015 60.1654 249.8585 60.1654 249.8585 58.6834 238.4025 58.6834" style="fill:#345990;"/><rect x="261.318" y="58.684" width="1.76" height="10.938" style="fill:#345990;"/><path d="M277.0559,69.6218v-10.938h1.108l7.909,7.315c.385.349.787.809,1.213,1.375-.112-.679-.168-1.576-.168-2.692v-5.998h1.643v10.938h-.985l-8.137-7.61c-.3-.282-.471-.445-.514-.491-.218-.224-.402-.472-.553-.738.08.65.124,1.448.124,2.395v6.444h-1.64Z" style="fill:#345990;"/><path d="M312.614,60.1442h-8.279v7.951h8.279v-3.201h-4.282v-1.4h6.046v3.542c0,1.002-.176,1.683-.522,2.046-.351.358-1.001.54-1.959.54h-6.846c-.956,0-1.607-.182-1.957-.54-.349-.363-.52-1.044-.52-2.046v-5.767c0-1.003.171-1.685.52-2.045.35-.361,1.001-.541,1.957-.541h6.846c.931,0,1.576.172,1.937.512.362.34.544.983.544,1.925v.276l-1.764-.005v-1.247Z" style="fill:#345990;"/><polygon points="341.5943 58.6834 341.5943 60.1654 346.4303 60.1654 346.4303 69.6214 348.1943 69.6214 348.1943 60.1654 353.0503 60.1654 353.0503 58.6834 341.5943 58.6834" style="fill:#345990;"/><polygon points="374.6087 58.6834 374.6087 63.1564 366.2717 63.1564 366.2717 58.6834 364.5077 58.6834 364.5077 69.6214 366.2717 69.6214 366.2717 64.6604 374.6087 64.6604 374.6087 69.6214 376.3727 69.6214 376.3727 58.6834 374.6087 58.6834" style="fill:#345990;"/><polygon points="390.3509 58.6834 390.3509 69.6214 400.6189 69.6214 400.6189 68.1174 392.1139 68.1174 392.1139 64.6384 397.2559 64.6384 397.2559 63.2004 392.1139 63.2004 392.1139 60.1444 400.5349 60.1444 400.5349 58.6834 390.3509 58.6834" style="fill:#345990;"/><path d="M533.0959,60.1444h-3.809v7.951h3.809c1.639,0,2.815-.284,3.527-.851.778-.609,1.167-1.663,1.167-3.165,0-1.446-.389-2.473-1.167-3.083-.723-.567-1.899-.852-3.527-.852M533.3449,58.6834c1.857,0,3.209.282,4.056.849.684.453,1.2209,1.081,1.611,1.886.387.805.582,1.695.582,2.671,0,2.135-.73,3.694-2.193,4.686-.833.564-2.184.846-4.056.846h-5.822v-10.938h5.822Z" style="fill:#345990;"/><path d="M457.2058,68.0954h8.752v-7.951h-8.752v7.951ZM455.4438,61.2694c0-1.003.175-1.685.522-2.045.348-.361,1.004-.541,1.96-.541h7.33c.958,0,1.607.18,1.948.541.343.36.517,1.042.517,2.045v5.767c0,1.002-.174,1.683-.517,2.046-.341.357-.99.539-1.948.539h-7.33c-.956,0-1.612-.182-1.96-.539-.347-.363-.522-1.044-.522-2.046v-5.767Z" style="fill:#345990;"/><path d="M489.3831,60.1038h-6.065v3.837h6.065c.425,0,.721-.079.892-.234.167-.156.256-.453.256-.889v-1.591c0-.424-.089-.719-.256-.88-.171-.163-.467-.243-.892-.243M481.5541,69.6218v-10.938h8.506c.782,0,1.347.166,1.699.498.357.332.532.873.532,1.621v2.438c0,.748-.175,1.291-.532,1.622-.352.33-.917.498-1.697.498h-1.552l4.836,4.261h-2.625l-4.299-4.261h-3.104v4.261h-1.764Z" style="fill:#345990;"/><polygon points="505.6544 58.6834 505.6544 69.6214 515.4304 69.6214 515.4304 68.0954 507.4194 68.0954 507.4194 58.6834 505.6544 58.6834" style="fill:#345990;"/><polygon points="442.1228 58.6834 439.2308 67.3744 436.2198 58.6834 435.1318 58.6834 432.0188 67.3744 429.1488 58.6834 427.3648 58.6834 431.1968 69.6214 432.5898 69.6214 435.6248 61.3534 438.5568 69.6214 439.8658 69.6214 443.6998 58.6834 442.1228 58.6834" style="fill:#345990;"/><g style="clip-path:url(#b);"><line x1="92.5677" y1="47.4548" x2="539.9997" y2="47.4548" style="fill:none; stroke:#345990; stroke-miterlimit:10; stroke-width:1.392px;"/></g><g style="clip-path:url(#c);"><rect x="41.199" y="26.91" width="32.344" height="31.523" style="fill:url(#d);"/></g><g style="clip-path:url(#e);"><rect x="-1.5783" y="-17.2413" width="64.0356" height="64.0356" transform="translate(-1.533 25.8519) rotate(-45)" style="fill:url(#f);"/></g><g style="clip-path:url(#g);"><rect x="-.034" y="6.747" width="71.533" height="70.062" style="fill:url(#h);"/></g></svg>