<?xml version="1.0" encoding="utf-8"?>
<!-- Generator: Adobe Illustrator 24.1.0, SVG Export Plug-In . SVG Version: 6.00 Build 0)  -->
<svg version="1.1" id="Layer_1" xmlns="http://www.w3.org/2000/svg" xmlns:xlink="http://www.w3.org/1999/xlink" x="0px" y="0px"
	 viewBox="0 0 41.7 43" style="enable-background:new 0 0 41.7 43;" xml:space="preserve">
<style type="text/css">
	.st0{clip-path:url(#SVGID_2_);fill:#00AEEF;}
	.st1{clip-path:url(#SVGID_4_);fill:#00AEEF;}
	.st2{clip-path:url(#SVGID_6_);fill:#00AEEF;}
	.st3{clip-path:url(#SVGID_8_);fill:#00AEEF;}
	.st4{display:none;}
	.st5{display:inline;}
	.st6{clip-path:url(#SVGID_10_);fill:#00AEEF;}
	.st7{display:inline;clip-path:url(#SVGID_12_);fill:#00AEEF;}
	.st8{fill-rule:evenodd;clip-rule:evenodd;fill:#00AEEF;}
</style>
<g>
	<g>
		<defs>
			<rect id="SVGID_1_" width="41.7" height="43"/>
		</defs>
		<clipPath id="SVGID_2_">
			<use xlink:href="#SVGID_1_"  style="overflow:visible;"/>
		</clipPath>
		<path class="st0" d="M41.5,10.7c0-0.5-0.2-0.9-0.6-1.3C40.5,9,40,8.8,39.5,8.8c-1.9,0.1-3.4,1.6-3.3,3.5l0.1,3.1l-0.5,2.1
			c-0.6,0-1.3,0.2-1.8,0.7l-3.5,3.5L29.4,22c-0.8,0.1-1.5,0.5-2.1,1.1l-2.4,2.4c-0.7,0.7-1.1,1.6-1.1,2.6l-0.1,4
			c-1.1,0.4-1.9,1.4-1.9,2.7L21.7,40c0,0.8,0.3,1.5,0.8,2s1.2,0.8,2,0.9l8.6,0.1l0,0c0.7,0,1.4-0.3,2-0.8c0.5-0.5,0.8-1.2,0.9-2V35
			c0-0.8-0.3-1.5-0.8-2c-0.3-0.3-0.7-0.5-1-0.7v-0.1c0.1-0.9,0.5-1.7,1.2-2.3l4.1-4.1c1-1,1.7-2.4,1.8-3.9l0.4-4.1
			c0-0.1,0-0.3,0-0.5l0,0l0,0v-0.1L41.5,10.7z M34.6,34.9l-0.1,5.2c0,0.4-0.2,0.7-0.4,1c-0.3,0.3-0.6,0.4-1,0.4l-8.6-0.1
			c-0.4,0-0.7-0.2-1-0.4c-0.3-0.3-0.4-0.6-0.4-1l0.1-5.2c0-0.8,0.6-1.4,1.4-1.4l0,0l8.6,0.1c0.4,0,0.7,0.2,1,0.4
			C34.5,34.2,34.6,34.6,34.6,34.9 M38.4,24.8l-4.1,4.1c-0.8,0.8-1.4,1.9-1.6,3.1v0.1L25.1,32l0.1-3.8c0-0.6,0.3-1.2,0.7-1.7l2.4-2.4
			c0.4-0.4,0.8-0.6,1.3-0.7l1.4-0.2c0.1,0,0.1,0,0.1,0l0,0c0.1,0,0.2-0.1,0.2-0.2l0,0l3.6-3.6c0.4-0.4,1.1-0.4,1.5,0s0.4,1.1,0,1.5
			l-4,4.1c-0.3,0.3-0.3,0.7,0,1c0.1,0.1,0.3,0.2,0.5,0.2s0.4-0.1,0.5-0.2l4.2-4.2c1-1,1-2.5,0-3.5c-0.1-0.1-0.2-0.2-0.4-0.3l0.6-2.3
			l0,0c0,0,0,0,0-0.1c0,0,0,0,0-0.1l0,0l-0.1-3.2c0-1.1,0.8-2,1.9-2c0.1,0,0.3,0,0.4,0.1c0.1,0.1,0.1,0.2,0.1,0.3l0.2,6.5v0.5
			c0,0,0,0,0,0.1l-0.4,4C39.7,22.9,39.2,24,38.4,24.8"/>
	</g>
	<g>
		<defs>
			<rect id="SVGID_3_" width="41.7" height="43"/>
		</defs>
		<clipPath id="SVGID_4_">
			<use xlink:href="#SVGID_3_"  style="overflow:visible;"/>
		</clipPath>
		<path class="st1" d="M32.9,34.4c0.7,0,1.2,0.5,1.2,1.2s-0.5,1.2-1.2,1.2s-1.2-0.5-1.2-1.2S32.2,34.4,32.9,34.4"/>
	</g>
	<g>
		<defs>
			<rect id="SVGID_5_" width="41.7" height="43"/>
		</defs>
		<clipPath id="SVGID_6_">
			<use xlink:href="#SVGID_5_"  style="overflow:visible;"/>
		</clipPath>
		<path class="st2" d="M18.1,32.1l-0.1-4c0-1-0.4-1.9-1.1-2.6l-2.4-2.4c-0.6-0.6-1.3-0.9-2.1-1.1l-1.2-0.2l-3.5-3.5
			c-0.5-0.5-1.1-0.7-1.8-0.7l-0.5-2.1l0.1-3.1c0.1-1.9-1.4-3.5-3.3-3.5c-0.5,0-1,0.2-1.4,0.6c-0.3,0.3-0.5,0.8-0.6,1.3L0,17.3v0.1
			l0,0l0,0c0,0.2,0,0.3,0,0.5L0.4,22c0.2,1.4,0.8,2.8,1.8,3.9L6.3,30c0.6,0.6,1,1.4,1.2,2.3v0.1c-0.4,0.1-0.7,0.4-1,0.7
			c-0.5,0.5-0.8,1.3-0.8,2l0.1,5.2c0,0.8,0.3,1.5,0.9,2c0.5,0.5,1.2,0.8,2,0.8l0,0l8.6-0.1c0.8,0,1.5-0.3,2-0.9
			c0.5-0.5,0.8-1.3,0.8-2L20,34.8C20,33.6,19.2,32.5,18.1,32.1 M7.4,28.8l-4.1-4.1c-0.8-0.8-1.3-1.9-1.4-3l-0.4-4l0,0v-0.5l0.2-6.5
			c0-0.2,0.1-0.3,0.1-0.3c0.1-0.1,0.2-0.1,0.4-0.1c1.1,0,1.9,0.9,1.9,2L4,15.5l0,0c0,0,0,0,0,0.1c0,0,0,0,0,0.1l0,0L4.5,18
			c-0.1,0.1-0.3,0.2-0.4,0.3c-1,1-1,2.5,0,3.5L8.4,26c0.1,0.1,0.3,0.2,0.5,0.2s0.4-0.1,0.5-0.2c0.3-0.3,0.3-0.7,0-1l-4.2-4.2
			c-0.4-0.4-0.4-1.1,0-1.5s1.1-0.4,1.5,0l3.6,3.6l0,0c0.1,0.1,0.1,0.1,0.2,0.2l0,0h0.1l1.4,0.2c0.5,0.1,1,0.3,1.3,0.7l2.4,2.4
			c0.4,0.4,0.7,1,0.7,1.7l0.1,3.8L9,32.1v-0.2C8.8,30.7,8.2,29.7,7.4,28.8 M18.2,41c-0.3,0.3-0.6,0.4-1,0.4l-8.6,0.1
			c-0.4,0-0.7-0.1-1-0.4c-0.3-0.3-0.4-0.6-0.4-1l-0.1-5.2c0-0.4,0.1-0.7,0.4-1s0.6-0.4,1-0.4l8.6-0.1l0,0c0.8,0,1.4,0.6,1.4,1.4
			l0.1,5.2C18.6,40.4,18.5,40.7,18.2,41"/>
	</g>
	<g>
		<defs>
			<rect id="SVGID_7_" width="41.7" height="43"/>
		</defs>
		<clipPath id="SVGID_8_">
			<use xlink:href="#SVGID_7_"  style="overflow:visible;"/>
		</clipPath>
		<path class="st3" d="M8.8,34.4c0.7,0,1.2,0.5,1.2,1.2s-0.5,1.2-1.2,1.2s-1.2-0.5-1.2-1.2C7.6,34.9,8.2,34.4,8.8,34.4"/>
	</g>
	<g class="st4">
		<defs>
			<rect id="SVGID_9_" width="41.7" height="43"/>
		</defs>
		<clipPath id="SVGID_10_" class="st5">
			<use xlink:href="#SVGID_9_"  style="display:none;overflow:visible;"/>
		</clipPath>
		<path class="st6" d="M11.2,13.6h1.3c0.2,0.6,0.4,1.1,0.7,1.7l-1,1c-0.6,0.6-0.6,1.5,0,2.1l1.3,1.3c0.3,0.3,0.7,0.4,1.1,0.4
			s0.8-0.1,1.1-0.4l1-1c0.5,0.3,1.1,0.5,1.7,0.7v1.3c0,0.8,0.7,1.5,1.5,1.5h1.9c0.8,0,1.5-0.7,1.5-1.5v-1.3c0.6-0.2,1.1-0.4,1.7-0.7
			l1,1c0.3,0.3,0.7,0.4,1.1,0.4s0.8-0.1,1.1-0.4l1.3-1.3c0.6-0.6,0.6-1.5,0-2.1l-1-1c0.3-0.5,0.5-1.1,0.7-1.7h1.3
			c0.8,0,1.5-0.7,1.5-1.5v-1.9c0-0.8-0.7-1.5-1.5-1.5h-1.3C29,8.1,28.7,7.5,28.5,7l1-1c0.6-0.6,0.6-1.5,0-2.1l-1.3-1.3
			c-0.6-0.6-1.6-0.6-2.1,0l-1,1c-0.5-0.3-1.1-0.5-1.7-0.7V1.5c0-0.8-0.7-1.5-1.5-1.5H20c-0.8,0-1.5,0.7-1.5,1.5v1.3
			c-0.6,0.2-1.1,0.4-1.7,0.7l-1-1c-0.6-0.6-1.6-0.6-2.1,0l-1.3,1.3c-0.6,0.6-0.6,1.5,0,2.1l1,1c-0.3,0.5-0.5,1.1-0.7,1.7h-1.3
			c-0.8,0-1.5,0.7-1.5,1.5V12C9.7,12.9,10.4,13.6,11.2,13.6 M11.2,10.2C11.2,10.2,11.2,10.1,11.2,10.2l2-0.1l0,0l0,0
			c0.1,0,0.1,0,0.2,0l0,0c0.1,0,0.1-0.1,0.2-0.1l0,0c0.1,0,0.1-0.1,0.1-0.2l0,0c0-0.1,0.1-0.1,0.1-0.2l0,0c0.2-0.9,0.5-1.6,1-2.3
			c0,0,0-0.1,0.1-0.1l0,0c0-0.1,0-0.2,0.1-0.3l0,0c0-0.1,0-0.2,0-0.3l0,0c0-0.1-0.1-0.2-0.2-0.2l0,0l0,0l0,0l-1.3-1.3V5l1.3-1.3h0.1
			L16.2,5l0,0c0.1,0.1,0.1,0.1,0.2,0.1c0,0,0,0,0.1,0s0.2,0,0.2,0l0,0c0.1,0,0.2,0,0.2,0s0,0,0.1,0h0.1c0.7-0.4,1.5-0.8,2.3-0.9l0,0
			h0.1c0,0,0,0,0.1,0c0,0,0,0,0.1,0c0,0,0,0,0.1,0l0,0c0,0,0,0,0-0.1c0,0,0,0,0-0.1c0,0,0,0,0-0.1c0,0,0,0,0-0.1c0,0,0,0,0-0.1
			c0,0,0,0,0-0.1V3.5l0,0l0,0l0,0v-2c0,0,0-0.1,0.1-0.1h1.9c0,0,0.1,0,0.1,0.1v1.9l0,0l0,0l0,0v0.1c0,0,0,0,0,0.1c0,0,0,0,0,0.1
			c0,0,0,0,0,0.1c0,0,0,0,0,0.1c0,0,0,0,0,0.1c0,0,0,0,0,0.1l0,0c0,0,0,0,0.1,0c0,0,0,0,0.1,0c0,0,0,0,0.1,0h0.1c0,0,0,0,0.1,0
			C23.3,4.3,24,4.6,24.7,5h0.1c0,0,0,0,0.1,0s0.2,0,0.2,0l0,0l0,0c0.1,0,0.2,0,0.2,0s0,0,0.1,0s0.1-0.1,0.2-0.1l0,0L27,3.6h0.1
			l1.3,1.3V5l-1.3,1.3l0,0l0,0l0,0C27,6.4,27,6.4,26.9,6.5l0,0c0,0.1,0,0.2,0,0.3l0,0c0,0.1,0,0.2,0.1,0.3l0,0c0,0,0,0.1,0.1,0.1
			c0.4,0.7,0.8,1.5,0.9,2.3l0,0c0,0.1,0,0.1,0.1,0.2l0,0c0,0.1,0.1,0.1,0.1,0.2l0,0c0.1,0,0.1,0.1,0.2,0.1l0,0c0.1,0,0.1,0,0.2,0
			l0,0l0,0h1.9c0,0,0.1,0,0.1,0.1V12c0,0,0,0.1-0.1,0.1h-1.9l0,0l0,0l0,0h-0.1c0,0,0,0-0.1,0c0,0,0,0-0.1,0c0,0,0,0-0.1,0l0,0
			c0,0,0,0-0.1,0.1l0,0c0,0,0,0-0.1,0.1l0,0c0,0,0,0,0,0.1l0,0v0.1l0,0c-0.2,0.8-0.5,1.6-0.9,2.3c0,0,0,0.1-0.1,0.1l0,0
			c0,0.1,0,0.2-0.1,0.3l0,0c0,0.1,0,0.2,0,0.3l0,0c0,0.1,0.1,0.2,0.2,0.2l0,0l0,0l0,0l1.3,1.3v0.1l-1.3,1.3H27l-1.3-1.3l0,0l0,0l0,0
			c-0.1-0.1-0.1-0.1-0.2-0.2l0,0c-0.1,0-0.2,0-0.3-0.1l0,0c-0.1,0-0.2,0-0.3,0l0,0c0,0-0.1,0-0.1,0.1c-0.7,0.4-1.5,0.8-2.3,0.9l0,0
			h-0.1c0,0,0,0-0.1,0c0,0,0,0-0.1,0c0,0,0,0-0.1,0c0,0,0,0-0.1,0l0,0c0,0,0,0,0,0.1c0,0,0,0,0,0.1c0,0,0,0,0,0.1c0,0,0,0,0,0.1
			c0,0,0,0,0,0.1v0.1c0,0,0,0,0,0.1v1.9c0,0,0,0.1-0.1,0.1H20c0,0-0.1,0-0.1-0.1v-1.9c0,0,0,0,0-0.1v-0.1c0,0,0,0,0-0.1
			c0,0,0,0,0-0.1c0,0,0,0,0-0.1c0,0,0,0,0-0.1c0,0,0,0,0-0.1l0,0c0,0,0,0-0.1,0c0,0,0,0-0.1,0c0,0,0,0-0.1,0c0,0,0,0-0.1,0h-0.1l0,0
			c-0.8-0.2-1.6-0.5-2.3-0.9c0,0-0.1,0-0.1-0.1l0,0c-0.1,0-0.2,0-0.3-0.1l0,0c-0.1,0-0.2,0-0.3,0.1l0,0c-0.1,0-0.2,0.1-0.2,0.2l0,0
			l0,0l0,0l-1.3,1.3h-0.1L13.5,17v-0.1l1.3-1.3l0,0l0,0l0,0c0.1-0.1,0.1-0.1,0.2-0.2l0,0c0-0.1,0-0.2,0.1-0.3l0,0
			c0-0.1,0-0.2-0.1-0.3l0,0c0,0,0-0.1-0.1-0.1c-0.4-0.7-0.8-1.5-0.9-2.3l0,0v-0.1c0,0,0,0,0-0.1c0,0,0,0,0-0.1c0,0,0,0,0-0.1l0,0
			c0,0,0,0-0.1,0c0,0,0,0-0.1,0c0,0,0,0-0.1,0c0,0,0,0-0.1,0h-0.1c0,0,0,0-0.1,0h-0.1l0,0l0,0l0,0h-1.9c0,0-0.1,0-0.1-0.1L11.2,10.2
			L11.2,10.2z"/>
	</g>
	<g class="st4">
		<defs>
			<rect id="SVGID_11_" width="41.7" height="43"/>
		</defs>
		<clipPath id="SVGID_12_" class="st5">
			<use xlink:href="#SVGID_11_"  style="overflow:visible;"/>
		</clipPath>
		<path class="st7" d="M20.9,15.1c2.2,0,4-1.8,4-4s-1.8-4-4-4s-4,1.8-4,4S18.7,15.1,20.9,15.1 M20.9,8.6c1.4,0,2.5,1.1,2.5,2.5
			s-1.1,2.5-2.5,2.5s-2.5-1.1-2.5-2.5C18.3,9.7,19.5,8.6,20.9,8.6"/>
	</g>
</g>
<g>
	<path class="st8" d="M20.7,4.3c1.6-1.7,2.8-3.2,5.3-3.5c4.7-0.5,9.1,4.3,6.7,9.1c-0.4,0.9-1.2,1.9-2.1,2.9v-0.1h-6.1L24.3,13l-1,1
		l-2-3.9l-0.7-1.3L20,10.1l-1.8,3.7l-1.8-2.6l-0.6-0.9l-0.6,1l-0.9,1.4h-3.7C9.2,10.9,8.4,9,8.3,7c-0.1-3.7,2.8-6.1,6.2-6.1
		C17.5,0.9,18.8,2.4,20.7,4.3L20.7,4.3L20.7,4.3z"/>
	<path class="st8" d="M29.4,14.2c-0.1,0.1-0.2,0.2-0.3,0.3c-1.7,1.7-3.5,3.5-4.9,4.7l-3.6,3.5L17.8,20c-1.8-1.7-4.2-3.7-6.1-5.9h3.4
		l0.2-0.4l0.5-0.8l1.9,2.7l0.7,1l0.6-1.1l1.7-3.5l1.8,3.5l0.5,0.9l0.7-0.7l1.5-1.5L29.4,14.2L29.4,14.2L29.4,14.2z"/>
</g>
</svg>
