<?xml version="1.0" encoding="utf-8"?>
<svg version="1.1" id="univiewsvg" xmlns="http://www.w3.org/2000/svg" xmlns:xlink="http://www.w3.org/1999/xlink" x="0px"
	 y="0px" viewBox="0 0 239 122" style="enable-background:new 0 0 239 122;" xml:space="preserve">
<title>Uniview</title>
<style type="text/css">
	.st0{fill:#BA1F21;}
</style>
<g>
	<g>
		<g>
			<g>
				<path d="M54.9,104.8c-2.6,1.2-7.9,2.2-14,2.2c-10.5,0-15.9-4.8-15.9-15V39.4l-22.8,0l6.9,4.4v47.9c0,19.8,11.1,28.5,31.7,28.5
					c11.9,0,23.4-2.3,29.8-5.6V39.5H54.9V104.8z"/>
				<path d="M120.2,37.9c-12.2,0-22.2,2.4-30.1,5.6v75.2H106V53.1c3.2-1.3,8.6-2.3,14.4-2.3c10.9,0,16.4,5.7,16.4,15v52.8h16V64.3
					C152.8,47.6,142.2,37.9,120.2,37.9z"/>
				<path d="M202.4,92.3c-1.7,5.7-3,12.3-3,12.3H199c0,0-1.3-6.6-3.2-12.3l-16.6-52.9h-24.1l8.3,5l26.5,74.2h18.3l28.5-79.1h-17.7
					L202.4,92.3z"/>
				<path class="st0" d="M168.5,27.5C156.3,12.5,138.2,3,118,3c-20.2,0-38.3,9.5-50.5,24.4C82.3,18.3,99.6,13,118,13
					C136.4,13,153.7,18.3,168.5,27.5z"/>
			</g>
		</g>
	</g>
</g>
</svg>