<?xml version="1.0" encoding="utf-8"?>
<svg version="1.1" id="Layer_1" xmlns="http://www.w3.org/2000/svg" xmlns:xlink="http://www.w3.org/1999/xlink" x="0px" y="0px"
	 viewBox="0 0 753.8 248.4" style="enable-background:new 0 0 753.8 248.4;" xml:space="preserve">
<title>Yeastar</title>
<style type="text/css">
	.st0{fill-rule:evenodd;clip-rule:evenodd;fill:#009DDA;}
	.st1{fill:#009DDA;}
	.st2{fill-rule:evenodd;clip-rule:evenodd;fill:#7BB342;}
	.st3{fill:#7BB342;}
	.st4{fill-rule:evenodd;clip-rule:evenodd;fill:#F9A51A;}
	.st5{fill:#F9A51A;}
	.st6{fill:#363F45;}
</style>
<path class="st0" d="M95.4,75.6C85,75,77.3,60,78.4,42.2S88.8,10.4,99.2,11s18.1,15.7,17,33.5S105.8,76.3,95.4,75.6z"/>
<path class="st1" d="M96.1,76.6c-0.3,0-0.5,0-0.8,0c-11-0.7-19-16.1-17.9-34.4S88.2,9.4,99.3,10.1c11,0.7,19,16.1,17.9,34.5
	C116.2,62.5,106.9,76.6,96.1,76.6z M98.6,11.9c-9.6,0-18.3,13.6-19.3,30.3c-1,17.3,6.2,31.8,16.2,32.4c0.2,0,0.4,0,0.6,0
	c9.6,0,18.3-13.6,19.2-30.3c1-17.3-6.2-31.9-16.1-32.5C99,12,98.8,11.9,98.6,11.9z"/>
<path class="st2" d="M47.9,84.9c20.7-3.4,38.8,1.5,40.4,11s-14,20-34.7,23.5s-38.8-1.5-40.4-11S27.2,88.3,47.9,84.9z"/>
<path class="st3" d="M40.7,121.4c-15.7,0-27.2-5.2-28.5-12.9c-1.6-10,14.3-21.1,35.5-24.6c4.3-0.7,8.6-1.1,13-1.1
	c16,0,27.2,5,28.4,12.9c0.8,5-2.5,10.3-9.4,15c-6.7,4.5-15.9,7.9-26.1,9.6C49.4,121.1,45.1,121.4,40.7,121.4z M60.8,84.7
	c-4.3,0-8.5,0.4-12.7,1.1c-19.9,3.3-35.4,13.6-33.9,22.4c1.1,6.8,11.8,11.3,26.6,11.3c4.3,0,8.5-0.4,12.8-1.1
	c9.9-1.7,18.9-5,25.3-9.3c6.2-4.2,9.3-8.9,8.6-13.1C86.3,89.3,75.6,84.7,60.8,84.7z"/>
<path class="st4" d="M158.6,101.7c19.4-8.5,31.9-23.1,27.8-32.5s-23.2-10.1-42.6-1.6s-31.9,23.1-27.8,32.5S139.2,110.2,158.6,101.7z
	"/>
<path class="st5" d="M133.1,108.6L133.1,108.6c-9.2,0-15.7-2.9-17.9-8.1c-4.3-9.9,8.4-25,28.3-33.7c8.9-3.9,18-6,25.9-6
	c9.2,0,15.7,2.9,18,8.1c4.3,9.9-8.4,25-28.3,33.7C150.1,106.4,140.9,108.6,133.1,108.6z M169.3,62.7c-7.6,0-16.5,2.1-25.1,5.8
	c-18.6,8.2-31.1,22.5-27.3,31.2c1.9,4.4,7.8,7,16.2,7l0,0c7.6,0,16.5-2.1,25.1-5.8c18.6-8.2,31.1-22.5,27.3-31.2
	C183.6,65.2,177.7,62.7,169.3,62.7L169.3,62.7z"/>
<path class="st0" d="M72.1,133.7c-8.2-4.4-20.1,11.4-26.5,35.2s-5,46.7,3.2,51s20.1-11.4,26.5-35.2S80.3,138,72.1,133.7z"/>
<path class="st1" d="M51.6,221.6L51.6,221.6c-1.2,0-2.3-0.3-3.3-0.8c-8.7-4.6-10.3-27.5-3.6-52.1c5.8-21.2,16.1-36.6,24.6-36.6
	c1.2,0,2.3,0.3,3.3,0.8c8.7,4.6,10.3,27.5,3.6,52.1C70.4,206.2,60.1,221.6,51.6,221.6z M69.2,133.9c-7.5,0-17.3,15.1-22.7,35.2
	c-6.3,23-5,45.9,2.7,50c0.7,0.4,1.6,0.6,2.4,0.6c7.5,0,17.3-15.1,22.7-35.2c6.3-23,5-45.9-2.7-50C70.9,134.1,70.1,133.9,69.2,133.9z
	"/>
<path class="st0" d="M125,125.7c11.2,0,20.3,12.4,20.3,27.7S136.2,181,125,181s-20.3-12.4-20.3-27.6S113.8,125.7,125,125.7z"/>
<path class="st1" d="M125,181.9c-11.7,0-21.2-12.8-21.2-28.6s9.5-28.6,21.2-28.6s21.3,12.9,21.3,28.6S136.8,181.9,125,181.9z
	 M125,126.6c-10.7,0-19.3,12-19.3,26.7s8.7,26.7,19.3,26.7s19.4-12,19.4-26.7S135.7,126.7,125,126.6z"/>
<path class="st6" d="M243.4,179.3c1.5-16.7,2.6-33.6,3.4-50.6l-37.1-65l9,0.1c1.8,0,4.6,0,8.5-0.1c2.7,5.7,6.8,13.4,12.4,23.3
	s10.9,19.6,15.8,29.2l29.4-46l3.8-6.4c3.7,0.1,6.7,0.1,8.9,0.1l8.5-0.1l-33.7,50l-10.6,16l-1.6,38.6l-0.2,11c-4-0.1-6.8-0.2-8.3-0.2
	S247.4,179.2,243.4,179.3z"/>
<path class="st6" d="M240.3,182.2l0.3-3.2c1.5-16.4,2.6-33.1,3.4-49.7l-39.1-68.5l14,0.2c1.8,0,4.6,0,8.4-0.1h1.8l0.8,1.7
	c2.5,5.5,6.7,13.3,12.2,23.1c4.7,8.4,9.3,16.7,13.6,24.9l26.8-41.9l4.6-7.8h1.6c3.7,0.1,6.6,0.1,8.9,0.1l13.8-0.2l-36.7,54.4
	l-10.1,15.4l-1.6,37.8l-0.2,13.8l-2.9-0.1c-3.7-0.1-6.6-0.2-8.2-0.2s-4.5,0.1-8.2,0.2L240.3,182.2z M251.7,176.3
	c1.2,0,3.1,0,5.5,0.1l0.1-8.1l1.7-39.5l11-16.7l30.7-45.5h-3.1c-1.9-0.1-4.4,0-7.4-0.1l-3,5l-32.1,50.2l-2.3-4.3
	c-4.8-9.4-10.2-19.2-15.7-29c-5.1-9-9-16.3-11.7-21.8c-3,0-5.2,0.1-6.7,0.1h-4.1l35,61.4v0.8c-0.7,15.9-1.8,31.8-3.1,47.6
	C248.7,176.3,250.5,176.3,251.7,176.3z"/>
<path class="st6" d="M357.8,164.5c-0.6,3-1.3,6.7-1.9,11.2c-4.4,1.1-8.8,2-13.3,2.6c-3.7,0.5-7.5,0.7-11.3,0.7
	c-6.1,0.1-12.1-0.7-18-2.4c-5.2-1.5-9.9-4.4-13.6-8.4c-3.7-3.9-6.5-8.5-8.2-13.6c-1.7-5.2-2.5-10.7-2.5-16.2
	c-0.1-7.6,1.5-15.2,4.6-22.1c2.9-6.6,7.6-12.2,13.7-16.1c6.1-3.9,13.9-5.8,23.3-5.8c4.7,0,9.4,0.7,13.9,2.2c4.1,1.2,7.9,3.4,11,6.4
	c3,3,5.3,6.6,6.8,10.7c1.6,4.4,2.5,9.2,2.4,13.9c0,1.9-0.2,3.8-0.5,5.6h-61c-0.2,2.9-0.3,5.2-0.3,6.7c-0.1,5.4,1.2,10.7,3.5,15.5
	c2.2,4.6,5.9,8.4,10.4,10.7c4.9,2.5,10.3,3.7,15.8,3.6C339.6,169.6,347.9,167.9,357.8,164.5z M303.9,126.4h47.7
	c0-2.6-0.2-5.3-0.6-7.8c-0.5-2-1.2-4-2.1-5.8c-1-2-2.4-3.7-4.1-5.2c-1.8-1.5-4-2.7-6.2-3.4c-2.6-0.8-5.2-1.2-7.9-1.2
	c-2.9,0-5.9,0.4-8.7,1.3c-2.6,0.8-5,2-7.3,3.5c-2.1,1.5-3.9,3.2-5.4,5.3c-1.3,1.8-2.4,3.7-3.3,5.8
	C305.1,121.4,304.4,123.9,303.9,126.4z"/>
<path class="st6" d="M331.3,181.8c-6.4,0.1-12.7-0.8-18.8-2.5c-5.7-1.7-10.8-4.8-14.9-9.1c-4-4.2-7-9.2-8.8-14.7
	c-1.8-5.5-2.6-11.3-2.6-17.1c-0.1-8,1.6-16,4.8-23.3c3.1-7.1,8.2-13.1,14.8-17.3c6.5-4.2,14.9-6.3,24.8-6.3c5,0,10,0.7,14.8,2.3
	c4.6,1.4,8.7,3.8,12.2,7.1c3.3,3.3,5.8,7.3,7.4,11.7c1.8,4.8,2.6,9.8,2.6,14.9c0,2-0.2,4.1-0.5,6.1l-0.4,2.3h-60.8
	c-0.1,1.6-0.1,2.9-0.1,3.9c0,4.9,1.1,9.8,3.3,14.2c2,4.1,5.2,7.4,9.2,9.5c4.5,2.3,9.5,3.4,14.5,3.3c6.5,0,14.7-1.7,24.2-5l4.8-1.6
	l-1.1,4.9c-0.6,3-1.3,6.7-1.9,11l-0.3,1.9l-1.9,0.5c-4.5,1.2-9.1,2.1-13.7,2.7C339.1,181.6,335.2,181.8,331.3,181.8z M330.6,97.2
	c-8.8,0-16.1,1.8-21.7,5.4c-5.6,3.6-10,8.7-12.6,14.8c-2.9,6.6-4.4,13.8-4.3,21c0,5.2,0.8,10.4,2.3,15.4c1.5,4.7,4.1,9,7.5,12.6
	c3.4,3.6,7.7,6.2,12.4,7.6c5.6,1.6,11.4,2.4,17.1,2.3c3.6,0,7.3-0.2,10.9-0.6c3.7-0.5,7.5-1.2,11.1-2.1c0.2-1.7,0.5-3.3,0.8-4.7
	c-8.2,2.5-15.4,3.8-21.4,3.8c-6,0.1-11.9-1.3-17.2-4c-5-2.7-9.1-6.9-11.6-12c-2.6-5.2-3.9-10.9-3.8-16.7c0-1.6,0.1-3.9,0.3-6.9
	l0.2-2.6h61.2c0.1-0.9,0.2-1.8,0.1-2.8c0-4.4-0.7-8.8-2.2-12.9c-1.3-3.6-3.4-6.9-6.1-9.7c-2.8-2.7-6.2-4.7-9.9-5.8
	C339.4,97.8,335,97.1,330.6,97.2L330.6,97.2z M354.5,129.3h-54.1l0.7-3.4c0.6-2.7,1.3-5.3,2.3-7.9c0.9-2.3,2.1-4.5,3.6-6.5
	c1.7-2.3,3.7-4.3,6-5.9c2.5-1.7,5.2-3,8.1-3.9c5.9-1.8,12.3-1.9,18.2-0.1c2.6,0.8,5.1,2.1,7.2,3.9c2,1.7,3.6,3.8,4.8,6.1
	c1.1,2.1,1.9,4.3,2.4,6.5c0.5,2.8,0.7,5.6,0.7,8.4L354.5,129.3z M307.5,123.6h41.2c0-1.5-0.2-3-0.5-4.4c-0.4-1.8-1-3.5-1.8-5.1
	c-0.8-1.7-2-3.1-3.4-4.3c-1.6-1.3-3.3-2.3-5.3-2.8c-4.9-1.4-10-1.3-14.9,0.1c-2.3,0.7-4.5,1.8-6.5,3.1c-1.8,1.3-3.4,2.8-4.7,4.6
	c-1.2,1.6-2.2,3.3-2.9,5.2C308.3,120.9,307.9,122.2,307.5,123.6L307.5,123.6z"/>
<path class="st6" d="M387.1,109.1c0.5-2.3,1-5.8,1.5-10.4c5.5-1.5,11-2.6,16.7-3.4c4.6-0.6,9.2-0.9,13.8-0.9c4.5,0,9,0.4,13.5,1.3
	c3.7,0.7,7.3,2.2,10.4,4.3c2.5,1.6,4.4,4,5.5,6.8c0.9,2.6,1.4,5.4,1.4,8.2c0,3.7-0.3,9.9-0.8,18.5s-1,16.7-1.3,24.1
	s-0.4,13.9-0.4,19.7c-2.9-0.1-5.2-0.1-7-0.1s-4.1,0-7.3,0.1l1.7-21.8l1.1-25.9c-1.9,1.4-3.3,2.4-4.2,3c-1,0.6-2.1,1.2-3.2,1.6
	c-1.3,0.6-2.6,1-3.9,1.5c-1.4,0.4-4.2,1.2-8.3,2.4s-7,2-8.7,2.6c-3,0.9-5.9,2.1-8.7,3.5c-2,1.1-3.8,2.4-5.4,3.9
	c-1.3,1.2-2.3,2.6-3.1,4.2c-0.7,1.7-1,3.5-1,5.4c-0.1,2.7,0.8,5.4,2.5,7.5c1.7,2.1,3.9,3.6,6.4,4.4c3,0.9,6.2,1.3,9.3,1.2
	c2.4,0,4.7-0.2,7-0.5c3.3-0.5,6.6-1.3,9.8-2.4c-1,3.1-1.9,6.3-2.6,9.5c-3.1,0.6-6.3,1.1-9.5,1.4c-2.5,0.2-4.8,0.3-7,0.3
	c-7.3,0-13-0.9-17.1-2.6c-3.9-1.5-7.1-4.2-9.2-7.8c-2-3.5-3-7.4-3-11.4c0-2.3,0.3-4.5,1.1-6.6c0.7-2,1.7-3.8,2.9-5.5
	c1.5-1.9,3.3-3.6,5.3-4.9c2.2-1.6,4.6-3,7.1-4.1c2.8-1.2,5.7-2.3,8.7-3.1c3.3-1.1,8.6-2.4,15.9-4.2c2.4-0.5,4.4-1.1,6-1.7
	s3.1-1.1,4.4-1.6c1.2-0.5,2.3-1.1,3.4-1.9c1-0.8,1.9-1.6,2.6-2.6c0.7-1,1.3-2,1.8-3.1c0.4-1,0.5-2.1,0.5-3.2c0-2.5-0.9-4.9-2.6-6.7
	c-1.8-1.9-4.1-3.3-6.7-3.9c-3.2-0.8-6.5-1.2-9.7-1.1c-3.6,0-7.2,0.3-10.7,0.8c-3.2,0.5-6.3,1.1-9.4,2
	C394.4,106.4,391.1,107.5,387.1,109.1z"/>
<path class="st6" d="M405.8,181.8c-7.8,0-13.7-0.9-18.2-2.8c-4.4-1.7-8.1-4.9-10.5-9c-2.3-3.9-3.5-8.3-3.4-12.8
	c0-2.6,0.4-5.1,1.3-7.6c0.8-2.2,1.9-4.4,3.3-6.3c1.6-2.1,3.6-4,5.9-5.6c2.4-1.7,4.9-3.2,7.6-4.4c2.9-1.2,5.9-2.3,9-3.3
	c3.3-1,8.6-2.4,16.1-4.3c2-0.4,3.9-1,5.8-1.6c1.6-0.5,3-1.1,4.2-1.6c1-0.4,1.9-0.9,2.8-1.5c0.8-0.6,1.5-1.3,2.1-2.1
	c0.6-0.7,1-1.5,1.3-2.4c0.9-2.4,0.3-5.1-1.4-7.1c-1.4-1.5-3.3-2.6-5.4-3.1c-4.9-1.3-12.1-1.3-19.2-0.2c-3.1,0.4-6.1,1.1-9.1,1.9
	c-2.6,0.7-5.8,1.9-9.7,3.4l-4.9,1.9l1.1-5.1c0.4-2.2,0.9-5.5,1.5-10.2l0.2-1.9l1.9-0.5c5.6-1.5,11.3-2.6,17-3.5
	c10.1-1.3,19.9-1.3,28.3,0.4c4.1,0.8,8,2.4,11.5,4.8c3,2,5.3,4.8,6.5,8.2c1,3,1.5,6.1,1.5,9.2c0,3.8-0.3,10.1-0.8,18.7
	c-0.6,8.9-1,16.8-1.3,24s-0.5,13.8-0.5,19.6v2.9l-2.9-0.1c-2.8-0.1-5.2-0.1-6.9-0.1s-4.1,0.1-7.2,0.1l-3.1,0.1l1.9-25l0.9-19.9
	c-1,0.6-2.1,1.1-3.1,1.6c-1.2,0.5-2.6,1-4.1,1.6s-4.3,1.3-8.4,2.4c-3.9,1.1-6.8,1.9-8.5,2.5c-2.9,0.9-5.6,2-8.3,3.3
	c-1.7,0.9-3.3,2.1-4.8,3.4c-1,0.9-1.8,2-2.4,3.3c-0.5,1.4-0.8,2.8-0.8,4.3c0,2.1,0.6,4.1,2,5.7c1.3,1.7,3.1,2.9,5.1,3.6
	c3.8,1.2,9.2,1.4,15.1,0.6c3.2-0.5,6.3-1.3,9.4-2.3l5.4-1.7l-1.9,5.4c-1,3-1.9,6.1-2.5,9.2l-0.4,1.8l-1.8,0.4
	c-3.3,0.7-6.5,1.1-9.8,1.4C410.5,181.8,408,181.8,405.8,181.8z M417.1,99.9c3.5-0.1,7,0.4,10.5,1.2c3.1,0.8,5.8,2.4,8,4.8
	c3.2,3.4,4.2,8.4,2.6,12.8c-0.5,1.4-1.3,2.8-2.2,4c-0.9,1.2-2,2.3-3.2,3.2c-1.2,0.9-2.6,1.7-4,2.3c-1.3,0.5-2.9,1.1-4.6,1.7
	c-2.1,0.7-4.2,1.3-6.3,1.7c-7.4,1.8-12.5,3.1-15.7,4.1s-6,2.1-8.4,3.1c-2.3,1-4.5,2.3-6.6,3.8c-1.8,1.2-3.3,2.7-4.6,4.4
	c-1.1,1.5-1.9,3.1-2.5,4.8c-0.6,1.8-1,3.8-0.9,5.7c0,3.5,0.9,7,2.7,10c1.8,3,4.5,5.4,7.8,6.6c3.7,1.6,9.1,2.3,16,2.3
	c2.1,0,4.4-0.1,6.7-0.3c2.5-0.2,4.9-0.5,7.4-1c0.3-1,0.5-2,0.7-2.9c-1.7,0.5-3.5,0.8-5.3,1.1c-6.8,0.9-13,0.6-17.6-0.9
	c-3.1-1-5.8-2.8-7.8-5.4c-2.1-2.6-3.2-5.9-3.2-9.3c0-2.2,0.4-4.4,1.3-6.4c0.9-1.9,2.1-3.7,3.7-5.1c1.8-1.7,3.8-3.1,6-4.3
	c3-1.5,6-2.8,9.2-3.7c1.8-0.6,4.8-1.5,8.8-2.6c4.9-1.4,7.1-2,8.1-2.3c1.2-0.4,2.4-0.8,3.6-1.3c1-0.4,1.9-0.9,2.8-1.4
	c0.8-0.5,2.2-1.5,4-2.9l4.8-3.7l-1.5,32l-1.5,18.8c1.7,0,3.1-0.1,4.2-0.1s2.6,0,4.2,0.1c0-5.1,0.2-10.8,0.4-16.9
	c0.3-7.3,0.7-15.2,1.3-24.1c0.6-8.6,0.8-14.7,0.8-18.3c0-2.5-0.4-5-1.2-7.3c-0.9-2.2-2.5-4.1-4.5-5.4c-2.8-1.9-6.1-3.3-9.4-4
	c-7.7-1.6-16.9-1.6-26.3-0.4c-4.9,0.7-9.7,1.6-14.5,2.9c-0.2,1.4-0.4,2.6-0.5,3.8c2.1-0.8,3.9-1.3,5.5-1.8c3.2-0.9,6.5-1.6,9.8-2.1
	C409.7,100.2,413.4,99.9,417.1,99.9z"/>
<path class="st6" d="M467.1,175.7l-0.5-5.9c0-0.6-0.2-2.7-0.6-6.1c8.2,3.6,15.8,5.4,22.7,5.4c3.1,0.1,6.3-0.4,9.2-1.4
	c2.3-0.8,4.3-2.3,5.6-4.3c1.2-1.7,1.9-3.8,1.9-5.9c0-2.3-0.8-4.6-2.1-6.6c-0.9-1.3-1.9-2.4-3.1-3.4c-1.4-1.3-4.2-3.6-8.5-7.1
	s-7.5-6.2-9.8-8.1c-2.1-1.8-4-3.8-5.7-6c-1.5-1.9-2.7-4-3.5-6.2c-0.7-2-1.1-4.2-1.1-6.3c0-3.6,1.2-7,3.3-9.9
	c2.3-3.3,5.6-5.8,9.4-7.2c4.6-1.7,9.5-2.5,14.4-2.4c6.8,0.1,13.6,0.8,20.3,2.2c0.2,4.2,0.5,8,0.8,11.4c-5.6-2.4-11.6-3.6-17.7-3.7
	c-3,0-5.9,0.4-8.8,1.2c-2.3,0.6-4.4,1.9-5.9,3.7c-1.2,1.6-1.9,3.5-1.9,5.5c0,1.3,0.2,2.5,0.7,3.7c0.6,1.4,1.3,2.7,2.3,3.8
	c1.2,1.4,2.6,2.8,4,4c1.6,1.3,4.6,3.8,9.3,7.5c3.3,2.6,6.5,5.3,9.5,8.2c1.6,1.7,3.1,3.5,4.4,5.4c1.1,1.7,2,3.6,2.7,5.6
	c0.5,1.8,0.8,3.7,0.8,5.6c0,3.7-1.2,7.4-3.3,10.4c-2.5,3.4-5.9,6-9.9,7.4c-4.7,1.8-9.7,2.7-14.8,2.7c-2.3,0-5-0.1-8.1-0.4
	s-5.7-0.6-7.9-1S470.3,176.5,467.1,175.7z"/>
<path class="st6" d="M491.1,181.8c-2.8,0-5.6-0.2-8.4-0.5c-3.1-0.3-5.9-0.6-8.1-1.1s-4.9-1-8.2-1.8l-2-0.5l-0.6-8.1
	c0-0.2,0-1.2-0.6-5.8l-0.6-4.9l4.6,2c7.8,3.4,15.1,5.1,21.6,5.1c2.8,0.1,5.6-0.3,8.2-1.2c1.7-0.6,3.2-1.7,4.3-3.2
	c0.9-1.3,1.4-2.8,1.4-4.3c0-0.9-0.1-1.7-0.4-2.5c-0.3-0.9-0.7-1.7-1.2-2.5c-0.8-1.1-1.7-2-2.7-2.9c-0.9-0.9-3.1-2.8-8.3-7
	c-4.4-3.5-7.6-6.2-9.9-8.2c-2.2-1.9-4.2-4.1-6-6.4c-1.7-2.1-3-4.5-3.9-7c-0.8-2.3-1.3-4.8-1.3-7.3c0-4.1,1.3-8.1,3.7-11.5
	c2.6-3.8,6.4-6.7,10.7-8.2c9.1-3.5,21.7-3.2,36.2-0.3l2.2,0.4l0.1,2.2c0.2,4,0.5,7.8,0.8,11.3l0.4,4.7l-4.3-1.8
	c-5.3-2.2-10.9-3.4-16.6-3.5c-2.7,0-5.4,0.4-7.9,1.1c-1.8,0.4-3.3,1.4-4.5,2.7c-0.8,1.1-1.3,2.4-1.3,3.7c0,0.9,0.2,1.8,0.5,2.7
	c0.4,1.1,1.1,2.1,1.8,3c1.1,1.3,2.3,2.6,3.6,3.7c1.5,1.3,4.6,3.9,9.1,7.5c3.4,2.6,6.7,5.4,9.8,8.4c1.7,1.8,3.3,3.8,4.7,5.9
	c1.3,1.9,2.3,4.1,3,6.3c0.6,2.1,1,4.3,1,6.5c0,4.3-1.3,8.5-3.8,12c-2.8,3.9-6.7,6.9-11.2,8.5C501.8,180.9,496.5,181.9,491.1,181.8z
	 M469.7,173.5c2.3,0.6,4.3,1,5.9,1.3c2.1,0.4,4.7,0.7,7.6,1s5.6,0.4,7.8,0.4c4.7,0.1,9.3-0.7,13.7-2.4c3.4-1.2,6.4-3.5,8.6-6.4
	c1.8-2.6,2.8-5.6,2.8-8.8c0-1.6-0.2-3.3-0.7-4.8c-0.6-1.7-1.3-3.3-2.3-4.8c-1.2-1.8-2.6-3.5-4.1-5c-2.9-2.8-6-5.5-9.2-7.9
	c-4.6-3.6-7.7-6.2-9.3-7.6c-1.6-1.3-3-2.8-4.3-4.4c-1.2-1.4-2.1-2.9-2.8-4.6c-0.5-1.5-0.8-3.1-0.8-4.6c0-2.6,0.9-5.1,2.5-7.2
	c1.9-2.3,4.5-4,7.4-4.7c3.1-0.9,6.4-1.4,9.6-1.4c4.9,0,9.8,0.8,14.5,2.3c-0.1-1.6-0.2-3.2-0.3-4.9c-12.5-2.2-23.3-2.5-30.9,0.5
	c-3.2,1.1-6,3.3-8,6.1c-1.8,2.4-2.7,5.3-2.8,8.3c0,1.8,0.4,3.6,1,5.4c0.7,2,1.7,3.8,3,5.4c1.6,2,3.4,3.9,5.3,5.6
	c2.2,1.9,5.3,4.5,9.7,8s7.1,5.9,8.6,7.2c1.3,1.2,2.5,2.5,3.5,3.9c0.8,1.2,1.5,2.6,1.9,4c0.4,1.3,0.7,2.8,0.7,4.2
	c0,2.7-0.9,5.3-2.4,7.4c-1.7,2.5-4.1,4.4-7,5.4c-3.3,1.1-6.7,1.7-10.2,1.6c-6.6-0.1-13.2-1.4-19.4-3.8c0.1,0.9,0.1,1.3,0.1,1.6
	L469.7,173.5z"/>
<path class="st6" d="M573.4,167.7c-0.6,2.4-1.2,5.6-1.9,9.6c-2.8,0.7-5.7,1.1-8.6,1.5c-2.1,0.2-4.1,0.3-6.1,0.3
	c-3.9,0.1-7.8-0.4-11.5-1.7c-2.8-1-5.1-2.8-6.7-5.3c-1.6-2.4-2.3-5.7-2.3-9.9c0-0.5,0-1.5,0.1-2.9s0.3-6.2,0.8-14.4l2-33l0,0
	c0.2-2,0.6-5,0.8-8.8l0,0c0.3-2.8,0.5-7.5,0.8-14.1c5-0.9,9.2-1.7,12.7-2.5c-0.4,7.3-0.6,12.8-0.6,16.6H575c-0.3,3.1-0.4,6-0.5,8.8
	h-22.2l-2.1,41.5l-0.1,3.2c0,3.6,0.4,6.3,1.3,8.1c0.8,1.7,2.2,3.1,4,3.9c1.7,0.8,3.6,1.2,5.5,1.2c1.4,0,2.9-0.1,4.3-0.3
	C566.8,169.2,569.5,168.6,573.4,167.7z"/>
<path class="st6" d="M556.8,181.9c-4.2,0.1-8.5-0.5-12.5-1.9c-3.3-1.2-6.1-3.5-8-6.4c-1.8-2.9-2.8-6.7-2.8-11.4c0-0.6,0-1.6,0.1-3
	s0.3-5.5,0.8-14.4l2.1-34.6c0.2-1.9,0.5-4.3,0.6-7.2s0.5-7.6,0.8-14.1l0.1-2.3l2.2-0.4c5.1-0.9,9.2-1.7,12.6-2.5l3.6-0.8l-0.2,3.7
	c-0.3,5.5-0.5,10.1-0.5,13.6h22.4l-0.3,3.1c-0.3,3-0.4,5.9-0.5,8.7v2.8h-22.3l-2.1,41.9c0,3.8,0.6,5.8,1,6.8c0.5,1.1,1.4,2,2.6,2.5
	c2.5,1.1,5.2,1.1,8.3,0.7c1-0.1,3.2-0.5,7.8-1.6l4.5-1.1l-1.1,4.5c-0.6,2.4-1.2,5.5-1.9,9.4l-0.3,1.9l-1.9,0.4c-3,0.7-6,1.2-9,1.5
	C560.9,181.8,558.7,181.9,556.8,181.9z M543.5,91.3c-0.3,5.4-0.5,9.4-0.7,12c-0.1,3-0.4,5.6-0.6,7.5l-0.2,1.4L540,145
	c-0.5,8.9-0.8,13.1-0.8,14.3s-0.1,2.2-0.1,2.8c0,3.6,0.6,6.4,1.9,8.4c1.3,1.9,3.1,3.4,5.3,4.2c3.7,1.4,9.2,1.8,16.3,1.2
	c2.2-0.2,4.3-0.6,6.5-1c0.2-1.2,0.4-2.4,0.6-3.4c-1.7,0.4-3.1,0.6-4.1,0.7c-4.3,0.6-7.9,0.4-11.3-1.1c-2.3-1-4.2-2.9-5.3-5.2
	c-1.1-2.2-1.6-5.3-1.6-9.3l0.1-3.2l2.3-44.3h22.1c0-1,0.1-2.1,0.2-3.2h-22.1v-2.9c0-3.2,0.2-7.5,0.4-13
	C548.3,90.4,546,90.8,543.5,91.3z"/>
<path class="st6" d="M596.2,109.1c0.5-2.3,1-5.8,1.5-10.4c5.5-1.5,11.1-2.6,16.7-3.4c4.6-0.6,9.2-0.9,13.8-0.9c4.5,0,9,0.4,13.5,1.3
	c3.7,0.7,7.3,2.2,10.4,4.3c2.5,1.6,4.4,4,5.5,6.8c0.9,2.6,1.4,5.4,1.4,8.2c0,3.7-0.3,9.9-0.8,18.5s-1,16.7-1.3,24.1
	s-0.4,13.9-0.4,19.7c-2.9-0.1-5.2-0.2-7.1-0.2c-1.7,0-4.1,0.1-7.3,0.2l1.7-21.8l1.2-25.8c-1.9,1.4-3.3,2.5-4.2,3.1
	c-1,0.6-2.1,1.2-3.2,1.6c-1.2,0.5-2.5,1-3.9,1.4s-4.2,1.3-8.3,2.4s-7,2-8.7,2.6c-3,0.9-5.9,2.1-8.7,3.5c-2,1-3.8,2.3-5.4,3.8
	c-1.3,1.2-2.3,2.6-3,4.2c-0.7,1.7-1,3.5-1,5.4c-0.1,2.7,0.8,5.4,2.6,7.5c1.7,2.1,3.9,3.6,6.4,4.4c3,0.9,6.2,1.3,9.3,1.2
	c2.3,0,4.7-0.2,7-0.5c3.3-0.5,6.6-1.3,9.8-2.4c-1,3.1-1.9,6.3-2.6,9.5c-3.1,0.6-6.3,1.1-9.5,1.4c-2.5,0.2-4.8,0.3-7,0.3
	c-7.3,0-13-0.8-17.1-2.6c-3.9-1.5-7.1-4.3-9.2-7.8c-2-3.5-3-7.4-3-11.4c0-2.3,0.3-4.5,1.1-6.6c0.7-2,1.7-3.8,2.9-5.5
	c1.5-1.9,3.3-3.6,5.3-5c2.2-1.6,4.6-3,7.1-4.1c2.8-1.2,5.7-2.3,8.7-3.2c3.3-1,8.6-2.4,15.9-4.2c2.3-0.5,4.3-1.1,6-1.7
	c1.7-0.6,3.1-1.1,4.4-1.6c1.2-0.5,2.3-1.1,3.4-1.9c1-0.7,1.9-1.6,2.6-2.6c0.8-0.9,1.4-2,1.8-3.2c0.4-1,0.6-2.1,0.6-3.2
	c0-2.5-0.9-4.9-2.6-6.7c-1.8-1.9-4.1-3.3-6.7-3.9c-3.2-0.8-6.5-1.2-9.7-1.1c-3.6,0-7.1,0.3-10.7,0.8c-3.2,0.5-6.4,1.1-9.5,2
	C603.4,106.4,600.1,107.6,596.2,109.1z"/>
<path class="st6" d="M614.8,181.9c-7.8,0-13.7-0.9-18.2-2.8c-4.4-1.7-8.2-4.9-10.6-9c-2.3-3.9-3.4-8.3-3.4-12.8
	c0-2.6,0.4-5.1,1.2-7.6c0.8-2.3,1.9-4.4,3.3-6.3c1.7-2.1,3.6-4,5.8-5.6c2.4-1.7,4.9-3.2,7.6-4.4c2.6-1.1,5.6-2.2,9-3.3
	s8.6-2.4,16.1-4.2c2.2-0.5,4.2-1,5.8-1.6s3-1.1,4.2-1.6c1-0.4,1.9-0.9,2.7-1.5c0.8-0.6,1.5-1.3,2.1-2.1c0.6-0.7,1-1.5,1.3-2.4
	c0.3-0.7,0.4-1.5,0.4-2.3c0.1-1.8-0.6-3.5-1.8-4.8c-1.4-1.5-3.3-2.6-5.3-3.1c-4.9-1.3-12-1.3-19.2-0.2c-3.1,0.4-6.1,1.1-9.1,1.9
	c-2.5,0.7-5.7,1.8-9.6,3.4l-4.9,1.9l1.1-5.1c0.4-2.2,0.9-5.6,1.5-10.1l0.2-1.9L597,96c5.6-1.5,11.3-2.6,17-3.5
	c10.2-1.3,19.9-1.3,28.3,0.4c4.1,0.8,8,2.4,11.5,4.8c3,2,5.3,4.8,6.6,8.1c1,3,1.5,6.1,1.5,9.2c0,3.7-0.3,10-0.8,18.7
	c-0.6,8.9-1,16.8-1.3,24c-0.3,7.1-0.4,13.6-0.4,19.6v2.9l-2.9-0.1c-2.8-0.1-5.2-0.2-7-0.2c-1.7,0-4.1,0.1-7.2,0.2l-3.2,0.1l2-25
	l0.9-19.9c-1,0.6-2.1,1.1-3.2,1.6c-1.3,0.6-2.7,1.1-4.1,1.6c-1.5,0.5-4.4,1.3-8.4,2.4c-4.8,1.3-7.3,2.1-8.5,2.5
	c-2.8,0.9-5.6,2-8.2,3.3c-1.7,0.9-3.3,2-4.8,3.4c-1,0.9-1.8,2-2.4,3.2c-0.5,1.4-0.8,2.8-0.8,4.3c0,2.1,0.7,4.1,2,5.7
	c1.3,1.7,3.1,2.9,5.1,3.5c3.8,1.2,9.3,1.4,15.2,0.7c3.2-0.5,6.3-1.3,9.4-2.3l5.4-1.7l-1.9,5.4c-1,3-1.8,6.1-2.5,9.2l-0.4,1.8
	l-1.8,0.4c-3.3,0.7-6.5,1.1-9.8,1.4C619.5,181.8,617.1,181.9,614.8,181.9z M626.2,100c3.5-0.1,7,0.3,10.4,1.2c3.1,0.8,5.9,2.4,8,4.7
	c2.2,2.3,3.4,5.4,3.3,8.7c0,1.4-0.3,2.8-0.7,4.1c-0.5,1.4-1.2,2.8-2.2,3.9c-0.9,1.2-2,2.3-3.2,3.2c-1.2,0.9-2.5,1.7-4,2.2
	c-1.4,0.6-3,1.1-4.6,1.7c-2.1,0.7-4.2,1.3-6.3,1.7c-7.2,1.8-12.5,3.1-15.7,4.1s-6,2-8.4,3.1c-2.3,1-4.5,2.3-6.5,3.8
	c-1.8,1.2-3.3,2.7-4.7,4.4c-1.1,1.5-1.9,3.1-2.5,4.8c-0.6,1.8-0.9,3.8-0.9,5.7c0,3.5,0.9,7,2.6,10c1.8,3,4.6,5.3,7.8,6.6
	c3.7,1.6,9.2,2.4,16,2.4c2.2,0,4.4-0.1,6.8-0.3c1.9-0.1,4.4-0.5,7.4-1c0.2-1.1,0.5-2,0.7-2.9c-1.7,0.5-3.5,0.8-5.3,1.1
	c-6.7,0.9-13,0.6-17.6-0.9c-3.1-1-5.8-2.9-7.8-5.4c-2.1-2.6-3.2-5.9-3.2-9.3c0-2.2,0.4-4.4,1.3-6.4c0.9-2,2.1-3.7,3.7-5.1
	c1.8-1.7,3.8-3.1,6-4.3c3-1.5,6.1-2.8,9.3-3.7c1.8-0.6,4.8-1.5,8.8-2.6c4.9-1.4,7.1-2,8.1-2.3c1.3-0.4,2.5-0.9,3.6-1.3
	c1-0.4,1.9-0.9,2.8-1.4c0.6-0.4,1.8-1.2,4-2.9l4.8-3.8l-1.5,32l-1.5,18.8c1.7,0,3.1-0.1,4.2-0.1s2.6,0,4.2,0.1
	c0-5.2,0.2-10.9,0.4-16.9c0.3-7.3,0.7-15.1,1.3-24.1c0.6-8.6,0.8-14.8,0.8-18.4c0-2.5-0.4-4.9-1.2-7.3c-0.9-2.2-2.5-4.1-4.5-5.4
	c-2.8-1.9-6-3.2-9.4-3.8c-7.7-1.6-16.8-1.6-26.3-0.4c-4.9,0.7-9.7,1.6-14.5,2.8c-0.2,1.4-0.3,2.6-0.5,3.8c2.1-0.8,3.9-1.4,5.5-1.8
	c3.2-0.9,6.5-1.6,9.8-2.1C618.8,100.3,622.5,100,626.2,100L626.2,100z"/>
<path class="st6" d="M675.3,178.2c1.9-30.8,2.8-55.4,2.8-73.7l-0.1-7.4c2.7,0,5,0.1,6.7,0.1c2,0,4.3,0,6.8-0.1l-0.7,13.3
	c1.5-2.6,3.3-5.1,5.2-7.5c1.5-1.6,3.3-3,5.2-4.2c2.1-1.1,4.2-2,6.5-2.6c2.5-0.6,5-0.9,7.6-0.9c2.2,0,4.5,0.3,6.7,0.8
	c0.1,3.5,0.2,7.5,0.5,11.8c-2.9-0.8-5.9-1.3-8.9-1.3c-2.9-0.1-5.8,0.5-8.5,1.6c-2.6,1.1-4.9,2.7-6.8,4.7c-2.1,2.2-3.7,4.8-4.9,7.6
	c-1.2,2.9-2,6-2.5,9.1c-0.5,3.7-1,10.5-1.3,20.4c-0.2,7.2-0.3,14.8-0.3,22.9v5.4c-2.9-0.1-5.2-0.2-7-0.2
	C681,178,678.5,178.1,675.3,178.2z"/>
<path class="st6" d="M692.4,181.1l-3-0.1c-2.7-0.1-5-0.1-6.9-0.1c-1.2,0-3.4,0-7.2,0.1l-3.1,0.1l0.2-3.1c1.9-30.6,2.8-55.3,2.8-73.5
	l-0.1-10.2l2.9,0.1c2.7,0,4.9,0.1,6.7,0.1c2,0,4.3,0,6.8-0.1l3-0.1l-0.3,6.6c1.7-1.8,3.6-3.3,5.8-4.6c2.3-1.3,4.7-2.2,7.2-2.8
	c5.1-1.3,10.4-1.3,15.6-0.1l2.1,0.5V96c0,3.5,0.3,7.4,0.6,11.7l0.3,4l-3.9-1.1c-6.7-1.8-11.5-1.6-15.5,0.1c-2.2,0.9-4.2,2.3-5.8,4.1
	c-1.8,2-3.3,4.3-4.4,6.7c-1.1,2.7-1.9,5.5-2.2,8.4c-0.5,3.6-1,10.4-1.3,20.1c-0.2,7.1-0.3,14.7-0.3,22.8L692.4,181.1z M680.9,100
	v4.5c0,17.7-0.9,41.5-2.7,70.8c1.7,0,3.1-0.1,4.3-0.1s2.6,0,4.2,0.1v-2.4c0-8.1,0.1-15.9,0.3-23c0.3-10.1,0.8-16.9,1.4-20.7
	c0.4-3.4,1.3-6.7,2.7-9.9c1.3-3.1,3.1-5.9,5.4-8.3c2.2-2.3,4.8-4.1,7.7-5.4c3-1.2,6.3-1.8,9.6-1.8c1.9,0,3.9,0.2,5.8,0.6
	c-0.1-2.1-0.2-4-0.2-5.9c-3.6-0.6-7.2-0.4-10.7,0.5c-2,0.5-4,1.2-5.8,2.3c-1.7,1-3.2,2.2-4.5,3.6c-1.8,2.2-3.5,4.5-4.9,7l-5.3-1.6
	l0.5-10.3C686,100,684,100,680.9,100z"/>
</svg>